{
.formatVersion = 3;
axes = (
{
name = Weight;
tag = wght;
}
);
classes = (
{
code = "slash A G O W.ss09 d l o q t u w.ss09 y periodcentered Scedilla scedilla Tcedilla tcedilla Decyr Elcyr Efcyr becyr vecyr gecyr zhecyr zecyr kacyr tecyr yucyr gjecyr Gestrokecyr gestrokecyr Zetailcyr zetailcyr zero.numr one.numr two.numr three.numr four.numr five.numr six.numr seven.numr eight.numr nine.numr brevecomb-cy";
name = aalt;
},
{
code = "fraction ordfeminine ordmasculine l.ss05 ordmasculine q.ss06 t.ss07 periodcentered.loclCAT Scommaaccent scommaaccent Tcommaaccent tcommaaccent Decyr.loclBGR Elcyr.loclBGR Efcyr.loclBGR becyr.loclSRB vecyr.loclBGR gecyr.loclSRB zhecyr.loclBGR zecyr.loclBGR kacyr.loclBGR tecyr.loclBGR yucyr.loclBGR gjecyr.loclMKD Gestrokecyr.loclBSH gestrokecyr.loclBSH Zetailcyr.loclBSH zetailcyr.loclBSH zero.dnom one.dnom two.dnom three.dnom four.dnom five.dnom six.dnom seven.dnom eight.dnom nine.dnom brevecomb-cy.case";
name = aalt2;
},
{
code = "gravecomb acutecomb circumflexcomb tildecomb macroncomb brevecomb dotaccentcomb dieresiscomb ringcomb hungarumlautcomb caroncomb commaturnedabovecomb hookabovecomb dblgravecomb breveinvertedcomb";
name = ccmp;
},
{

glyphs = (
{
glyphname = .notdef;
layers = (
{
layerId = "D56C188B-E5B2-4235-B802-3B7EEA6FD951";
shapes = (
{
closed = 1;
nodes = (
(558,689,ls),
(558,702,o),
(551,710,o),
(540,710,cs),
(69,710,ls),
(58,710,o),
(50,702,o),
(50,687,cs),
(50,25,ls),
(50,8,o),
(56,0,o),
(77,0,cs),
(525,0,ls),
(548,0,o),
(558,8,o),
(558,29,cs)
);
},
{
closed = 1;
nodes = (
(506,74,ls),
(506,57,o),
(497,50,o),
(478,50,cs),
(125,50,ls),
(106,50,o),
(102,56,o),
(102,71,cs),
(102,641,ls),
(102,653,o),
(109,660,o),
(118,660,cs),
(491,660,ls),
(500,660,o),
(506,653,o),
(506,642,cs)
);
},
{
closed = 1;
nodes = (
(538,33,l),
(123,696,l),
(71,669,l),
(478,28,l)
);
}
);
width = 608;
},
{
layerId = "C7C3A33C-E883-49F1-BDC1-C605A621ADB5";
shapes = (
{
closed = 1;
nodes = (
(558,689,ls),
(558,702,o),
(551,710,o),
(540,710,cs),
(69,710,ls),
(58,710,o),
(50,702,o),
(50,687,cs),
(50,25,ls),
(50,8,o),
(56,0,o),
(77,0,cs),
(525,0,ls),
(548,0,o),
(558,8,o),
(558,29,cs)
);
},
{
closed = 1;
nodes = (
(506,74,ls),
(506,57,o),
(497,50,o),
(478,50,cs),
(125,50,ls),
(106,50,o),
(102,56,o),
(102,71,cs),
(102,641,ls),
(102,653,o),
(109,660,o),
(118,660,cs),
(491,660,ls),
(500,660,o),
(506,653,o),
(506,642,cs)
);
},
{
closed = 1;
nodes = (
(538,33,l),
(123,696,l),
(71,669,l),
(478,28,l)
);
}
);
width = 608;
}
);
},
{
glyphname = exclam;
layers = (
{
layerId = "089F0C00-674C-4F2E-8375-778CCED9E96B";
shapes = (
{
closed = 1;
nodes = (
(216,262,l),
(309,512,l),
(352,717,l),
(162,717,l),
(119,512,l),
(106,262,l)
);
},
{
closed = 1;
nodes = (
(23,58,o),
(28,36,o),
(43,18,c),
(57,-1,o),
(77,-10,o),
(103,-10,cs),
(129,-10,o),
(153,-1,o),
(176,18,cs),
(198,36,o),
(211,58,o),
(217,84,cs),
(228,136,o),
(195,178,o),
(143,178,cs),
(117,178,o),
(93,169,o),
(71,151,cs),
(48,132,o),
(34,110,o),
(29,84,cs)
);
}
);
width = 330;
},
{
layerId = "D56C188B-E5B2-4235-B802-3B7EEA6FD951";
shapes = (
{
closed = 1;
nodes = (
(171,243,l),
(251,499,l),
(297,717,l),
(162,717,l),
(116,499,l),
(88,243,l)
);
},
{
closed = 1;
nodes = (
(13,43,o),
(17,26,o),
(29,12,c),
(39,-3,o),
(55,-10,o),
(75,-10,cs),
(95,-10,o),
(113,-3,o),
(132,12,cs),
(149,26,o),
(159,43,o),
(163,63,cs),
(172,103,o),
(146,137,o),
(106,137,cs),
(86,137,o),
(68,130,o),
(50,115,cs),
(32,100,o),
(22,83,o),
(17,63,cs)
);
}
);
width = 295;
},
{
layerId = "C7C3A33C-E883-49F1-BDC1-C605A621ADB5";
shapes = (
{
closed = 1;
nodes = (
(133,231,l),
(203,491,l),
(251,717,l),
(163,717,l),
(115,491,l),
(75,231,l)
);
},
{
closed = 1;
nodes = (
(6,31,o),
(9,18,o),
(17,7,cs),
(26,-5,o),
(38,-10,o),
(53,-10,cs),
(68,-10,o),
(83,-5,o),
(96,7,cs),
(110,18,o),
(118,31,o),
(121,46,cs),
(127,77,o),
(108,102,o),
(77,102,cs),
(62,102,o),
(48,97,o),
(34,86,cs),
(21,75,o),
(12,61,o),
(9,46,cs)
);
}
);
width = 258;
},
{
layerId = "F5CD80C0-3A8F-48DC-9182-C71904D0895A";
shapes = (
{
closed = 1;
nodes = (
(91,200,l),
(133,400,l),
(200,717,l),
(180,717,l),
(113,400,l),
(71,200,l)
);
},
{
closed = 1;
nodes = (
(7,20,o),
(9,12,o),
(14,5,cs),
(20,-2,o),
(27,-5,o),
(36,-5,cs),
(45,-5,o),
(54,-2,o),
(62,5,cs),
(71,12,o),
(75,20,o),
(77,29,cs),
(81,48,o),
(69,62,o),
(50,62,cs),
(41,62,o),
(33,59,o),
(24,53,cs),
(16,46,o),
(11,38,o),
(9,29,cs)
);
}
);
width = 224;
}
);
unicode = 33;
},
{
glyphname = numbersign;
layers = (
{
layerId = "089F0C00-674C-4F2E-8375-778CCED9E96B";
shapes = (
{
closed = 1;
nodes = (
(740,527,l),
(618,527,l),
(701,710,l),
(550,710,l),
(469,527,l),
(422,527,l),
(504,710,l),
(353,710,l),
(272,527,l),
(132,527,l),
(104,397,l),
(212,397,l),
(177,310,l),
(37,310,l),
(7,170,l),
(113,170,l),
(38,0,l),
(189,0,l),
(263,170,l),
(310,170,l),
(235,0,l),
(385,0,l),
(460,170,l),
(615,170,l),
(645,310,l),
(524,310,l),
(559,397,l),
(712,397,l)
);
},
{
closed = 1;
nodes = (
(327,310,l),
(362,397,l),
(409,397,l),
(374,310,l)
);
}
);
width = 727;
},
{
layerId = "D56C188B-E5B2-4235-B802-3B7EEA6FD951";
shapes = (
{
closed = 1;
nodes = (
(707,519,l),
(590,519,l),
(676,710,l),
(562,710,l),
(478,519,l),
(379,519,l),
(464,710,l),
(351,710,l),
(267,519,l),
(128,519,l),
(107,421,l),
(221,421,l),
(166,290,l),
(34,290,l),
(11,185,l),
(118,185,l),
(36,0,l),
(149,0,l),
(230,185,l),
(329,185,l),
(247,0,l),
(360,0,l),
(442,185,l),
(591,185,l),
(613,290,l),
(489,290,l),
(545,421,l),
(686,421,l)
);
},
{
closed = 1;
nodes = (
(279,290,l),
(334,421,l),
(433,421,l),
(377,290,l)
);
}
);
width = 697;
},
{
layerId = "C7C3A33C-E883-49F1-BDC1-C605A621ADB5";
shapes = (
{
closed = 1;
nodes = (
(672,511,l),
(559,511,l),
(648,710,l),
(575,710,l),
(488,511,l),
(333,511,l),
(421,710,l),
(349,710,l),
(261,511,l),
(124,511,l),
(110,447,l),
(231,447,l),
(154,269,l),
(30,269,l),
(16,201,l),
(123,201,l),
(33,0,l),
(106,0,l),
(195,201,l),
(350,201,l),
(260,0,l),
(333,0,l),
(422,201,l),
(564,201,l),
(578,269,l),
(452,269,l),
(530,447,l),
(658,447,l)
);
},
{
closed = 1;
nodes = (
(226,269,l),
(303,447,l),
(458,447,l),
(380,269,l)
);
}
);
width = 664;
},
{
layerId = "F5CD80C0-3A8F-48DC-9182-C71904D0895A";
shapes = (
{
closed = 1;
nodes = (
(627,501,l),
(520,501,l),
(614,710,l),
(593,710,l),
(500,501,l),
(273,501,l),
(367,710,l),
(346,710,l),
(254,501,l),
(120,501,l),
(115,481,l),
(244,481,l),
(139,241,l),
(26,241,l),
(22,221,l),
(129,221,l),
(31,0,l),
(52,0,l),
(149,221,l),
(376,221,l),
(278,0,l),
(299,0,l),
(396,221,l),
(530,221,l),
(534,241,l),
(405,241,l),
(511,481,l),
(623,481,l)
);
},
{
closed = 1;
nodes = (
(158,241,l),
(264,481,l),
(491,481,l),
(385,241,l)
);
}
);
width = 623;
}
);
unicode = 35;
},
{
glyphname = dollar;
layers = (
{
layerId = "089F0C00-674C-4F2E-8375-778CCED9E96B";
shapes = (
{
closed = 1;
nodes = (
(187,-129,l),
(267,-129,l),
(314,95,l),
(235,95,l)
);
},
{
closed = 1;
nodes = (
(304,115,l),
(254,117,l),
(354,589,l),
(408,603,l)
);
},
{
closed = 1;
nodes = (
(344,609,l),
(426,623,l),
(467,815,l),
(388,815,l)
);
},
{
closed = 1;
nodes = (
(642,639,l),
(615,655,o),
(580,674,o),
(540,690,c),
(499,705,o),
(452,716,o),
(403,716,cs),
(327,716,o),
(250,690,o),
(191,642,cs),
(132,594,o),
(93,523,o),
(93,434,cs),
(93,397,o),
(104,365,o),
(126,340,cs),
(148,315,o),
(180,294,o),
(224,277,cs),
(257,264,o),
(290,255,o),
(314,244,cs),
(338,233,o),
(354,223,o),
(354,204,cs),
(354,195,o),
(352,186,o),
(345,179,cs),
(337,171,o),
(325,167,o),
(302,167,cs),
(250,167,o),
(199,186,o),
(163,206,cs),
(126,226,o),
(103,245,o),
(104,245,c),
(-16,74,l),
(20,49,o),
(65,29,o),
(113,14,cs),
(161,-1,o),
(213,-9,o),
(262,-9,cs),
(334,-9,o),
(412,8,o),
(472,51,cs),
(532,94,o),
(574,161,o),
(574,262,cs),
(574,311,o),
(558,346,o),
(530,373,cs),
(501,400,o),
(461,420,o),
(413,437,cs),
(381,449,o),
(355,457,o),
(336,466,cs),
(317,475,o),
(307,485,o),
(307,501,cs),
(307,516,o),
(313,526,o),
(323,533,cs),
(333,540,o),
(345,543,o),
(360,543,cs),
(400,543,o),
(442,527,o),
(474,511,c),
(505,494,o),
(527,478,o),
(524,478,c)
);
}
);
width = 630;
},
{
layerId = "D56C188B-E5B2-4235-B802-3B7EEA6FD951";
shapes = (
{
closed = 1;
nodes = (
(189,-118,l),
(252,-118,l),
(291,68,l),
(229,68,l)
);
},
{
closed = 1;
nodes = (
(284,83,l),
(401,633,l),
(357,623,l),
(242,85,l)
);
},
{
closed = 1;
nodes = (
(350,636,l),
(414,647,l),
(450,815,l),
(388,815,l)
);
},
{
closed = 1;
nodes = (
(620,637,l),
(596,656,o),
(563,676,o),
(526,691,cs),
(489,706,o),
(445,716,o),
(398,716,cs),
(319,716,o),
(244,690,o),
(189,646,cs),
(133,601,o),
(96,534,o),
(96,451,cs),
(96,411,o),
(109,380,o),
(135,356,cs),
(161,331,o),
(198,313,o),
(247,297,cs),
(288,284,o),
(325,273,o),
(352,259,cs),
(379,245,o),
(394,227,o),
(394,203,cs),
(394,179,o),
(386,159,o),
(367,145,cs),
(348,131,o),
(321,122,o),
(284,122,cs),
(232,122,o),
(183,138,o),
(147,158,c),
(110,177,o),
(85,197,o),
(78,209,c),
(-13,83,l),
(20,55,o),
(63,32,o),
(108,16,cs),
(153,0,o),
(203,-8,o),
(254,-8,cs),
(330,-8,o),
(405,10,o),
(462,51,cs),
(519,92,o),
(557,155,o),
(557,246,cs),
(557,295,o),
(540,330,o),
(509,356,cs),
(478,382,o),
(435,400,o),
(382,416,cs),
(342,428,o),
(309,438,o),
(288,451,cs),
(267,463,o),
(255,477,o),
(255,500,cs),
(255,527,o),
(264,548,o),
(283,563,cs),
(302,578,o),
(330,587,o),
(366,587,cs),
(406,587,o),
(446,575,o),
(476,559,cs),
(506,543,o),
(528,527,o),
(532,518,c)
);
}
);
width = 614;
},
{
layerId = "C7C3A33C-E883-49F1-BDC1-C605A621ADB5";
shapes = (
{
closed = 1;
nodes = (
(192,-107,l),
(235,-107,l),
(266,38,l),
(223,39,l)
);
},
{
closed = 1;
nodes = (
(262,48,l),
(230,50,l),
(360,659,l),
(393,666,l)
);
},
{
closed = 1;
nodes = (
(356,665,l),
(401,672,l),
(431,815,l),
(388,815,l)
);
},
{
closed = 1;
nodes = (
(597,634,l),
(574,658,o),
(546,679,o),
(512,693,cs),
(478,707,o),
(437,715,o),
(392,715,cs),
(312,715,o),
(238,692,o),
(186,650,cs),
(133,608,o),
(99,546,o),
(99,469,cs),
(99,426,o),
(115,396,o),
(144,373,cs),
(173,349,o),
(216,333,o),
(271,318,cs),
(323,305,o),
(365,292,o),
(394,274,cs),
(422,256,o),
(438,233,o),
(438,201,cs),
(438,161,o),
(422,130,o),
(392,108,cs),
(362,86,o),
(319,74,o),
(264,74,cs),
(213,74,o),
(166,87,o),
(130,105,cs),
(93,123,o),
(65,146,o),
(50,169,c),
(-9,93,l),
(22,61,o),
(59,35,o),
(103,19,c),
(146,2,o),
(193,-7,o),
(245,-7,cs),
(325,-7,o),
(398,12,o),
(451,51,cs),
(504,90,o),
(538,149,o),
(538,229,cs),
(538,278,o),
(519,312,o),
(487,337,cs),
(454,362,o),
(406,379,o),
(349,394,cs),
(300,406,o),
(261,418,o),
(236,434,cs),
(211,449,o),
(198,469,o),
(198,498,cs),
(198,538,o),
(212,572,o),
(241,596,cs),
(269,620,o),
(313,635,o),
(373,635,cs),
(413,635,o),
(450,626,o),
(479,612,cs),
(507,598,o),
(529,580,o),
(540,561,c)
);
}
);
width = 596;
},
{
layerId = "F5CD80C0-3A8F-48DC-9182-C71904D0895A";
shapes = (
{
closed = 1;
nodes = (
(205,-93,l),
(225,-93,l),
(244,0,l),
(225,0,l)
);
},
{
closed = 1;
nodes = (
(245,4,l),
(226,5,l),
(375,706,l),
(395,708,l)
);
},
{
closed = 1;
nodes = (
(374,702,l),
(398,815,l),
(418,815,l),
(394,704,l)
);
},
{
closed = 1;
nodes = (
(577,630,l),
(557,661,o),
(533,682,o),
(503,696,cs),
(473,710,o),
(437,715,o),
(394,715,cs),
(311,715,o),
(242,694,o),
(192,655,cs),
(142,616,o),
(113,560,o),
(113,491,cs),
(113,446,o),
(132,415,o),
(166,394,cs),
(200,373,o),
(249,359,o),
(312,346,cs),
(376,333,o),
(424,317,o),
(456,295,cs),
(488,273,o),
(504,243,o),
(504,203,cs),
(504,140,o),
(479,93,o),
(435,61,cs),
(391,29,o),
(327,12,o),
(250,12,cs),
(198,12,o),
(155,20,o),
(118,37,cs),
(81,54,o),
(50,81,o),
(23,118,c),
(6,105,l),
(34,68,o),
(67,40,o),
(106,22,cs),
(145,4,o),
(192,-5,o),
(245,-5,cs),
(329,-5,o),
(400,15,o),
(449,52,cs),
(497,88,o),
(525,141,o),
(525,208,cs),
(525,256,o),
(504,289,o),
(468,313,c),
(431,336,o),
(379,352,o),
(316,365,c),
(255,380,o),
(209,392,o),
(179,412,cs),
(149,431,o),
(134,456,o),
(134,495,cs),
(134,551,o),
(153,601,o),
(194,638,cs),
(235,674,o),
(300,696,o),
(392,696,cs),
(432,696,o),
(464,691,o),
(492,679,cs),
(519,667,o),
(541,647,o),
(561,616,c)
);
}
);
width = 589;
}
);
unicode = 36;
},
{
glyphname = percent;
layers = (
{
layerId = "089F0C00-674C-4F2E-8375-778CCED9E96B";
shapes = (
{
closed = 1;
nodes = (
(282,404,o),
(334,425,o),
(372,459,cs),
(410,493,o),
(435,539,o),
(435,588,cs),
(435,625,o),
(421,658,o),
(396,682,cs),
(371,706,o),
(337,720,o),
(294,720,cs),
(241,720,o),
(188,700,o),
(150,666,cs),
(112,632,o),
(86,587,o),
(86,536,cs),
(86,499,o),
(100,466,o),
(125,442,cs),
(149,418,o),
(184,404,o),
(227,404,cs)
);
},
{
closed = 1;
nodes = (
(227,494,o),
(216,516,o),
(216,544,cs),
(216,567,o),
(224,588,o),
(236,604,cs),
(247,620,o),
(262,630,o),
(275,630,cs),
(294,630,o),
(305,608,o),
(305,580,cs),
(305,557,o),
(297,536,o),
(286,520,cs),
(274,504,o),
(259,494,o),
(246,494,cs)
);
},
{
closed = 1;
nodes = (
(609,-10,o),
(661,11,o),
(699,45,cs),
(737,79,o),
(762,125,o),
(762,174,cs),
(762,211,o),
(748,244,o),
(723,268,cs),
(698,292,o),
(664,306,o),
(621,306,cs),
(568,306,o),
(515,286,o),
(477,252,cs),
(439,218,o),
(413,173,o),
(413,122,cs),
(413,85,o),
(427,52,o),
(452,28,cs),
(476,4,o),
(511,-10,o),
(554,-10,cs)
);
},
{
closed = 1;
nodes = (
(554,80,o),
(543,102,o),
(543,130,cs),
(543,153,o),
(551,174,o),
(563,190,cs),
(574,206,o),
(589,216,o),
(602,216,cs),
(621,216,o),
(631,194,o),
(631,166,cs),
(631,143,o),
(623,122,o),
(612,106,cs),
(601,90,o),
(586,80,o),
(573,80,cs)
);
},
{
closed = 1;
nodes = (
(135,-10,l),
(457,337,l),
(780,646,l),
(713,721,l),
(405,384,l),
(68,65,l)
);
}
);
width = 825;
},
{
layerId = "D56C188B-E5B2-4235-B802-3B7EEA6FD951";
shapes = (
{
closed = 1;
nodes = (
(271,416,o),
(319,436,o),
(355,469,cs),
(391,501,o),
(415,546,o),
(415,593,cs),
(415,629,o),
(403,660,o),
(380,683,cs),
(356,706,o),
(324,720,o),
(284,720,cs),
(235,720,o),
(185,699,o),
(149,667,cs),
(113,635,o),
(89,591,o),
(89,542,cs),
(89,507,o),
(102,475,o),
(125,452,cs),
(148,429,o),
(180,416,o),
(220,416,cs)
);
},
{
closed = 1;
nodes = (
(206,485,o),
(188,514,o),
(188,549,cs),
(188,576,o),
(199,600,o),
(215,619,cs),
(230,638,o),
(250,650,o),
(270,650,cs),
(298,650,o),
(317,622,o),
(317,586,cs),
(317,561,o),
(306,535,o),
(290,516,cs),
(274,497,o),
(254,485,o),
(234,485,cs)
);
},
{
closed = 1;
nodes = (
(558,-10,o),
(606,11,o),
(642,43,cs),
(678,75,o),
(702,120,o),
(702,168,cs),
(702,204,o),
(689,235,o),
(666,258,cs),
(643,281,o),
(611,294,o),
(572,294,cs),
(521,294,o),
(472,274,o),
(436,242,cs),
(400,209,o),
(376,165,o),
(376,117,cs),
(376,81,o),
(389,50,o),
(412,27,cs),
(435,4,o),
(467,-10,o),
(507,-10,cs)
);
},
{
closed = 1;
nodes = (
(493,60,o),
(474,88,o),
(474,124,cs),
(474,151,o),
(485,175,o),
(501,194,cs),
(516,213,o),
(537,225,o),
(556,225,cs),
(585,225,o),
(603,196,o),
(603,161,cs),
(603,134,o),
(592,110,o),
(577,91,cs),
(562,71,o),
(541,60,o),
(522,60,cs)
);
},
{
closed = 1;
nodes = (
(94,-8,l),
(421,340,l),
(749,661,l),
(697,718,l),
(380,377,l),
(43,50,l)
);
}
);
width = 768;
},
{
layerId = "C7C3A33C-E883-49F1-BDC1-C605A621ADB5";
shapes = (
{
closed = 1;
nodes = (
(259,428,o),
(304,448,o),
(338,479,cs),
(372,510,o),
(394,554,o),
(394,599,cs),
(394,634,o),
(382,664,o),
(361,685,cs),
(340,706,o),
(310,720,o),
(274,720,cs),
(229,720,o),
(183,700,o),
(149,669,cs),
(115,638,o),
(92,596,o),
(92,549,cs),
(92,516,o),
(105,484,o),
(126,463,cs),
(146,442,o),
(176,428,o),
(212,428,cs)
);
},
{
closed = 1;
nodes = (
(183,476,o),
(157,511,o),
(157,555,cs),
(157,586,o),
(171,615,o),
(191,636,cs),
(211,657,o),
(237,672,o),
(264,672,cs),
(303,672,o),
(329,637,o),
(329,593,cs),
(329,564,o),
(315,533,o),
(295,512,cs),
(275,491,o),
(249,476,o),
(222,476,cs)
);
},
{
closed = 1;
nodes = (
(503,-10,o),
(548,10,o),
(582,41,cs),
(616,72,o),
(637,116,o),
(637,161,cs),
(637,196,o),
(625,226,o),
(605,247,cs),
(584,268,o),
(554,282,o),
(518,282,cs),
(473,282,o),
(427,262,o),
(393,231,cs),
(359,200,o),
(336,158,o),
(336,111,cs),
(336,78,o),
(349,46,o),
(370,25,cs),
(390,4,o),
(420,-10,o),
(456,-10,cs)
);
},
{
closed = 1;
nodes = (
(427,38,o),
(400,73,o),
(400,117,cs),
(400,148,o),
(414,177,o),
(434,198,cs),
(454,219,o),
(480,234,o),
(507,234,cs),
(546,234,o),
(573,199,o),
(573,155,cs),
(573,124,o),
(559,96,o),
(539,74,cs),
(519,52,o),
(493,38,o),
(466,38,cs)
);
},
{
closed = 1;
nodes = (
(49,-5,l),
(381,343,l),
(715,678,l),
(680,715,l),
(353,370,l),
(15,33,l)
);
}
);
width = 707;
},
{
layerId = "F5CD80C0-3A8F-48DC-9182-C71904D0895A";
shapes = (
{
closed = 1;
nodes = (
(251,444,o),
(292,463,o),
(323,493,cs),
(354,523,o),
(374,563,o),
(374,607,cs),
(374,639,o),
(364,667,o),
(345,687,cs),
(326,707,o),
(300,720,o),
(269,720,cs),
(228,720,o),
(187,702,o),
(156,672,cs),
(125,642,o),
(105,601,o),
(105,557,cs),
(105,525,o),
(115,497,o),
(134,477,cs),
(153,457,o),
(178,444,o),
(210,444,cs)
);
},
{
closed = 1;
nodes = (
(162,464,o),
(125,505,o),
(125,561,cs),
(125,597,o),
(142,632,o),
(168,658,cs),
(194,684,o),
(228,700,o),
(264,700,cs),
(315,700,o),
(354,659,o),
(354,603,cs),
(354,567,o),
(337,533,o),
(311,507,cs),
(285,481,o),
(250,464,o),
(214,464,cs)
);
},
{
closed = 1;
nodes = (
(439,-10,o),
(480,9,o),
(511,39,cs),
(542,69,o),
(562,109,o),
(562,153,cs),
(562,185,o),
(552,213,o),
(533,233,cs),
(514,253,o),
(488,266,o),
(457,266,cs),
(416,266,o),
(375,248,o),
(344,218,cs),
(313,188,o),
(293,147,o),
(293,103,cs),
(293,71,o),
(303,43,o),
(322,23,cs),
(341,2,o),
(367,-10,o),
(398,-10,cs)
);
},
{
closed = 1;
nodes = (
(349,10,o),
(313,51,o),
(313,106,cs),
(313,142,o),
(331,178,o),
(357,204,cs),
(383,230,o),
(417,246,o),
(453,246,cs),
(504,246,o),
(542,204,o),
(542,148,cs),
(542,112,o),
(525,79,o),
(499,53,cs),
(473,27,o),
(438,10,o),
(402,10,cs)
);
},
{
closed = 1;
nodes = (
(0,-1,l),
(325,334,l),
(679,699,l),
(666,711,l),
(313,347,l),
(-13,11,l)
);
}
);
width = 644;
}
);
unicode = 37;
},
{
glyphname = ampersand;
layers = (
{
layerId = "089F0C00-674C-4F2E-8375-778CCED9E96B";
shapes = (
{
closed = 1;
nodes = (
(293,-10,o),
(389,24,o),
(473,94,cs),
(557,164,o),
(628,269,o),
(660,416,c),
(507,416,l),
(495,324,o),
(458,254,o),
(412,206,cs),
(366,158,o),
(311,134,o),
(264,134,cs),
(245,134,o),
(229,139,o),
(216,149,cs),
(203,158,o),
(197,174,o),
(197,195,cs),
(197,219,o),
(206,237,o),
(230,255,cs),
(254,273,o),
(294,293,o),
(355,318,c),
(273,444,l),
(209,408,o),
(144,376,o),
(95,336,cs),
(46,295,o),
(12,247,o),
(12,176,cs),
(12,129,o),
(27,83,o),
(59,48,cs),
(91,13,o),
(141,-10,o),
(210,-10,cs)
);
},
{
closed = 1;
nodes = (
(415,0,l),
(663,0,l),
(361,438,ls),
(340,469,o),
(324,488,o),
(313,502,cs),
(302,516,o),
(297,526,o),
(297,539,cs),
(297,554,o),
(304,564,o),
(313,572,cs),
(322,579,o),
(334,582,o),
(345,582,cs),
(372,582,o),
(398,564,o),
(409,515,c),
(543,565,l),
(534,620,o),
(509,658,o),
(475,683,cs),
(441,707,o),
(399,719,o),
(355,719,cs),
(295,719,o),
(236,697,o),
(192,660,cs),
(148,623,o),
(120,570,o),
(120,507,cs),
(120,479,o),
(125,456,o),
(137,429,cs),
(148,402,o),
(165,374,o),
(189,338,cs)
);
}
);
width = 728;
},
{
layerId = "D56C188B-E5B2-4235-B802-3B7EEA6FD951";
shapes = (
{
closed = 1;
nodes = (
(279,-10,o),
(368,29,o),
(444,102,cs),
(520,174,o),
(582,280,o),
(610,416,c),
(493,416,l),
(478,320,o),
(440,241,o),
(393,186,cs),
(345,130,o),
(288,98,o),
(235,98,cs),
(211,98,o),
(191,105,o),
(176,119,c),
(160,132,o),
(152,153,o),
(152,181,cs),
(152,213,o),
(166,240,o),
(193,265,cs),
(220,289,o),
(262,313,o),
(318,341,c),
(255,432,l),
(196,397,o),
(136,364,o),
(91,324,cs),
(46,283,o),
(14,233,o),
(14,165,cs),
(14,118,o),
(30,74,o),
(61,43,cs),
(92,11,o),
(138,-10,o),
(198,-10,cs)
);
},
{
closed = 1;
nodes = (
(441,0,l),
(622,0,l),
(326,427,ls),
(303,459,o),
(288,482,o),
(278,499,cs),
(268,516,o),
(264,530,o),
(264,543,cs),
(264,564,o),
(274,582,o),
(289,595,cs),
(304,608,o),
(324,616,o),
(344,616,cs),
(383,616,o),
(417,588,o),
(432,537,c),
(530,589,l),
(519,632,o),
(495,665,o),
(464,686,cs),
(433,707,o),
(396,719,o),
(356,719,cs),
(297,719,o),
(241,698,o),
(200,663,cs),
(159,627,o),
(132,577,o),
(132,520,cs),
(132,495,o),
(137,472,o),
(149,445,c),
(160,417,o),
(178,388,o),
(203,352,cs)
);
}
);
width = 701;
},
{
layerId = "C7C3A33C-E883-49F1-BDC1-C605A621ADB5";
shapes = (
{
closed = 1;
nodes = (
(265,-10,o),
(346,34,o),
(413,110,cs),
(480,186,o),
(532,292,o),
(555,416,c),
(477,416,l),
(460,316,o),
(420,227,o),
(372,163,cs),
(323,99,o),
(263,60,o),
(203,60,cs),
(175,60,o),
(151,69,o),
(132,87,cs),
(113,105,o),
(103,131,o),
(103,165,cs),
(103,208,o),
(122,243,o),
(153,275,cs),
(184,307,o),
(229,336,o),
(278,365,c),
(236,418,l),
(183,386,o),
(127,351,o),
(86,310,cs),
(45,269,o),
(17,218,o),
(17,154,cs),
(17,106,o),
(35,65,o),
(64,37,cs),
(93,8,o),
(135,-10,o),
(184,-10,cs)
);
},
{
closed = 1;
nodes = (
(469,0,l),
(578,0,l),
(288,415,ls),
(264,450,o),
(249,476,o),
(240,497,cs),
(231,518,o),
(228,535,o),
(228,548,cs),
(228,575,o),
(242,601,o),
(263,621,cs),
(283,640,o),
(312,652,o),
(343,652,cs),
(394,652,o),
(437,612,o),
(456,560,c),
(516,614,l),
(503,646,o),
(480,673,o),
(453,691,cs),
(426,709,o),
(393,719,o),
(357,719,cs),
(301,719,o),
(248,698,o),
(209,665,cs),
(169,632,o),
(145,586,o),
(145,534,cs),
(145,511,o),
(150,489,o),
(162,462,cs),
(174,434,o),
(193,404,o),
(218,367,cs)
);
}
);
width = 672;
},
{
layerId = "F5CD80C0-3A8F-48DC-9182-C71904D0895A";
shapes = (
{
closed = 1;
nodes = (
(271,-10,o),
(351,36,o),
(418,113,cs),
(485,189,o),
(535,296,o),
(558,416,c),
(536,416,l),
(515,303,o),
(467,201,o),
(405,129,cs),
(343,56,o),
(267,11,o),
(191,11,cs),
(147,11,o),
(111,25,o),
(84,52,cs),
(56,79,o),
(42,114,o),
(42,158,cs),
(42,203,o),
(58,244,o),
(92,284,cs),
(126,324,o),
(179,363,o),
(252,403,c),
(239,418,l),
(159,374,o),
(104,333,o),
(69,290,cs),
(34,246,o),
(20,203,o),
(20,156,cs),
(20,107,o),
(38,65,o),
(67,36,cs),
(96,7,o),
(139,-10,o),
(188,-10,cs)
);
},
{
closed = 1;
nodes = (
(507,0,l),
(536,0,l),
(246,415,ls),
(225,446,o),
(209,472,o),
(199,495,cs),
(189,518,o),
(184,538,o),
(184,555,cs),
(184,594,o),
(205,629,o),
(237,657,cs),
(269,684,o),
(312,701,o),
(357,701,cs),
(425,701,o),
(478,665,o),
(505,602,c),
(519,614,l),
(504,647,o),
(483,674,o),
(456,692,cs),
(428,710,o),
(396,719,o),
(360,719,cs),
(308,719,o),
(259,700,o),
(223,669,cs),
(187,638,o),
(164,598,o),
(164,554,cs),
(164,533,o),
(170,510,o),
(184,481,cs),
(198,452,o),
(221,416,o),
(254,367,cs)
);
}
);
width = 668;
}
);
unicode = 38;
},
{
glyphname = parenleft;
layers = (
{
layerId = "089F0C00-674C-4F2E-8375-778CCED9E96B";
shapes = (
{
closed = 1;
nodes = (
(26,210,o),
(35,150,o),
(48,93,cs),
(61,36,o),
(79,-19,o),
(99,-66,c),
(252,1,l),
(239,48,o),
(226,95,o),
(218,142,cs),
(209,189,o),
(204,234,o),
(204,275,cs),
(204,330,o),
(219,392,o),
(252,464,cs),
(284,536,o),
(336,618,o),
(408,714,c),
(276,772,l),
(207,681,o),
(143,599,o),
(99,517,cs),
(54,435,o),
(26,353,o),
(26,266,cs)
);
}
);
width = 336;
},
{
layerId = "D56C188B-E5B2-4235-B802-3B7EEA6FD951";
shapes = (
{
closed = 1;
nodes = (
(34,211,o),
(41,155,o),
(54,100,cs),
(66,45,o),
(83,-9,o),
(103,-54,c),
(217,-3,l),
(202,42,o),
(189,90,o),
(180,138,cs),
(171,185,o),
(166,231,o),
(166,272,cs),
(166,340,o),
(191,415,o),
(228,491,cs),
(265,567,o),
(317,643,o),
(372,714,c),
(275,759,l),
(207,672,o),
(147,592,o),
(104,512,cs),
(60,432,o),
(34,351,o),
(34,264,cs)
);
}
);
width = 308;
},
{
layerId = "C7C3A33C-E883-49F1-BDC1-C605A621ADB5";
shapes = (
{
closed = 1;
nodes = (
(42,212,o),
(48,159,o),
(60,107,cs),
(71,55,o),
(87,3,o),
(107,-42,c),
(179,-8,l),
(162,36,o),
(148,84,o),
(139,132,cs),
(130,180,o),
(125,227,o),
(125,268,cs),
(125,351,o),
(159,440,o),
(202,520,cs),
(245,600,o),
(298,670,o),
(334,714,c),
(273,744,l),
(209,663,o),
(152,586,o),
(110,508,cs),
(68,430,o),
(42,349,o),
(42,261,cs)
);
}
);
width = 278;
},
{
layerId = "F5CD80C0-3A8F-48DC-9182-C71904D0895A";
shapes = (
{
closed = 1;
nodes = (
(49,212,o),
(54,163,o),
(64,115,cs),
(74,67,o),
(88,18,o),
(108,-26,c),
(126,-14,l),
(107,29,o),
(92,77,o),
(83,126,cs),
(74,174,o),
(69,223,o),
(69,264,cs),
(69,343,o),
(99,428,o),
(140,507,cs),
(181,586,o),
(234,659,o),
(281,714,c),
(268,726,l),
(208,650,o),
(154,577,o),
(114,501,cs),
(74,425,o),
(49,345,o),
(49,256,cs)
);
}
);
width = 228;
}
);
unicode = 40;
},
{
glyphname = parenright;
layers = (
{
layerId = "089F0C00-674C-4F2E-8375-778CCED9E96B";
shapes = (
{
closed = 1;
nodes = (
(329,535,o),
(299,659,o),
(260,772,c),
(103,714,l),
(110,694,o),
(121,652,o),
(132,600,cs),
(143,547,o),
(151,484,o),
(151,425,cs),
(151,348,o),
(130,280,o),
(95,213,cs),
(59,145,o),
(11,77,o),
(-44,1,c),
(80,-66,l),
(141,7,o),
(203,85,o),
(251,168,cs),
(298,251,o),
(329,338,o),
(329,430,cs)
);
}
);
width = 335;
},
{
layerId = "D56C188B-E5B2-4235-B802-3B7EEA6FD951";
shapes = (
{
closed = 1;
nodes = (
(294,535,o),
(265,652,o),
(228,759,c),
(111,714,l),
(120,690,o),
(132,646,o),
(143,594,cs),
(154,541,o),
(161,481,o),
(161,425,cs),
(161,349,o),
(140,281,o),
(105,211,cs),
(69,141,o),
(19,72,o),
(-38,-3,c),
(54,-54,l),
(117,19,o),
(177,98,o),
(221,178,cs),
(265,258,o),
(294,342,o),
(294,431,cs)
);
}
);
width = 308;
},
{
layerId = "C7C3A33C-E883-49F1-BDC1-C605A621ADB5";
shapes = (
{
closed = 1;
nodes = (
(256,533,o),
(229,645,o),
(194,744,c),
(119,714,l),
(131,685,o),
(145,639,o),
(155,587,cs),
(165,535,o),
(172,477,o),
(172,424,cs),
(172,351,o),
(151,280,o),
(115,208,cs),
(79,136,o),
(28,65,o),
(-32,-8,c),
(26,-42,l),
(90,34,o),
(148,111,o),
(189,189,cs),
(230,267,o),
(256,347,o),
(256,432,cs)
);
}
);
width = 278;
},
{
layerId = "F5CD80C0-3A8F-48DC-9182-C71904D0895A";
shapes = (
{
closed = 1;
nodes = (
(198,533,o),
(173,637,o),
(141,726,c),
(123,714,l),
(138,679,o),
(152,631,o),
(162,580,cs),
(172,528,o),
(177,473,o),
(177,424,cs),
(177,353,o),
(156,280,o),
(120,206,cs),
(83,132,o),
(31,57,o),
(-32,-14,c),
(-19,-26,l),
(50,54,o),
(105,129,o),
(142,205,cs),
(178,280,o),
(198,354,o),
(198,433,cs)
);
}
);
width = 228;
}
);
unicode = 41;
},
{
glyphname = asterisk;
layers = (
{
layerId = "089F0C00-674C-4F2E-8375-778CCED9E96B";
shapes = (
{
closed = 1;
nodes = (
(166,454,l),
(229,537,l),
(258,454,l),
(336,499,l),
(305,577,l),
(378,598,l),
(371,675,l),
(292,639,l),
(316,721,l),
(221,721,l),
(210,639,l),
(146,675,l),
(106,598,l),
(170,577,l),
(107,499,l)
);
}
);
width = 356;
},
{
layerId = "D56C188B-E5B2-4235-B802-3B7EEA6FD951";
shapes = (
{
closed = 1;
nodes = (
(164,482,l),
(224,558,l),
(252,482,l),
(313,518,l),
(283,589,l),
(354,611,l),
(349,671,l),
(273,639,l),
(295,718,l),
(221,718,l),
(210,639,l),
(147,671,l),
(116,611,l),
(178,589,l),
(119,518,l)
);
}
);
width = 340;
},
{
layerId = "C7C3A33C-E883-49F1-BDC1-C605A621ADB5";
shapes = (
{
closed = 1;
nodes = (
(162,513,l),
(219,580,l),
(245,513,l),
(288,538,l),
(259,603,l),
(329,625,l),
(326,667,l),
(253,640,l),
(272,714,l),
(221,714,l),
(209,640,l),
(148,667,l),
(126,625,l),
(187,603,l),
(131,538,l)
);
}
);
width = 322;
},
{
layerId = "F5CD80C0-3A8F-48DC-9182-C71904D0895A";
shapes = (
{
closed = 1;
nodes = (
(157,552,l),
(208,609,l),
(235,552,l),
(254,564,l),
(226,621,l),
(294,643,l),
(294,662,l),
(224,640,l),
(239,710,l),
(220,710,l),
(205,640,l),
(146,662,l),
(136,643,l),
(195,621,l),
(144,564,l)
);
}
);
width = 293;
}
);
unicode = 42;
},
{
glyphname = plus;
layers = (
{
layerId = "089F0C00-674C-4F2E-8375-778CCED9E96B";
shapes = (
{
closed = 1;
nodes = (
(315,430,l),
(315,525,l),
(145,525,l),
(145,430,l),
(60,430,l),
(60,280,l),
(145,280,l),
(145,185,l),
(315,185,l),
(315,280,l),
(400,280,l),
(400,430,l)
);
}
);
width = 440;
},
{
layerId = "D56C188B-E5B2-4235-B802-3B7EEA6FD951";
shapes = (
{
closed = 1;
nodes = (
(287,411,l),
(287,522,l),
(160,522,l),
(160,411,l),
(60,411,l),
(60,299,l),
(160,299,l),
(160,188,l),
(287,188,l),
(287,299,l),
(388,299,l),
(388,411,l)
);
}
);
width = 428;
},
{
layerId = "C7C3A33C-E883-49F1-BDC1-C605A621ADB5";
shapes = (
{
closed = 1;
nodes = (
(257,391,l),
(257,519,l),
(177,519,l),
(177,391,l),
(59,391,l),
(59,319,l),
(177,319,l),
(177,191,l),
(257,191,l),
(257,319,l),
(375,319,l),
(375,391,l)
);
}
);
width = 416;
},
{
layerId = "F5CD80C0-3A8F-48DC-9182-C71904D0895A";
shapes = (
{
closed = 1;
nodes = (
(225,365,l),
(225,515,l),
(205,515,l),
(205,365,l),
(65,365,l),
(65,345,l),
(205,345,l),
(205,195,l),
(225,195,l),
(225,345,l),
(365,345,l),
(365,365,l)
);
}
);
width = 410;
}
);
unicode = 43;
},
{
glyphname = comma;
layers = (
{
layerId = "089F0C00-674C-4F2E-8375-778CCED9E96B";
shapes = (
{
closed = 1;
nodes = (
(-45,-183,l),
(170,89,l),
(12,119,l),
(-119,-160,l)
);
}
);
width = 268;
},
{
layerId = "D56C188B-E5B2-4235-B802-3B7EEA6FD951";
shapes = (
{
closed = 1;
nodes = (
(-42,-178,l),
(141,89,l),
(14,112,l),
(-103,-160,l)
);
}
);
width = 268;
},
{
layerId = "C7C3A33C-E883-49F1-BDC1-C605A621ADB5";
shapes = (
{
closed = 1;
nodes = (
(-45,-172,l),
(106,90,l),
(17,103,l),
(-89,-160,l)
);
}
);
width = 268;
},
{
layerId = "F5CD80C0-3A8F-48DC-9182-C71904D0895A";
shapes = (
{
closed = 1;
nodes = (
(-53,-165,l),
(84,94,l),
(50,100,l),
(-75,-160,l)
);
}
);
width = 268;
}
);
leftKerningGroup = comma2;
rightKerningGroup = comma;
unicode = 44;
},
{
glyphname = hyphen;
layers = (
{
layerId = "089F0C00-674C-4F2E-8375-778CCED9E96B";
shapes = (
{
closed = 1;
nodes = (
(325,191,l),
(361,361,l),
(62,361,l),
(26,191,l)
);
}
);
width = 398;
},
{
layerId = "D56C188B-E5B2-4235-B802-3B7EEA6FD951";
shapes = (
{
closed = 1;
nodes = (
(327,211,l),
(354,338,l),
(63,338,l),
(37,211,l)
);
}
);
width = 402;
},
{
layerId = "C7C3A33C-E883-49F1-BDC1-C605A621ADB5";
shapes = (
{
closed = 1;
nodes = (
(329,233,l),
(346,313,l),
(65,313,l),
(48,233,l)
);
}
);
width = 406;
},
{
layerId = "F5CD80C0-3A8F-48DC-9182-C71904D0895A";
shapes = (
{
closed = 1;
nodes = (
(328,261,l),
(332,281,l),
(63,281,l),
(59,261,l)
);
}
);
width = 404;
}
);
leftKerningGroup = hyphen2;
rightKerningGroup = hyphen;
unicode = 45;
},
{
glyphname = period;
layers = (
{
layerId = "089F0C00-674C-4F2E-8375-778CCED9E96B";
shapes = (
{
closed = 1;
nodes = (
(-18,32,o),
(15,-10,o),
(67,-10,cs),
(119,-10,o),
(171,32,o),
(181,84,cs),
(192,136,o),
(159,178,o),
(107,178,cs),
(54,178,o),
(3,136,o),
(-7,84,cs)
);
}
);
width = 268;
},
{
layerId = "D56C188B-E5B2-4235-B802-3B7EEA6FD951";
shapes = (
{
closed = 1;
nodes = (
(0,23,o),
(25,-10,o),
(68,-10,cs),
(112,-10,o),
(150,24,o),
(160,66,c),
(168,107,o),
(143,142,o),
(100,142,cs),
(56,142,o),
(18,108,o),
(8,66,c)
);
}
);
width = 268;
},
{
layerId = "C7C3A33C-E883-49F1-BDC1-C605A621ADB5";
shapes = (
{
closed = 1;
nodes = (
(16,15,o),
(35,-10,o),
(67,-10,cs),
(97,-10,o),
(129,16,o),
(135,46,cs),
(142,77,o),
(122,102,o),
(91,102,cs),
(59,102,o),
(29,77,o),
(23,46,cs)
);
}
);
width = 268;
},
{
layerId = "F5CD80C0-3A8F-48DC-9182-C71904D0895A";
shapes = (
{
closed = 1;
nodes = (
(38,10,o),
(50,-5,o),
(69,-5,cs),
(88,-5,o),
(106,10,o),
(110,29,cs),
(114,48,o),
(103,62,o),
(83,62,cs),
(63,62,o),
(46,48,o),
(42,29,cs)
);
}
);
width = 268;
}
);
leftKerningGroup = comma2;
rightKerningGroup = comma;
unicode = 46;
},
{
glyphname = slash;
layers = (
{
layerId = "089F0C00-674C-4F2E-8375-778CCED9E96B";
shapes = (
{
closed = 1;
nodes = (
(616,710,l),
(-28,0,l),
(181,0,l),
(825,710,l)
);
}
);
width = 771;
},
{
layerId = "D56C188B-E5B2-4235-B802-3B7EEA6FD951";
shapes = (
{
closed = 1;
nodes = (
(600,710,l),
(-27,0,l),
(129,0,l),
(755,710,l)
);
}
);
width = 702;
},
{
layerId = "C7C3A33C-E883-49F1-BDC1-C605A621ADB5";
shapes = (
{
closed = 1;
nodes = (
(582,710,l),
(-26,0,l),
(72,0,l),
(680,710,l)
);
}
);
width = 628;
},
{
layerId = "F5CD80C0-3A8F-48DC-9182-C71904D0895A";
shapes = (
{
closed = 1;
nodes = (
(558,710,l),
(-26,0,l),
(-1,0,l),
(583,710,l)
);
}
);
width = 531;
}
);
unicode = 47;
},
{
glyphname = zero;
layers = (
{
layerId = "089F0C00-674C-4F2E-8375-778CCED9E96B";
shapes = (
{
closed = 1;
nodes = (
(324,-10,o),
(412,47,o),
(477,130,cs),
(541,213,o),
(580,319,o),
(580,416,cs),
(580,484,o),
(565,558,o),
(529,615,cs),
(493,671,o),
(438,710,o),
(362,710,cs),
(265,710,o),
(174,653,o),
(110,569,cs),
(46,485,o),
(6,381,o),
(6,281,cs),
(6,212,o),
(22,140,o),
(58,84,cs),
(93,28,o),
(148,-10,o),
(224,-10,cs)
);
},
{
closed = 1;
nodes = (
(240,163,o),
(226,176,o),
(217,197,cs),
(208,217,o),
(204,245,o),
(204,276,cs),
(204,321,o),
(214,386,o),
(234,441,cs),
(254,496,o),
(283,537,o),
(323,537,cs),
(344,537,o),
(360,521,o),
(369,497,cs),
(378,473,o),
(382,440,o),
(382,408,cs),
(382,363,o),
(372,303,o),
(352,252,cs),
(332,201,o),
(302,163,o),
(263,163,cs)
);
}
);
width = 586;
},
{
layerId = "D56C188B-E5B2-4235-B802-3B7EEA6FD951";
shapes = (
{
closed = 1;
nodes = (
(321,-10,o),
(405,47,o),
(469,130,c),
(530,214,o),
(569,320,o),
(569,419,cs),
(569,487,o),
(554,559,o),
(521,616,c),
(486,672,o),
(435,710,o),
(362,710,cs),
(267,710,o),
(180,652,o),
(119,568,cs),
(56,484,o),
(18,378,o),
(18,278,cs),
(18,210,o),
(32,139,o),
(67,83,cs),
(100,27,o),
(152,-10,o),
(224,-10,cs)
);
},
{
closed = 1;
nodes = (
(221,119,o),
(198,137,o),
(185,166,c),
(170,194,o),
(165,232,o),
(165,273,cs),
(165,332,o),
(180,407,o),
(209,470,cs),
(238,534,o),
(280,581,o),
(333,581,cs),
(364,581,o),
(386,559,o),
(401,528,cs),
(416,496,o),
(422,454,o),
(422,411,cs),
(422,355,o),
(405,282,o),
(376,223,c),
(348,163,o),
(305,119,o),
(253,119,cs)
);
}
);
width = 586;
},
{
layerId = "C7C3A33C-E883-49F1-BDC1-C605A621ADB5";
shapes = (
{
closed = 1;
nodes = (
(317,-11,o),
(399,47,o),
(460,131,cs),
(520,215,o),
(557,322,o),
(557,422,cs),
(557,490,o),
(543,561,o),
(512,617,cs),
(480,673,o),
(431,710,o),
(362,710,cs),
(270,710,o),
(188,651,o),
(128,567,cs),
(68,483,o),
(30,375,o),
(30,275,cs),
(30,207,o),
(44,137,o),
(76,81,cs),
(108,25,o),
(157,-11,o),
(225,-11,cs)
);
},
{
closed = 1;
nodes = (
(200,71,o),
(169,95,o),
(150,132,c),
(130,168,o),
(122,218,o),
(122,270,cs),
(122,342,o),
(143,430,o),
(182,502,cs),
(221,574,o),
(276,628,o),
(344,628,cs),
(385,628,o),
(415,601,o),
(435,561,cs),
(455,521,o),
(465,468,o),
(465,415,cs),
(465,346,o),
(442,260,o),
(403,192,cs),
(364,123,o),
(308,71,o),
(243,71,cs)
);
}
);
width = 586;
},
{
layerId = "F5CD80C0-3A8F-48DC-9182-C71904D0895A";
shapes = (
{
closed = 1;
nodes = (
(312,-10,o),
(391,49,o),
(451,134,cs),
(511,218,o),
(546,327,o),
(546,427,cs),
(546,495,o),
(532,562,o),
(504,618,cs),
(475,674,o),
(428,710,o),
(363,710,cs),
(275,710,o),
(197,650,o),
(137,566,cs),
(77,481,o),
(41,372,o),
(41,272,cs),
(41,204,o),
(55,136,o),
(84,81,cs),
(113,26,o),
(160,-10,o),
(224,-10,cs)
);
},
{
closed = 1;
nodes = (
(169,10,o),
(129,40,o),
(102,87,cs),
(75,134,o),
(63,198,o),
(63,263,cs),
(63,351,o),
(94,457,o),
(147,542,cs),
(199,627,o),
(271,690,o),
(359,690,cs),
(415,690,o),
(457,658,o),
(485,607,cs),
(512,556,o),
(526,492,o),
(526,424,cs),
(526,340,o),
(495,238,o),
(443,154,cs),
(390,70,o),
(317,10,o),
(229,10,cs)
);
}
);
width = 586;
}
);
unicode = 48;
},
{
glyphname = one;
layers = (
{
layerId = "089F0C00-674C-4F2E-8375-778CCED9E96B";
shapes = (
{
closed = 1;
nodes = (
(362,170,l),
(487,710,l),
(287,710,l),
(274,698,o),
(251,671,o),
(236,660,cs),
(191,627,o),
(147,611,o),
(116,610,c),
(80,440,l),
(85,440,o),
(91,441,o),
(98,443,cs),
(117,448,o),
(139,457,o),
(166,470,cs),
(201,487,o),
(234,504,o),
(247,520,c),
(172,170,l),
(2,170,l),
(-34,0,l),
(466,0,l),
(502,170,l)
);
}
);
width = 586;
},
{
layerId = "D56C188B-E5B2-4235-B802-3B7EEA6FD951";
shapes = (
{
closed = 1;
nodes = (
(336,120,l),
(461,710,l),
(307,710,l),
(297,701,o),
(284,681,o),
(269,670,cs),
(225,637,o),
(167,612,o),
(126,610,c),
(100,490,l),
(106,490,o),
(112,491,o),
(120,493,cs),
(141,497,o),
(168,507,o),
(197,520,cs),
(232,536,o),
(270,552,o),
(287,570,c),
(192,120,l),
(-8,120,l),
(-34,0,l),
(466,0,l),
(492,120,l)
);
}
);
width = 586;
},
{
layerId = "C7C3A33C-E883-49F1-BDC1-C605A621ADB5";
shapes = (
{
closed = 1;
nodes = (
(288,80,l),
(422,710,l),
(337,710,l),
(317,686,o),
(277,653,o),
(240,630,cs),
(195,602,o),
(148,583,o),
(119,580,c),
(102,500,l),
(107,500,o),
(114,500,o),
(121,502,cs),
(142,506,o),
(170,516,o),
(199,530,cs),
(245,551,o),
(285,577,o),
(304,600,c),
(203,80,l),
(-17,80,l),
(-34,0,l),
(466,0,l),
(483,80,l)
);
}
);
width = 586;
},
{
layerId = "F5CD80C0-3A8F-48DC-9182-C71904D0895A";
shapes = (
{
closed = 1;
nodes = (
(230,20,l),
(377,710,l),
(357,710,l),
(335,679,o),
(304,650,o),
(248,620,cs),
(210,600,o),
(165,590,o),
(132,590,c),
(127,570,l),
(132,569,o),
(138,568,o),
(146,568,cs),
(167,568,o),
(197,574,o),
(232,590,cs),
(287,615,o),
(333,654,o),
(351,680,c),
(210,20,l),
(-40,20,l),
(-44,0,l),
(476,0,l),
(480,20,l)
);
}
);
width = 586;
}
);
unicode = 49;
},
{
glyphname = two;
layers = (
{
layerId = "089F0C00-674C-4F2E-8375-778CCED9E96B";
shapes = (
{
closed = 1;
nodes = (
(493,-2,l),
(529,168,l),
(244,168,l),
(248,189,o),
(280,209,o),
(318,226,cs),
(356,243,o),
(398,259,o),
(426,275,cs),
(490,312,o),
(533,345,o),
(562,385,cs),
(591,425,o),
(603,476,o),
(603,541,cs),
(603,597,o),
(586,642,o),
(552,672,cs),
(518,702,o),
(469,718,o),
(404,718,cs),
(344,718,o),
(286,705,o),
(235,684,cs),
(183,663,o),
(139,634,o),
(106,603,c),
(193,476,l),
(214,495,o),
(240,513,o),
(266,526,cs),
(292,539,o),
(317,548,o),
(338,548,cs),
(347,548,o),
(360,545,o),
(368,538,cs),
(376,530,o),
(381,519,o),
(381,502,cs),
(381,461,o),
(362,430,o),
(331,406,cs),
(300,381,o),
(258,361,o),
(211,338,c),
(132,302,o),
(84,263,o),
(52,210,cs),
(19,157,o),
(3,90,o),
(-17,-2,c)
);
}
);
width = 586;
},
{
layerId = "D56C188B-E5B2-4235-B802-3B7EEA6FD951";
shapes = (
{
closed = 1;
nodes = (
(478,-2,l),
(505,125,l),
(193,125,l),
(200,157,o),
(223,184,o),
(259,209,cs),
(294,233,o),
(337,254,o),
(384,278,cs),
(445,310,o),
(496,341,o),
(533,382,cs),
(569,422,o),
(590,474,o),
(590,547,cs),
(590,598,o),
(574,642,o),
(543,672,cs),
(511,702,o),
(465,718,o),
(404,718,cs),
(339,718,o),
(281,701,o),
(233,676,cs),
(184,651,o),
(146,621,o),
(122,600,c),
(187,506,l),
(208,526,o),
(234,546,o),
(263,562,cs),
(292,578,o),
(324,590,o),
(355,590,cs),
(376,590,o),
(395,583,o),
(408,571,c),
(420,558,o),
(426,541,o),
(426,518,cs),
(426,465,o),
(401,430,o),
(365,403,cs),
(328,375,o),
(279,355,o),
(230,332,cs),
(158,299,o),
(109,261,o),
(74,209,cs),
(38,157,o),
(17,90,o),
(-3,-2,c)
);
}
);
width = 586;
},
{
layerId = "C7C3A33C-E883-49F1-BDC1-C605A621ADB5";
shapes = (
{
closed = 1;
nodes = (
(462,-2,l),
(479,78,l),
(138,78,l),
(146,123,o),
(163,158,o),
(195,190,cs),
(226,222,o),
(271,249,o),
(339,281,cs),
(398,308,o),
(456,336,o),
(501,378,cs),
(545,420,o),
(575,473,o),
(575,553,cs),
(575,600,o),
(561,641,o),
(533,671,cs),
(505,701,o),
(460,719,o),
(403,719,cs),
(334,719,o),
(276,696,o),
(230,668,cs),
(184,639,o),
(152,609,o),
(139,596,c),
(181,539,l),
(201,559,o),
(228,582,o),
(261,602,cs),
(293,621,o),
(333,635,o),
(374,635,cs),
(409,635,o),
(434,625,o),
(451,607,cs),
(467,589,o),
(475,563,o),
(475,535,cs),
(475,468,o),
(444,429,o),
(401,399,cs),
(358,369,o),
(303,349,o),
(251,325,cs),
(187,294,o),
(137,259,o),
(98,208,cs),
(58,157,o),
(32,91,o),
(12,-2,c)
);
}
);
width = 586;
},
{
layerId = "F5CD80C0-3A8F-48DC-9182-C71904D0895A";
shapes = (
{
closed = 1;
nodes = (
(445,-2,l),
(449,18,l),
(52,18,l),
(59,57,o),
(72,109,o),
(106,161,cs),
(140,212,o),
(194,263,o),
(283,299,cs),
(334,320,o),
(403,339,o),
(459,377,cs),
(514,415,o),
(556,468,o),
(556,559,cs),
(556,600,o),
(543,641,o),
(518,670,cs),
(493,699,o),
(454,719,o),
(399,719,cs),
(326,719,o),
(267,688,o),
(225,656,cs),
(183,624,o),
(159,592,o),
(159,591,c),
(173,581,l),
(190,601,o),
(215,630,o),
(252,654,cs),
(289,678,o),
(336,697,o),
(392,697,cs),
(441,697,o),
(478,680,o),
(501,654,cs),
(524,628,o),
(536,592,o),
(536,555,cs),
(536,474,o),
(499,424,o),
(448,391,cs),
(397,358,o),
(334,340,o),
(279,317,cs),
(219,293,o),
(162,259,o),
(118,208,cs),
(74,157,o),
(43,90,o),
(30,-2,c)
);
}
);
width = 586;
}
);
unicode = 50;
},
{
glyphname = three;
layers = (
{
layerId = "089F0C00-674C-4F2E-8375-778CCED9E96B";
shapes = (
{
closed = 1;
nodes = (
(303,-11,o),
(383,13,o),
(438,55,cs),
(493,97,o),
(525,157,o),
(525,230,cs),
(525,303,o),
(488,363,o),
(425,375,c),
(468,383,o),
(508,408,o),
(538,443,cs),
(568,478,o),
(587,521,o),
(587,566,cs),
(587,610,o),
(569,648,o),
(534,674,cs),
(499,700,o),
(449,714,o),
(386,714,cs),
(335,714,o),
(282,705,o),
(236,689,cs),
(190,673,o),
(149,651,o),
(120,622,c),
(207,483,l),
(244,530,o),
(287,551,o),
(328,551,cs),
(357,551,o),
(372,536,o),
(372,511,cs),
(372,487,o),
(360,470,o),
(341,456,cs),
(322,442,o),
(295,433,o),
(263,433,cs),
(230,433,l),
(203,299,l),
(232,299,ls),
(301,299,o),
(333,282,o),
(333,243,cs),
(333,218,o),
(326,200,o),
(311,186,cs),
(295,172,o),
(269,165,o),
(232,165,cs),
(184,165,o),
(148,178,o),
(120,209,c),
(-1,69,l),
(50,14,o),
(115,-11,o),
(210,-11,cs)
);
}
);
width = 586;
},
{
layerId = "D56C188B-E5B2-4235-B802-3B7EEA6FD951";
shapes = (
{
closed = 1;
nodes = (
(302,-11,o),
(379,12,o),
(432,55,cs),
(485,98,o),
(516,159,o),
(516,231,cs),
(516,304,o),
(480,363,o),
(416,375,c),
(460,383,o),
(500,408,o),
(529,443,cs),
(558,478,o),
(576,522,o),
(576,567,cs),
(576,611,o),
(558,648,o),
(526,674,cs),
(494,700,o),
(447,714,o),
(387,714,cs),
(336,714,o),
(287,705,o),
(242,687,cs),
(197,669,o),
(159,642,o),
(132,611,c),
(198,512,l),
(239,563,o),
(290,590,o),
(345,590,cs),
(390,590,o),
(419,569,o),
(419,529,cs),
(419,497,o),
(404,473,o),
(380,453,cs),
(356,433,o),
(321,421,o),
(278,421,cs),
(226,421,l),
(204,314,l),
(254,314,ls),
(334,314,o),
(371,285,o),
(371,233,cs),
(371,196,o),
(360,170,o),
(337,150,cs),
(314,130,o),
(281,120,o),
(234,120,cs),
(170,120,o),
(132,142,o),
(108,185,c),
(10,84,l),
(49,23,o),
(118,-11,o),
(214,-11,cs)
);
}
);
width = 586;
},
{
layerId = "C7C3A33C-E883-49F1-BDC1-C605A621ADB5";
shapes = (
{
closed = 1;
nodes = (
(300,-12,o),
(373,13,o),
(425,57,cs),
(477,100,o),
(506,161,o),
(506,233,cs),
(506,305,o),
(471,362,o),
(407,374,c),
(452,382,o),
(492,407,o),
(520,443,cs),
(548,478,o),
(564,523,o),
(564,568,cs),
(564,612,o),
(548,649,o),
(518,674,cs),
(488,699,o),
(444,714,o),
(389,714,cs),
(338,714,o),
(293,703,o),
(249,683,cs),
(205,663,o),
(169,632,o),
(144,599,c),
(189,543,l),
(233,599,o),
(294,632,o),
(363,632,cs),
(427,632,o),
(469,605,o),
(469,549,cs),
(469,509,o),
(453,477,o),
(422,451,cs),
(391,425,o),
(348,408,o),
(295,408,cs),
(222,408,l),
(206,331,l),
(277,331,ls),
(369,331,o),
(413,289,o),
(413,222,cs),
(413,173,o),
(396,138,o),
(365,112,cs),
(334,86,o),
(292,71,o),
(237,71,cs),
(156,71,o),
(115,104,o),
(95,159,c),
(22,100,l),
(49,31,o),
(120,-12,o),
(219,-12,cs)
);
}
);
width = 586;
},
{
layerId = "F5CD80C0-3A8F-48DC-9182-C71904D0895A";
shapes = (
{
closed = 1;
nodes = (
(291,-12,o),
(358,13,o),
(407,55,cs),
(455,97,o),
(486,154,o),
(486,222,cs),
(486,301,o),
(441,360,o),
(362,371,c),
(427,378,o),
(473,401,o),
(504,437,cs),
(535,472,o),
(549,516,o),
(549,565,cs),
(549,608,o),
(534,645,o),
(504,672,cs),
(474,699,o),
(432,714,o),
(383,714,cs),
(336,714,o),
(289,702,o),
(249,680,cs),
(209,658,o),
(176,624,o),
(153,585,c),
(170,578,l),
(213,646,o),
(291,691,o),
(379,691,cs),
(468,691,o),
(529,637,o),
(529,557,cs),
(529,504,o),
(508,463,o),
(470,433,cs),
(432,403,o),
(375,385,o),
(306,385,cs),
(230,385,l),
(227,362,l),
(301,362,ls),
(408,362,o),
(466,308,o),
(466,223,cs),
(466,160,o),
(441,110,o),
(398,72,cs),
(354,34,o),
(296,11,o),
(225,11,cs),
(130,11,o),
(62,57,o),
(57,126,c),
(37,119,l),
(49,40,o),
(116,-12,o),
(219,-12,cs)
);
}
);
width = 586;
}
);
unicode = 51;
},
{
glyphname = four;
layers = (
{
layerId = "089F0C00-674C-4F2E-8375-778CCED9E96B";
shapes = (
{
closed = 1;
nodes = (
(413,1,l),
(441,137,l),
(521,137,l),
(556,307,l),
(475,307,l),
(558,710,l),
(433,710,l),
(64,307,l),
(28,137,l),
(258,137,l),
(230,1,l)
);
},
{
closed = 1;
nodes = (
(244,307,l),
(338,426,l),
(313,307,l)
);
}
);
width = 586;
},
{
layerId = "D56C188B-E5B2-4235-B802-3B7EEA6FD951";
shapes = (
{
closed = 1;
nodes = (
(407,1,l),
(439,158,l),
(520,158,l),
(546,285,l),
(464,285,l),
(551,710,l),
(460,710,l),
(62,284,l),
(35,158,l),
(302,158,l),
(270,1,l)
);
},
{
closed = 1;
nodes = (
(195,285,l),
(381,497,l),
(338,285,l)
);
}
);
width = 586;
},
{
layerId = "C7C3A33C-E883-49F1-BDC1-C605A621ADB5";
shapes = (
{
closed = 1;
nodes = (
(401,0,l),
(437,181,l),
(519,181,l),
(535,261,l),
(453,261,l),
(543,710,l),
(489,710,l),
(59,260,l),
(43,181,l),
(349,181,l),
(313,0,l)
);
},
{
closed = 1;
nodes = (
(142,261,l),
(428,575,l),
(365,261,l)
);
}
);
width = 586;
},
{
layerId = "F5CD80C0-3A8F-48DC-9182-C71904D0895A";
shapes = (
{
closed = 1;
nodes = (
(386,0,l),
(428,211,l),
(510,211,l),
(513,231,l),
(432,231,l),
(529,710,l),
(520,710,l),
(62,228,l),
(57,211,l),
(409,211,l),
(367,0,l)
);
},
{
closed = 1;
nodes = (
(89,231,l),
(503,673,l),
(413,231,l)
);
}
);
width = 586;
}
);
unicode = 52;
},
{
glyphname = five;
layers = (
{
layerId = "089F0C00-674C-4F2E-8375-778CCED9E96B";
shapes = (
{
closed = 1;
nodes = (
(381,-11,o),
(528,106,o),
(528,282,cs),
(528,391,o),
(456,466,o),
(346,466,cs),
(338,466,o),
(315,466,o),
(309,461,c),
(332,537,l),
(534,537,l),
(570,710,l),
(236,710,l),
(68,269,l),
(224,269,l),
(237,289,o),
(260,304,o),
(284,304,cs),
(314,304,o),
(328,277,o),
(328,250,cs),
(328,200,o),
(297,157,o),
(244,157,cs),
(200,157,o),
(162,187,o),
(139,223,c),
(16,103,l),
(48,21,o),
(129,-11,o),
(212,-11,cs)
);
}
);
width = 586;
},
{
layerId = "D56C188B-E5B2-4235-B802-3B7EEA6FD951";
shapes = (
{
closed = 1;
nodes = (
(376,-11,o),
(515,109,o),
(515,277,cs),
(515,382,o),
(444,460,o),
(337,460,cs),
(310,460,o),
(276,452,o),
(256,432,c),
(308,581,l),
(537,581,l),
(564,710,l),
(236,710,l),
(74,285,l),
(192,285,l),
(215,315,o),
(252,338,o),
(291,338,cs),
(341,338,o),
(366,298,o),
(366,251,cs),
(366,179,o),
(311,115,o),
(237,115,cs),
(182,115,o),
(138,150,o),
(116,198,c),
(22,113,l),
(50,29,o),
(127,-11,o),
(212,-11,cs)
);
}
);
width = 586;
},
{
layerId = "C7C3A33C-E883-49F1-BDC1-C605A621ADB5";
shapes = (
{
closed = 1;
nodes = (
(370,-12,o),
(500,113,o),
(500,271,cs),
(500,373,o),
(432,453,o),
(327,453,cs),
(279,453,o),
(233,436,o),
(199,401,c),
(283,629,l),
(540,629,l),
(558,710,l),
(237,710,l),
(81,302,l),
(157,302,l),
(191,344,o),
(243,375,o),
(298,375,cs),
(370,375,o),
(408,321,o),
(408,253,cs),
(408,157,o),
(327,69,o),
(229,69,cs),
(163,69,o),
(113,109,o),
(92,171,c),
(28,123,l),
(52,37,o),
(125,-12,o),
(213,-12,cs)
);
}
);
width = 586;
},
{
layerId = "F5CD80C0-3A8F-48DC-9182-C71904D0895A";
shapes = (
{
closed = 1;
nodes = (
(362,-12,o),
(482,118,o),
(482,263,cs),
(482,364,o),
(419,445,o),
(313,445,cs),
(242,445,o),
(176,413,o),
(126,363,c),
(251,690,l),
(545,690,l),
(548,710,l),
(241,710,l),
(90,325,l),
(113,325,l),
(162,382,o),
(231,423,o),
(308,423,cs),
(403,423,o),
(462,350,o),
(462,258,cs),
(462,126,o),
(351,10,o),
(218,10,cs),
(138,10,o),
(78,58,o),
(59,136,c),
(39,131,l),
(58,42,o),
(123,-12,o),
(214,-12,cs)
);
}
);
width = 586;
}
);
unicode = 53;
},
{
glyphname = six;
layers = (
{
layerId = "089F0C00-674C-4F2E-8375-778CCED9E96B";
shapes = (
{
closed = 1;
nodes = (
(288,-12,o),
(366,21,o),
(423,74,cs),
(479,127,o),
(517,202,o),
(517,282,cs),
(517,338,o),
(498,386,o),
(465,420,cs),
(432,454,o),
(383,473,o),
(326,473,cs),
(307,473,o),
(289,471,o),
(272,465,cs),
(255,459,o),
(240,451,o),
(225,439,c),
(233,467,o),
(244,495,o),
(264,516,cs),
(273,526,o),
(285,534,o),
(298,541,cs),
(311,547,o),
(325,550,o),
(342,550,cs),
(385,550,o),
(417,530,o),
(442,498,c),
(571,618,l),
(524,683,o),
(460,716,o),
(379,716,cs),
(294,716,o),
(225,686,o),
(171,638,cs),
(144,614,o),
(120,586,o),
(101,554,cs),
(62,490,o),
(37,418,o),
(25,342,cs),
(18,304,o),
(15,267,o),
(15,232,cs),
(15,171,o),
(28,109,o),
(57,64,cs),
(86,19,o),
(135,-12,o),
(208,-12,cs)
);
},
{
closed = 1;
nodes = (
(223,149,o),
(210,160,o),
(202,175,cs),
(193,190,o),
(188,207,o),
(188,222,cs),
(188,243,o),
(197,269,o),
(213,289,cs),
(229,308,o),
(251,322,o),
(278,322,cs),
(298,322,o),
(311,313,o),
(320,300,cs),
(328,287,o),
(332,271,o),
(332,255,cs),
(332,234,o),
(322,207,o),
(307,186,cs),
(291,165,o),
(267,149,o),
(242,149,cs)
);
}
);
width = 586;
},
{
layerId = "D56C188B-E5B2-4235-B802-3B7EEA6FD951";
shapes = (
{
closed = 1;
nodes = (
(293,-12,o),
(369,22,o),
(424,75,cs),
(479,128,o),
(515,203,o),
(515,280,cs),
(515,335,o),
(497,382,o),
(465,418,c),
(432,453,o),
(386,473,o),
(327,473,cs),
(299,473,o),
(269,466,o),
(242,454,cs),
(215,441,o),
(192,423,o),
(175,400,c),
(186,440,o),
(205,488,o),
(234,526,cs),
(249,545,o),
(266,560,o),
(285,573,cs),
(304,585,o),
(327,591,o),
(352,591,cs),
(405,591,o),
(444,563,o),
(464,516,c),
(562,603,l),
(526,676,o),
(463,716,o),
(379,716,cs),
(295,716,o),
(227,684,o),
(175,633,c),
(148,608,o),
(126,579,o),
(107,546,cs),
(70,480,o),
(45,406,o),
(33,331,cs),
(27,293,o),
(24,257,o),
(24,223,cs),
(24,164,o),
(37,105,o),
(66,62,cs),
(95,18,o),
(143,-12,o),
(214,-12,cs)
);
},
{
closed = 1;
nodes = (
(211,109,o),
(190,124,o),
(176,144,cs),
(162,164,o),
(154,190,o),
(154,214,cs),
(154,246,o),
(169,284,o),
(194,312,cs),
(218,340,o),
(252,360,o),
(291,360,cs),
(322,360,o),
(343,347,o),
(357,328,cs),
(371,308,o),
(377,283,o),
(377,259,cs),
(377,226,o),
(362,188,o),
(338,159,cs),
(313,130,o),
(279,109,o),
(240,109,cs)
);
}
);
width = 586;
},
{
layerId = "C7C3A33C-E883-49F1-BDC1-C605A621ADB5";
shapes = (
{
closed = 1;
nodes = (
(299,-12,o),
(373,23,o),
(426,76,cs),
(479,129,o),
(512,203,o),
(512,278,cs),
(512,330,o),
(495,379,o),
(464,415,cs),
(433,451,o),
(388,474,o),
(329,474,cs),
(289,474,o),
(247,462,o),
(210,442,cs),
(173,421,o),
(141,391,o),
(121,358,c),
(136,410,o),
(161,479,o),
(202,536,cs),
(222,564,o),
(245,588,o),
(272,607,cs),
(298,626,o),
(328,636,o),
(362,636,cs),
(429,636,o),
(473,597,o),
(488,536,c),
(552,587,l),
(528,668,o),
(467,715,o),
(379,715,cs),
(296,715,o),
(231,681,o),
(179,628,cs),
(153,601,o),
(131,571,o),
(113,537,cs),
(77,469,o),
(53,393,o),
(42,318,cs),
(37,281,o),
(34,246,o),
(34,214,cs),
(34,157,o),
(46,101,o),
(76,59,cs),
(106,17,o),
(152,-12,o),
(220,-12,cs)
);
},
{
closed = 1;
nodes = (
(197,66,o),
(167,85,o),
(147,111,cs),
(127,137,o),
(118,172,o),
(118,205,cs),
(118,250,o),
(137,300,o),
(172,337,cs),
(207,374,o),
(253,401,o),
(306,401,cs),
(346,401,o),
(376,384,o),
(396,358,cs),
(416,332,o),
(426,296,o),
(426,263,cs),
(426,218,o),
(406,169,o),
(371,131,cs),
(336,93,o),
(290,66,o),
(237,66,cs)
);
}
);
width = 586;
},
{
layerId = "F5CD80C0-3A8F-48DC-9182-C71904D0895A";
shapes = (
{
closed = 1;
nodes = (
(307,-12,o),
(377,25,o),
(428,79,cs),
(479,133,o),
(510,205,o),
(510,276,cs),
(510,324,o),
(496,375,o),
(466,412,cs),
(436,449,o),
(392,475,o),
(333,475,cs),
(276,475,o),
(223,458,o),
(178,428,cs),
(133,398,o),
(98,354,o),
(75,306,c),
(86,377,o),
(112,473,o),
(161,552,cs),
(186,591,o),
(216,625,o),
(251,652,cs),
(286,679,o),
(327,693,o),
(374,693,cs),
(461,693,o),
(512,637,o),
(519,561,c),
(539,568,l),
(531,655,o),
(475,715,o),
(380,715,cs),
(299,715,o),
(235,678,o),
(187,622,cs),
(162,593,o),
(141,561,o),
(123,524,cs),
(87,451,o),
(66,373,o),
(56,300,cs),
(51,263,o),
(48,230,o),
(48,200,cs),
(48,147,o),
(61,94,o),
(91,54,cs),
(121,14,o),
(166,-12,o),
(230,-12,cs)
);
},
{
closed = 1;
nodes = (
(183,10,o),
(141,33,o),
(113,68,cs),
(84,103,o),
(70,149,o),
(70,194,cs),
(70,255,o),
(100,320,o),
(146,370,cs),
(192,420,o),
(256,453,o),
(324,453,cs),
(377,453,o),
(419,430,o),
(447,395,cs),
(475,359,o),
(489,313,o),
(489,268,cs),
(489,208,o),
(461,142,o),
(415,93,cs),
(369,44,o),
(305,10,o),
(236,10,cs)
);
}
);
width = 586;
}
);
unicode = 54;
},
{
glyphname = seven;
layers = (
{
layerId = "089F0C00-674C-4F2E-8375-778CCED9E96B";
shapes = (
{
closed = 1;
nodes = (
(-22,1,l),
(186,1,l),
(648,710,l),
(99,710,l),
(64,537,l),
(324,537,l)
);
}
);
width = 586;
},
{
layerId = "D56C188B-E5B2-4235-B802-3B7EEA6FD951";
shapes = (
{
closed = 1;
nodes = (
(17,1,l),
(171,1,l),
(638,710,l),
(106,710,l),
(80,581,l),
(396,581,l)
);
}
);
width = 586;
},
{
layerId = "C7C3A33C-E883-49F1-BDC1-C605A621ADB5";
shapes = (
{
closed = 1;
nodes = (
(59,0,l),
(154,0,l),
(627,710,l),
(113,710,l),
(97,629,l),
(475,629,l)
);
}
);
width = 586;
},
{
layerId = "F5CD80C0-3A8F-48DC-9182-C71904D0895A";
shapes = (
{
closed = 1;
nodes = (
(112,0,l),
(135,0,l),
(614,710,l),
(122,710,l),
(117,690,l),
(577,690,l)
);
}
);
width = 586;
}
);
unicode = 55;
},
{
glyphname = eight;
layers = (
{
layerId = "089F0C00-674C-4F2E-8375-778CCED9E96B";
shapes = (
{
closed = 1;
nodes = (
(534,300,o),
(518,345,o),
(486,379,c),
(539,408,o),
(576,474,o),
(576,534,cs),
(576,642,o),
(478,710,o),
(377,710,cs),
(250,710,o),
(89,615,o),
(89,474,cs),
(89,441,o),
(98,400,o),
(125,379,c),
(59,331,o),
(10,271,o),
(10,186,cs),
(10,65,o),
(109,-10,o),
(224,-10,cs),
(372,-10,o),
(534,93,o),
(534,254,cs)
);
},
{
closed = 1;
nodes = (
(341,202,o),
(307,163,o),
(260,163,cs),
(228,163,o),
(208,187,o),
(208,218,cs),
(208,265,o),
(244,301,o),
(291,301,cs),
(325,301,o),
(341,281,o),
(341,248,cs)
);
},
{
closed = 1;
nodes = (
(282,514,o),
(310,543,o),
(342,543,cs),
(366,543,o),
(379,527,o),
(379,504,cs),
(379,470,o),
(353,442,o),
(319,442,cs),
(297,442,o),
(282,461,o),
(282,482,cs)
);
}
);
width = 586;
},
{
layerId = "D56C188B-E5B2-4235-B802-3B7EEA6FD951";
shapes = (
{
closed = 1;
nodes = (
(522,299,o),
(498,349,o),
(453,379,c),
(515,408,o),
(566,474,o),
(566,544,cs),
(566,648,o),
(474,710,o),
(377,710,cs),
(255,710,o),
(105,622,o),
(105,486,cs),
(105,445,o),
(123,401,o),
(160,379,c),
(83,338,o),
(20,271,o),
(20,178,cs),
(20,62,o),
(114,-9,o),
(224,-9,cs),
(367,-9,o),
(522,89,o),
(522,244,cs)
);
},
{
closed = 1;
nodes = (
(379,173,o),
(317,119,o),
(252,119,cs),
(205,119,o),
(167,153,o),
(167,202,cs),
(167,269,o),
(229,321,o),
(294,321,cs),
(344,321,o),
(379,290,o),
(379,239,cs)
);
},
{
closed = 1;
nodes = (
(248,546,o),
(300,585,o),
(351,585,cs),
(390,585,o),
(420,562,o),
(420,522,cs),
(420,468,o),
(369,427,o),
(318,427,cs),
(281,427,o),
(248,454,o),
(248,492,cs)
);
}
);
width = 586;
},
{
layerId = "C7C3A33C-E883-49F1-BDC1-C605A621ADB5";
shapes = (
{
closed = 1;
nodes = (
(509,297,o),
(476,353,o),
(417,380,c),
(488,409,o),
(556,473,o),
(556,555,cs),
(556,654,o),
(469,710,o),
(377,710,cs),
(260,710,o),
(123,629,o),
(123,500,cs),
(123,449,o),
(151,402,o),
(197,380,c),
(108,345,o),
(31,271,o),
(31,170,cs),
(31,58,o),
(119,-8,o),
(225,-8,cs),
(361,-8,o),
(509,84,o),
(509,233,cs)
);
},
{
closed = 1;
nodes = (
(420,141,o),
(328,71,o),
(244,71,cs),
(180,71,o),
(123,117,o),
(123,184,cs),
(123,274,o),
(212,343,o),
(298,343,cs),
(364,343,o),
(420,299,o),
(420,230,cs)
);
},
{
closed = 1;
nodes = (
(212,580,o),
(289,631,o),
(360,631,cs),
(415,631,o),
(464,600,o),
(464,541,cs),
(464,465,o),
(387,411,o),
(316,411,cs),
(264,411,o),
(212,447,o),
(212,503,cs)
);
}
);
width = 586;
},
{
layerId = "F5CD80C0-3A8F-48DC-9182-C71904D0895A";
shapes = (
{
closed = 1;
nodes = (
(492,297,o),
(447,357,o),
(375,381,c),
(456,409,o),
(540,476,o),
(540,569,cs),
(540,659,o),
(459,710,o),
(376,710,cs),
(265,710,o),
(144,636,o),
(144,515,cs),
(144,450,o),
(182,406,o),
(240,381,c),
(142,355,o),
(46,266,o),
(46,159,cs),
(46,55,o),
(124,-7,o),
(224,-7,cs),
(352,-7,o),
(492,80,o),
(492,220,cs)
);
},
{
closed = 1;
nodes = (
(472,100,o),
(344,10,o),
(233,10,cs),
(147,10,o),
(66,69,o),
(66,161,cs),
(66,280,o),
(192,371,o),
(304,371,cs),
(390,371,o),
(472,310,o),
(472,219,cs)
);
},
{
closed = 1;
nodes = (
(164,624,o),
(272,690,o),
(370,690,cs),
(444,690,o),
(520,647,o),
(520,565,cs),
(520,460,o),
(405,391,o),
(310,391,cs),
(237,391,o),
(164,437,o),
(164,517,cs)
);
}
);
width = 586;
}
);
unicode = 56;
},
{
glyphname = nine;
layers = (
{
layerId = "089F0C00-674C-4F2E-8375-778CCED9E96B";
shapes = (
{
closed = 1;
nodes = (
(461,-12,o),
(571,255,o),
(571,472,cs),
(571,599,o),
(523,716,o),
(378,716,cs),
(219,716,o),
(70,585,o),
(70,422,cs),
(70,310,o),
(148,231,o),
(261,231,cs),
(298,231,o),
(333,241,o),
(362,265,c),
(349,207,o),
(308,154,o),
(244,154,cs),
(203,154,o),
(169,174,o),
(144,206,c),
(15,86,l),
(62,20,o),
(127,-12,o),
(208,-12,cs)
);
},
{
closed = 1;
nodes = (
(272,382,o),
(254,416,o),
(254,449,cs),
(254,494,o),
(295,555,o),
(344,555,cs),
(381,555,o),
(398,514,o),
(398,482,cs),
(398,435,o),
(359,382,o),
(309,382,cs)
);
}
);
width = 586;
},
{
layerId = "D56C188B-E5B2-4235-B802-3B7EEA6FD951";
shapes = (
{
closed = 1;
nodes = (
(457,-11,o),
(562,272,o),
(562,482,cs),
(562,604,o),
(511,717,o),
(373,717,cs),
(216,717,o),
(72,584,o),
(72,425,cs),
(72,315,o),
(147,231,o),
(259,231,cs),
(317,231,o),
(376,259,o),
(411,305,c),
(392,220,o),
(333,114,o),
(234,114,cs),
(182,114,o),
(142,142,o),
(122,189,c),
(24,102,l),
(61,28,o),
(124,-11,o),
(208,-11,cs)
);
},
{
closed = 1;
nodes = (
(240,345,o),
(208,396,o),
(208,446,cs),
(208,516,o),
(274,596,o),
(347,596,cs),
(403,596,o),
(432,541,o),
(432,491,cs),
(432,420,o),
(369,345,o),
(295,345,cs)
);
}
);
width = 586;
},
{
layerId = "C7C3A33C-E883-49F1-BDC1-C605A621ADB5";
shapes = (
{
closed = 1;
nodes = (
(453,-9,o),
(552,290,o),
(552,492,cs),
(552,610,o),
(499,718,o),
(367,718,cs),
(213,718,o),
(74,583,o),
(74,428,cs),
(74,320,o),
(145,232,o),
(257,232,cs),
(338,232,o),
(423,279,o),
(465,348,c),
(439,234,o),
(361,70,o),
(224,70,cs),
(160,70,o),
(112,108,o),
(98,170,c),
(34,119,l),
(59,36,o),
(121,-9,o),
(207,-9,cs)
);
},
{
closed = 1;
nodes = (
(205,305,o),
(159,374,o),
(159,443,cs),
(159,540,o),
(251,640,o),
(350,640,cs),
(426,640,o),
(469,571,o),
(469,501,cs),
(469,403,o),
(380,305,o),
(280,305,cs)
);
}
);
width = 586;
},
{
layerId = "F5CD80C0-3A8F-48DC-9182-C71904D0895A";
shapes = (
{
closed = 1;
nodes = (
(443,-9,o),
(539,314,o),
(539,506,cs),
(539,619,o),
(482,718,o),
(358,718,cs),
(207,718,o),
(77,579,o),
(77,430,cs),
(77,326,o),
(144,231,o),
(255,231,cs),
(366,231,o),
(466,300,o),
(512,400,c),
(486,252,o),
(392,13,o),
(211,13,cs),
(131,13,o),
(75,65,o),
(68,145,c),
(48,138,l),
(56,48,o),
(116,-9,o),
(207,-9,cs)
);
},
{
closed = 1;
nodes = (
(160,253,o),
(98,343,o),
(98,438,cs),
(98,569,o),
(220,696,o),
(352,696,cs),
(455,696,o),
(517,609,o),
(517,512,cs),
(517,381,o),
(394,253,o),
(262,253,cs)
);
}
);
width = 586;
}
);
unicode = 57;
},
{
glyphname = less;
layers = (
{
layerId = "089F0C00-674C-4F2E-8375-778CCED9E96B";
shapes = (
{
closed = 1;
nodes = (
(28,210,l),
(452,-40,l),
(452,172,l),
(304,259,l),
(452,354,l),
(452,556,l),
(28,298,l)
);
}
);
width = 554;
},
{
layerId = "D56C188B-E5B2-4235-B802-3B7EEA6FD951";
shapes = (
{
closed = 1;
nodes = (
(29,222,l),
(451,-28,l),
(451,129,l),
(234,259,l),
(451,395,l),
(451,545,l),
(29,289,l)
);
}
);
width = 551;
},
{
layerId = "C7C3A33C-E883-49F1-BDC1-C605A621ADB5";
shapes = (
{
closed = 1;
nodes = (
(30,234,l),
(450,-16,l),
(450,82,l),
(158,259,l),
(450,439,l),
(450,533,l),
(30,280,l)
);
}
);
width = 547;
},
{
layerId = "F5CD80C0-3A8F-48DC-9182-C71904D0895A";
shapes = (
{
closed = 1;
nodes = (
(31,250,l),
(448,0,l),
(448,22,l),
(60,259,l),
(448,495,l),
(448,517,l),
(31,268,l)
);
}
);
width = 541;
}
);
unicode = 60;
},
{
glyphname = equal;
layers = (
{
layerId = "089F0C00-674C-4F2E-8375-778CCED9E96B";
shapes = (
{
closed = 1;
nodes = (
(401,101,l),
(401,221,l),
(78,221,l),
(78,101,l)
);
},
{
closed = 1;
nodes = (
(401,331,l),
(401,451,l),
(78,451,l),
(78,331,l)
);
}
);
width = 492;
},
{
layerId = "D56C188B-E5B2-4235-B802-3B7EEA6FD951";
shapes = (
{
closed = 1;
nodes = (
(394,138,l),
(394,230,l),
(79,230,l),
(79,138,l)
);
},
{
closed = 1;
nodes = (
(394,322,l),
(394,414,l),
(79,414,l),
(79,322,l)
);
}
);
width = 486;
},
{
layerId = "C7C3A33C-E883-49F1-BDC1-C605A621ADB5";
shapes = (
{
closed = 1;
nodes = (
(386,179,l),
(386,239,l),
(81,239,l),
(81,179,l)
);
},
{
closed = 1;
nodes = (
(386,313,l),
(386,373,l),
(81,373,l),
(81,313,l)
);
}
);
width = 479;
},
{
layerId = "F5CD80C0-3A8F-48DC-9182-C71904D0895A";
shapes = (
{
closed = 1;
nodes = (
(367,231,l),
(367,251,l),
(74,251,l),
(74,231,l)
);
},
{
closed = 1;
nodes = (
(367,301,l),
(367,321,l),
(74,321,l),
(74,301,l)
);
}
);
width = 453;
}
);
unicode = 61;
},
{
glyphname = greater;
layers = (
{
layerId = "089F0C00-674C-4F2E-8375-778CCED9E96B";
shapes = (
{
closed = 1;
nodes = (
(507,298,l),
(83,556,l),
(83,354,l),
(231,259,l),
(83,172,l),
(83,-40,l),
(507,210,l)
);
}
);
width = 555;
},
{
layerId = "D56C188B-E5B2-4235-B802-3B7EEA6FD951";
shapes = (
{
closed = 1;
nodes = (
(503,289,l),
(81,545,l),
(81,395,l),
(298,259,l),
(81,129,l),
(81,-28,l),
(503,222,l)
);
}
);
width = 551;
},
{
layerId = "C7C3A33C-E883-49F1-BDC1-C605A621ADB5";
shapes = (
{
closed = 1;
nodes = (
(498,280,l),
(78,533,l),
(78,439,l),
(370,259,l),
(78,82,l),
(78,-16,l),
(498,234,l)
);
}
);
width = 546;
},
{
layerId = "F5CD80C0-3A8F-48DC-9182-C71904D0895A";
shapes = (
{
closed = 1;
nodes = (
(492,268,l),
(75,517,l),
(75,495,l),
(463,259,l),
(75,22,l),
(75,0,l),
(492,250,l)
);
}
);
width = 541;
}
);
unicode = 62;
},
{
glyphname = question;
layers = (
{
layerId = "089F0C00-674C-4F2E-8375-778CCED9E96B";
shapes = (
{
closed = 1;
nodes = (
(196,259,l),
(188,303,o),
(321,318,o),
(385,358,cs),
(449,398,o),
(497,451,o),
(497,559,cs),
(497,675,o),
(410,719,o),
(325,719,cs),
(233,719,o),
(147,671,o),
(98,590,c),
(201,504,l),
(218,523,o),
(242,566,o),
(285,566,cs),
(309,566,o),
(327,550,o),
(327,525,cs),
(327,485,o),
(290,456,o),
(187,406,cs),
(132,378,o),
(113,345,o),
(113,307,cs),
(113,292,o),
(116,276,o),
(121,259,c)
);
},
{
closed = 1;
nodes = (
(50,32,o),
(83,-10,o),
(135,-10,cs),
(187,-10,o),
(239,32,o),
(249,84,cs),
(260,136,o),
(227,178,o),
(175,178,cs),
(122,178,o),
(71,136,o),
(61,84,cs)
);
}
);
width = 482;
},
{
background = {
shapes = (
{
closed = 1;
nodes = (
(250,259,l),
(250,303,o),
(324,318,o),
(382,358,cs),
(441,398,o),
(462,451,o),
(462,515,cs),
(462,665,o),
(346,719,o),
(244,719,cs),
(148,719,o),
(68,671,o),
(34,590,c),
(155,504,l),
(170,523,o),
(189,566,o),
(237,566,cs),
(269,566,o),
(297,546,o),
(297,516,cs),
(297,461,o),
(204,422,o),
(174,406,cs),
(101,368,o),
(95,316,o),
(95,259,c)
);
},
{
closed = 1;
nodes = (
(253,0,l),
(253,164,l),
(98,164,l),
(98,0,l)
);
}
);
};
layerId = "D56C188B-E5B2-4235-B802-3B7EEA6FD951";
shapes = (
{
closed = 1;
nodes = (
(183,233,l),
(178,291,o),
(277,314,o),
(347,354,cs),
(419,396,o),
(486,440,o),
(486,563,cs),
(486,673,o),
(406,719,o),
(323,719,cs),
(235,719,o),
(147,672,o),
(97,590,c),
(171,530,l),
(198,566,o),
(241,610,o),
(295,610,cs),
(334,610,o),
(365,586,o),
(365,540,cs),
(365,466,o),
(307,439,o),
(212,393,cs),
(151,362,o),
(123,321,o),
(123,275,cs),
(123,261,o),
(125,247,o),
(130,233,c)
);
},
{
closed = 1;
nodes = (
(69,23,o),
(94,-10,o),
(137,-10,cs),
(181,-10,o),
(219,24,o),
(229,66,c),
(237,107,o),
(212,142,o),
(169,142,cs),
(125,142,o),
(87,108,o),
(77,66,c)
);
}
);
width = 471;
},
{
background = {
shapes = (
{
closed = 1;
nodes = (
(218,211,l),
(218,299,o),
(267,324,o),
(316,351,cs),
(383,388,o),
(442,426,o),
(442,527,cs),
(442,658,o),
(342,719,o),
(243,719,cs),
(155,719,o),
(70,672,o),
(34,590,c),
(93,551,l),
(120,602,o),
(174,646,o),
(241,646,cs),
(304,646,o),
(364,606,o),
(364,531,cs),
(364,440,o),
(277,406,o),
(228,375,cs),
(167,336,o),
(144,283,o),
(144,211,c)
);
},
{
closed = 1;
nodes = (
(220,0,l),
(220,116,l),
(146,116,l),
(146,0,l)
);
}
);
};
layerId = "C7C3A33C-E883-49F1-BDC1-C605A621ADB5";
shapes = (
{
closed = 1;
nodes = (
(173,211,l),
(169,281,o),
(241,311,o),
(315,351,cs),
(394,395,o),
(477,431,o),
(477,567,cs),
(477,671,o),
(403,719,o),
(321,719,cs),
(237,719,o),
(147,672,o),
(96,590,c),
(146,551,l),
(182,602,o),
(241,646,o),
(304,646,cs),
(354,646,o),
(397,615,o),
(397,553,cs),
(397,450,o),
(321,425,o),
(233,382,cs),
(166,349,o),
(132,301,o),
(132,248,cs),
(132,236,o),
(133,224,o),
(137,211,c)
);
},
{
closed = 1;
nodes = (
(77,15,o),
(96,-10,o),
(128,-10,cs),
(158,-10,o),
(190,16,o),
(196,46,cs),
(203,77,o),
(183,102,o),
(152,102,cs),
(120,102,o),
(90,77,o),
(84,46,cs)
);
}
);
width = 462;
},
{
layerId = "F5CD80C0-3A8F-48DC-9182-C71904D0895A";
shapes = (
{
closed = 1;
nodes = (
(157,179,l),
(157,266,o),
(187,306,o),
(268,347,cs),
(358,393,o),
(463,418,o),
(463,572,cs),
(463,668,o),
(398,719,o),
(319,719,cs),
(240,719,o),
(147,673,o),
(94,590,c),
(110,582,l),
(158,654,o),
(240,699,o),
(316,699,cs),
(384,699,o),
(443,659,o),
(443,572,cs),
(443,426,o),
(342,405,o),
(263,366,cs),
(188,329,o),
(144,271,o),
(144,208,cs),
(144,199,o),
(145,189,o),
(147,179,c)
);
},
{
closed = 1;
nodes = (
(110,10,o),
(122,-5,o),
(141,-5,cs),
(160,-5,o),
(178,10,o),
(182,29,cs),
(186,48,o),
(175,62,o),
(155,62,cs),
(135,62,o),
(118,48,o),
(114,29,cs)
);
}
);
width = 449;
}
);
unicode = 63;
},
{
glyphname = at;
layers = (
{
layerId = "089F0C00-674C-4F2E-8375-778CCED9E96B";
shapes = (
{
closed = 1;
nodes = (
(568,64,o),
(556,79,o),
(556,102,cs),
(556,111,o),
(557,124,o),
(560,135,c),
(619,450,l),
(536,450,l),
(526,394,l),
(517,439,o),
(473,468,o),
(412,468,cs),
(345,468,o),
(282,434,o),
(235,381,cs),
(187,328,o),
(157,255,o),
(157,178,cs),
(157,123,o),
(173,77,o),
(201,45,cs),
(229,13,o),
(270,-6,o),
(319,-6,cs),
(370,-6,o),
(414,13,o),
(470,60,c),
(469,57,o),
(469,54,o),
(469,49,cs),
(469,8,o),
(502,-16,o),
(550,-16,cs),
(571,-16,o),
(592,-12,o),
(611,-3,cs),
(649,14,o),
(681,45,o),
(708,86,cs),
(721,107,o),
(733,129,o),
(742,154,c),
(761,202,o),
(771,256,o),
(771,311,cs),
(771,403,o),
(740,477,o),
(688,527,cs),
(635,577,o),
(559,603,o),
(467,603,cs),
(343,603,o),
(229,553,o),
(148,473,cs),
(67,392,o),
(16,279,o),
(16,155,cs),
(16,63,o),
(44,-12,o),
(93,-64,cs),
(141,-116,o),
(212,-146,o),
(299,-146,cs),
(359,-146,o),
(417,-133,o),
(473,-106,c),
(466,-38,l),
(405,-65,o),
(361,-76,o),
(313,-76,cs),
(244,-76,o),
(189,-53,o),
(151,-12,cs),
(113,29,o),
(91,89,o),
(91,164,cs),
(91,267,o),
(131,358,o),
(195,425,cs),
(259,492,o),
(349,533,o),
(449,533,cs),
(525,533,o),
(586,510,o),
(629,468,cs),
(672,426,o),
(696,366,o),
(696,291,cs),
(696,235,o),
(682,179,o),
(662,136,cs),
(642,93,o),
(615,64,o),
(588,64,cs)
);
},
{
closed = 1;
nodes = (
(322,82,o),
(300,94,o),
(286,113,cs),
(272,132,o),
(266,158,o),
(266,186,cs),
(266,235,o),
(284,280,o),
(310,312,cs),
(336,344,o),
(370,363,o),
(403,363,cs),
(450,363,o),
(476,327,o),
(479,284,c),
(463,169,l),
(451,141,o),
(438,120,o),
(420,105,cs),
(402,89,o),
(381,82,o),
(354,82,cs)
);
}
);
width = 820;
},
{
layerId = "D56C188B-E5B2-4235-B802-3B7EEA6FD951";
shapes = (
{
closed = 1;
nodes = (
(558,47,o),
(547,60,o),
(547,85,cs),
(547,93,o),
(548,106,o),
(551,118,c),
(618,450,l),
(548,450,l),
(534,379,l),
(519,428,o),
(475,463,o),
(410,463,cs),
(345,463,o),
(283,430,o),
(237,378,cs),
(191,326,o),
(160,255,o),
(160,180,cs),
(160,128,o),
(176,82,o),
(204,49,cs),
(231,16,o),
(271,-4,o),
(320,-4,cs),
(376,-4,o),
(428,22,o),
(479,66,c),
(478,61,o),
(478,56,o),
(478,49,cs),
(478,5,o),
(509,-16,o),
(553,-16,cs),
(576,-16,o),
(597,-11,o),
(616,-1,cs),
(654,19,o),
(684,55,o),
(708,99,c),
(719,121,o),
(729,144,o),
(737,169,cs),
(752,217,o),
(759,269,o),
(759,312,cs),
(759,396,o),
(731,468,o),
(681,520,cs),
(631,572,o),
(557,603,o),
(465,603,cs),
(352,603,o),
(240,556,o),
(157,477,cs),
(74,397,o),
(20,285,o),
(20,157,cs),
(20,65,o),
(48,-10,o),
(97,-63,cs),
(145,-116,o),
(215,-146,o),
(299,-146,cs),
(356,-146,o),
(414,-133,o),
(471,-106,c),
(465,-52,l),
(408,-77,o),
(363,-90,o),
(311,-90,cs),
(239,-90,o),
(181,-65,o),
(141,-20,cs),
(101,25,o),
(79,89,o),
(79,164,cs),
(79,271,o),
(123,367,o),
(192,436,cs),
(260,504,o),
(352,547,o),
(451,547,cs),
(531,547,o),
(592,519,o),
(635,474,cs),
(678,429,o),
(700,367,o),
(700,296,cs),
(700,244,o),
(688,181,o),
(666,132,cs),
(644,83,o),
(614,47,o),
(579,47,cs)
);
},
{
closed = 1;
nodes = (
(318,66,o),
(290,81,o),
(273,103,cs),
(256,125,o),
(245,156,o),
(245,192,cs),
(245,245,o),
(267,293,o),
(297,328,cs),
(327,363,o),
(367,384,o),
(404,384,cs),
(453,384,o),
(489,351,o),
(501,292,c),
(481,166,l),
(469,138,o),
(452,113,o),
(429,95,cs),
(406,77,o),
(380,66,o),
(351,66,cs)
);
}
);
width = 814;
},
{
layerId = "C7C3A33C-E883-49F1-BDC1-C605A621ADB5";
shapes = (
{
closed = 1;
nodes = (
(546,28,o),
(537,39,o),
(537,66,cs),
(537,74,o),
(538,86,o),
(541,99,cs),
(616,450,l),
(560,450,l),
(542,362,l),
(523,417,o),
(479,458,o),
(407,458,cs),
(344,458,o),
(283,425,o),
(239,374,cs),
(194,323,o),
(164,254,o),
(164,183,cs),
(164,134,o),
(179,88,o),
(206,54,cs),
(233,20,o),
(273,-1,o),
(322,-1,cs),
(382,-1,o),
(445,30,o),
(489,73,c),
(486,65,o),
(487,57,o),
(487,50,cs),
(487,1,o),
(517,-16,o),
(556,-16,cs),
(581,-16,o),
(602,-10,o),
(621,2,cs),
(658,25,o),
(687,65,o),
(707,113,c),
(716,137,o),
(724,161,o),
(730,186,cs),
(742,234,o),
(747,282,o),
(747,314,cs),
(747,387,o),
(721,460,o),
(673,514,cs),
(625,568,o),
(554,603,o),
(463,603,cs),
(360,603,o),
(251,559,o),
(167,481,cs),
(83,403,o),
(24,292,o),
(24,160,cs),
(24,68,o),
(52,-8,o),
(101,-62,cs),
(149,-116,o),
(219,-146,o),
(300,-146,cs),
(353,-146,o),
(411,-133,o),
(468,-106,c),
(463,-68,l),
(411,-91,o),
(365,-106,o),
(309,-106,cs),
(233,-106,o),
(173,-77,o),
(131,-29,cs),
(89,20,o),
(66,88,o),
(66,164,cs),
(66,276,o),
(115,376,o),
(188,448,cs),
(260,519,o),
(357,563,o),
(453,563,cs),
(537,563,o),
(600,530,o),
(642,482,cs),
(684,433,o),
(705,367,o),
(705,302,cs),
(705,253,o),
(693,184,o),
(670,128,cs),
(646,72,o),
(612,28,o),
(569,28,cs)
);
},
{
closed = 1;
nodes = (
(314,49,o),
(282,64,o),
(260,91,cs),
(238,118,o),
(223,155,o),
(223,199,cs),
(223,256,o),
(247,309,o),
(283,346,cs),
(318,383,o),
(363,407,o),
(406,407,cs),
(457,407,o),
(504,376,o),
(525,300,c),
(501,163,l),
(489,134,o),
(467,104,o),
(440,84,cs),
(412,63,o),
(379,49,o),
(347,49,cs)
);
}
);
width = 808;
},
{
layerId = "F5CD80C0-3A8F-48DC-9182-C71904D0895A";
shapes = (
{
closed = 1;
nodes = (
(513,4,o),
(501,18,o),
(501,47,cs),
(501,55,o),
(501,70,o),
(508,99,c),
(583,450,l),
(563,450,l),
(545,362,l),
(522,418,o),
(477,449,o),
(414,449,cs),
(351,449,o),
(292,418,o),
(249,370,cs),
(205,321,o),
(178,255,o),
(178,184,cs),
(178,133,o),
(192,90,o),
(217,60,cs),
(242,30,o),
(277,12,o),
(320,12,cs),
(375,12,o),
(438,40,o),
(483,84,c),
(480,69,o),
(479,55,o),
(479,44,cs),
(479,1,o),
(494,-16,o),
(530,-16,cs),
(548,-16,o),
(565,-12,o),
(582,-4,c),
(614,13,o),
(644,44,o),
(668,85,cs),
(680,105,o),
(691,127,o),
(700,151,cs),
(718,198,o),
(727,251,o),
(727,303,cs),
(727,394,o),
(698,468,o),
(648,521,cs),
(598,573,o),
(528,603,o),
(449,603,cs),
(344,603,o),
(237,549,o),
(158,466,cs),
(79,383,o),
(26,272,o),
(26,157,cs),
(26,72,o),
(55,-3,o),
(103,-58,cs),
(151,-113,o),
(220,-146,o),
(297,-146,cs),
(348,-146,o),
(406,-133,o),
(462,-106,c),
(456,-88,l),
(405,-115,o),
(356,-126,o),
(308,-126,cs),
(232,-126,o),
(166,-96,o),
(120,-45,cs),
(74,6,o),
(46,77,o),
(46,158,cs),
(46,267,o),
(95,373,o),
(170,453,cs),
(245,532,o),
(345,583,o),
(446,583,cs),
(522,583,o),
(586,554,o),
(633,505,cs),
(680,456,o),
(707,384,o),
(707,300,cs),
(707,227,o),
(687,153,o),
(656,97,cs),
(624,41,o),
(583,4,o),
(540,4,cs)
);
},
{
closed = 1;
nodes = (
(286,32,o),
(255,48,o),
(233,76,cs),
(211,103,o),
(198,142,o),
(198,186,cs),
(198,250,o),
(223,311,o),
(263,355,cs),
(302,399,o),
(355,428,o),
(411,428,cs),
(474,428,o),
(520,394,o),
(537,334,c),
(497,139,l),
(485,110,o),
(459,83,o),
(427,64,cs),
(395,44,o),
(358,32,o),
(325,32,cs)
);
}
);
width = 791;
}
);
unicode = 64;
},
{
glyphname = A;
layers = (
{
layerId = "089F0C00-674C-4F2E-8375-778CCED9E96B";
shapes = (
{
closed = 1;
nodes = (
(-61,0,l),
(138,0,l),
(203,139,l),
(373,139,l),
(380,0,l),
(578,0,l),
(499,710,l),
(320,710,l)
);
},
{
closed = 1;
nodes = (
(259,269,l),
(362,489,l),
(370,269,l)
);
}
);
width = 636;
},
{
layerId = "D56C188B-E5B2-4235-B802-3B7EEA6FD951";
shapes = (
{
closed = 1;
nodes = (
(-54,0,l),
(95,0,l),
(187,172,l),
(409,172,l),
(429,0,l),
(578,0,l),
(478,710,l),
(348,710,l)
);
},
{
closed = 1;
nodes = (
(232,273,l),
(378,545,l),
(406,273,l)
);
}
);
width = 644;
},
{
layerId = "C7C3A33C-E883-49F1-BDC1-C605A621ADB5";
shapes = (
{
closed = 1;
nodes = (
(-47,0,l),
(49,0,l),
(170,208,l),
(448,208,l),
(482,0,l),
(578,0,l),
(455,710,l),
(378,710,l)
);
},
{
closed = 1;
nodes = (
(202,278,l),
(395,606,l),
(444,278,l)
);
}
);
width = 652;
},
{
layerId = "F5CD80C0-3A8F-48DC-9182-C71904D0895A";
shapes = (
{
closed = 1;
nodes = (
(-39,0,l),
(-17,0,l),
(142,254,l),
(493,254,l),
(544,0,l),
(566,0,l),
(424,710,l),
(406,710,l)
);
},
{
closed = 1;
nodes = (
(154,274,l),
(409,681,l),
(489,274,l)
);
}
);
width = 647;
}
);
leftKerningGroup = A2;
rightKerningGroup = A;
unicode = 65;
},
{
glyphname = B;
layers = (
{
layerId = "089F0C00-674C-4F2E-8375-778CCED9E96B";
shapes = (
{
closed = 1;
nodes = (
(-3,0,l),
(330,0,ls),
(406,0,o),
(480,17,o),
(533,53,cs),
(586,89,o),
(621,145,o),
(621,225,cs),
(621,297,o),
(587,345,o),
(528,364,c),
(572,383,o),
(606,412,o),
(630,448,cs),
(653,484,o),
(665,524,o),
(665,564,cs),
(665,601,o),
(655,638,o),
(635,665,cs),
(615,692,o),
(585,710,o),
(545,710,cs),
(148,710,l)
);
},
{
closed = 1;
nodes = (
(227,164,l),
(252,283,l),
(396,283,ls),
(407,283,o),
(414,278,o),
(420,270,cs),
(426,262,o),
(428,251,o),
(428,238,cs),
(428,215,o),
(420,196,o),
(409,184,cs),
(397,171,o),
(381,164,o),
(365,164,cs)
);
},
{
closed = 1;
nodes = (
(284,435,l),
(308,544,l),
(431,544,ls),
(439,544,o),
(447,542,o),
(452,536,cs),
(457,530,o),
(461,519,o),
(461,506,cs),
(461,478,o),
(453,461,o),
(442,450,cs),
(430,439,o),
(415,435,o),
(402,435,cs)
);
}
);
width = 667;
},
{
layerId = "D56C188B-E5B2-4235-B802-3B7EEA6FD951";
shapes = (
{
closed = 1;
nodes = (
(8,0,l),
(335,0,ls),
(404,0,o),
(472,20,o),
(522,57,cs),
(572,94,o),
(603,150,o),
(603,223,cs),
(603,294,o),
(570,345,o),
(511,364,c),
(554,383,o),
(587,412,o),
(611,448,cs),
(635,483,o),
(648,524,o),
(648,564,cs),
(648,601,o),
(638,638,o),
(618,665,cs),
(598,692,o),
(568,710,o),
(528,710,cs),
(159,710,l)
);
},
{
closed = 1;
nodes = (
(179,123,l),
(216,302,l),
(406,302,ls),
(422,302,o),
(437,293,o),
(446,281,cs),
(455,268,o),
(460,251,o),
(460,231,cs),
(460,202,o),
(448,174,o),
(430,154,cs),
(412,134,o),
(386,123,o),
(361,123,cs)
);
},
{
closed = 1;
nodes = (
(241,416,l),
(277,586,l),
(445,586,ls),
(461,586,o),
(474,580,o),
(483,569,cs),
(491,558,o),
(497,542,o),
(497,522,cs),
(497,489,o),
(484,463,o),
(467,444,cs),
(450,425,o),
(427,416,o),
(403,416,cs)
);
}
);
width = 657;
},
{
layerId = "C7C3A33C-E883-49F1-BDC1-C605A621ADB5";
shapes = (
{
closed = 1;
nodes = (
(20,0,l),
(341,0,ls),
(404,0,o),
(464,22,o),
(509,61,cs),
(554,100,o),
(584,156,o),
(584,221,cs),
(584,289,o),
(552,344,o),
(492,364,c),
(533,381,o),
(567,411,o),
(591,447,cs),
(615,482,o),
(629,524,o),
(629,565,cs),
(629,602,o),
(619,638,o),
(599,666,cs),
(579,693,o),
(549,710,o),
(509,710,cs),
(171,710,l)
);
},
{
closed = 1;
nodes = (
(127,78,l),
(178,322,l),
(416,322,ls),
(440,322,o),
(461,311,o),
(474,293,cs),
(487,275,o),
(495,251,o),
(495,224,cs),
(495,187,o),
(479,150,o),
(453,123,cs),
(427,95,o),
(392,78,o),
(357,78,cs)
);
},
{
closed = 1;
nodes = (
(194,395,l),
(244,632,l),
(461,632,ls),
(484,632,o),
(503,622,o),
(516,606,c),
(528,589,o),
(535,566,o),
(535,539,cs),
(535,500,o),
(519,465,o),
(495,438,cs),
(471,411,o),
(438,395,o),
(405,395,cs)
);
}
);
width = 647;
},
{
layerId = "F5CD80C0-3A8F-48DC-9182-C71904D0895A";
shapes = (
{
closed = 1;
nodes = (
(33,0,l),
(346,0,ls),
(398,0,o),
(451,26,o),
(491,66,cs),
(531,106,o),
(558,161,o),
(558,218,cs),
(558,285,o),
(526,344,o),
(466,364,c),
(505,381,o),
(539,409,o),
(564,445,cs),
(588,480,o),
(603,521,o),
(603,565,cs),
(603,602,o),
(593,638,o),
(573,666,cs),
(553,693,o),
(523,710,o),
(483,710,cs),
(184,710,l)
);
},
{
closed = 1;
nodes = (
(57,20,l),
(127,348,l),
(426,348,ls),
(461,348,o),
(488,332,o),
(508,308,cs),
(527,284,o),
(537,251,o),
(537,215,cs),
(537,167,o),
(514,118,o),
(479,82,cs),
(444,45,o),
(397,20,o),
(350,20,cs)
);
},
{
closed = 1;
nodes = (
(131,368,l),
(200,690,l),
(478,690,ls),
(511,690,o),
(538,675,o),
(556,652,cs),
(574,628,o),
(583,597,o),
(583,562,cs),
(583,515,o),
(561,466,o),
(529,430,cs),
(496,393,o),
(451,368,o),
(404,368,cs)
);
}
);
width = 628;
}
);
leftKerningGroup = B;
unicode = 66;
},
{
glyphname = C;
layers = (
{
anchors = (
{
name = bottom;
position = "{328, 0}";
}
);
layerId = "089F0C00-674C-4F2E-8375-778CCED9E96B";
shapes = (
{
closed = 1;
nodes = (
(461,-5,o),
(567,67,o),
(647,151,c),
(532,260,l),
(489,212,o),
(429,159,o),
(360,159,cs),
(269,159,o),
(216,224,o),
(216,312,cs),
(216,424,o),
(297,553,o),
(418,553,cs),
(484,553,o),
(518,517,o),
(545,464,c),
(705,575,l),
(659,663,o),
(582,715,o),
(447,715,cs),
(223,715,o),
(33,515,o),
(33,292,cs),
(33,112,o),
(163,-5,o),
(340,-5,cs)
);
}
);
width = 709;
},
{
anchors = (
{
name = bottom;
position = "{323, 7}";
}
);
layerId = "D56C188B-E5B2-4235-B802-3B7EEA6FD951";
shapes = (
{
closed = 1;
nodes = (
(454,-5,o),
(566,65,o),
(643,152,c),
(554,234,l),
(506,176,o),
(432,120,o),
(353,120,cs),
(243,120,o),
(173,197,o),
(173,305,cs),
(173,443,o),
(278,592,o),
(424,592,cs),
(504,592,o),
(553,547,o),
(578,487,c),
(701,570,l),
(661,659,o),
(581,715,o),
(448,715,cs),
(222,715,o),
(35,511,o),
(35,288,cs),
(35,110,o),
(159,-5,o),
(335,-5,cs)
);
}
);
width = 708;
},
{
anchors = (
{
name = bottom;
position = "{317, 0}";
}
);
layerId = "C7C3A33C-E883-49F1-BDC1-C605A621ADB5";
shapes = (
{
closed = 1;
nodes = (
(446,-5,o),
(566,65,o),
(639,154,c),
(578,206,l),
(524,138,o),
(431,77,o),
(341,77,cs),
(210,77,o),
(127,167,o),
(127,296,cs),
(127,459,o),
(255,633,o),
(427,633,cs),
(523,633,o),
(589,580,o),
(613,514,c),
(697,566,l),
(662,655,o),
(578,715,o),
(444,715,cs),
(217,715,o),
(36,506,o),
(36,284,cs),
(36,108,o),
(154,-5,o),
(329,-5,cs)
);
}
);
width = 706;
},
{
anchors = (
{
name = bottom;
position = "{310, 0}";
}
);
layerId = "F5CD80C0-3A8F-48DC-9182-C71904D0895A";
shapes = (
{
closed = 1;
nodes = (
(434,-5,o),
(535,56,o),
(606,127,c),
(590,140,l),
(517,70,o),
(435,16,o),
(331,16,cs),
(167,16,o),
(57,131,o),
(57,294,cs),
(57,499,o),
(221,695,o),
(432,695,cs),
(548,695,o),
(602,654,o),
(644,584,c),
(666,597,l),
(625,668,o),
(559,715,o),
(438,715,cs),
(215,715,o),
(37,513,o),
(37,295,cs),
(37,123,o),
(156,-5,o),
(331,-5,cs)
);
}
);
width = 725;
}
);
leftKerningGroup = C2;
rightKerningGroup = C;
unicode = 67;
},
{
glyphname = D;
layers = (
{
layerId = "089F0C00-674C-4F2E-8375-778CCED9E96B";
shapes = (
{
closed = 1;
nodes = (
(-3,0,l),
(259,0,ls),
(380,0,o),
(487,46,o),
(564,123,cs),
(640,200,o),
(686,308,o),
(686,433,cs),
(686,510,o),
(665,580,o),
(619,630,cs),
(573,680,o),
(505,710,o),
(410,710,cs),
(148,710,l)
);
},
{
closed = 1;
nodes = (
(228,170,l),
(307,540,l),
(374,540,ls),
(410,540,o),
(437,527,o),
(457,503,cs),
(476,479,o),
(485,445,o),
(485,405,cs),
(485,342,o),
(465,284,o),
(432,241,cs),
(399,197,o),
(351,170,o),
(295,170,cs)
);
}
);
width = 693;
},
{
layerId = "D56C188B-E5B2-4235-B802-3B7EEA6FD951";
shapes = (
{
closed = 1;
nodes = (
(8,0,l),
(257,0,ls),
(377,0,o),
(482,46,o),
(558,124,cs),
(633,202,o),
(677,310,o),
(677,435,cs),
(677,511,o),
(656,581,o),
(612,630,cs),
(567,679,o),
(500,710,o),
(408,710,cs),
(159,710,l)
);
},
{
closed = 1;
nodes = (
(180,127,l),
(277,583,l),
(381,583,ls),
(429,583,o),
(466,566,o),
(491,536,cs),
(515,506,o),
(528,463,o),
(528,414,cs),
(528,338,o),
(504,266,o),
(462,213,cs),
(420,160,o),
(357,127,o),
(284,127,cs)
);
}
);
width = 693;
},
{
layerId = "C7C3A33C-E883-49F1-BDC1-C605A621ADB5";
shapes = (
{
closed = 1;
nodes = (
(20,0,l),
(255,0,ls),
(374,0,o),
(477,47,o),
(551,125,cs),
(625,203,o),
(668,312,o),
(668,437,cs),
(668,513,o),
(647,582,o),
(604,631,cs),
(561,680,o),
(495,710,o),
(406,710,cs),
(171,710,l)
);
},
{
closed = 1;
nodes = (
(127,80,l),
(244,630,l),
(389,630,ls),
(450,630,o),
(497,608,o),
(528,572,cs),
(559,535,o),
(575,483,o),
(575,423,cs),
(575,332,o),
(546,247,o),
(494,184,cs),
(441,120,o),
(365,80,o),
(272,80,cs)
);
}
);
width = 692;
},
{
layerId = "F5CD80C0-3A8F-48DC-9182-C71904D0895A";
shapes = (
{
closed = 1;
nodes = (
(33,0,l),
(250,0,ls),
(366,0,o),
(467,48,o),
(539,126,cs),
(611,204,o),
(653,315,o),
(653,440,cs),
(653,516,o),
(633,583,o),
(592,632,cs),
(551,680,o),
(488,710,o),
(401,710,cs),
(184,710,l)
);
},
{
closed = 1;
nodes = (
(57,20,l),
(200,690,l),
(397,690,ls),
(476,690,o),
(534,663,o),
(574,619,cs),
(613,574,o),
(633,510,o),
(633,435,cs),
(633,326,o),
(597,222,o),
(533,146,cs),
(468,69,o),
(373,20,o),
(254,20,cs)
);
}
);
width = 684;
}
);
leftKerningGroup = B;
rightKerningGroup = D;
unicode = 68;
},
{
glyphname = E;
layers = (
{
anchors = (
{
name = bottom;
position = "{252, 0}";
}
);
layerId = "089F0C00-674C-4F2E-8375-778CCED9E96B";
shapes = (
{
closed = 1;
nodes = (
(-3,0,l),
(480,0,l),
(516,170,l),
(228,170,l),
(252,282,l),
(490,282,l),
(524,440,l),
(286,440,l),
(307,540,l),
(586,540,l),
(622,710,l),
(148,710,l)
);
}
);
width = 575;
},
{
anchors = (
{
name = bottom;
position = "{266, 0}";
}
);
layerId = "D56C188B-E5B2-4235-B802-3B7EEA6FD951";
shapes = (
{
closed = 1;
nodes = (
(8,0,l),
(480,0,l),
(506,127,l),
(180,127,l),
(217,303,l),
(491,303,l),
(516,421,l),
(242,421,l),
(277,583,l),
(595,583,l),
(622,710,l),
(159,710,l)
);
}
);
width = 577;
},
{
anchors = (
{
name = bottom;
position = "{266, 0}";
}
);
layerId = "C7C3A33C-E883-49F1-BDC1-C605A621ADB5";
shapes = (
{
closed = 1;
nodes = (
(20,0,l),
(479,0,l),
(496,80,l),
(127,80,l),
(179,325,l),
(492,325,l),
(508,400,l),
(195,400,l),
(244,630,l),
(604,630,l),
(621,710,l),
(171,710,l)
);
}
);
width = 580;
},
{
anchors = (
{
name = bottom;
position = "{274, 0}";
}
);
layerId = "F5CD80C0-3A8F-48DC-9182-C71904D0895A";
shapes = (
{
closed = 1;
nodes = (
(33,0,l),
(476,0,l),
(480,20,l),
(57,20,l),
(128,353,l),
(491,353,l),
(495,373,l),
(132,373,l),
(200,690,l),
(614,690,l),
(618,710,l),
(184,710,l)
);
}
);
width = 588;
}
);
leftKerningGroup = B;
rightKerningGroup = E;
unicode = 69;
},
{
glyphname = F;
layers = (
{
layerId = "089F0C00-674C-4F2E-8375-778CCED9E96B";
shapes = (
{
closed = 1;
nodes = (
(-3,0,l),
(192,0,l),
(248,264,l),
(467,264,l),
(500,422,l),
(282,422,l),
(307,540,l),
(576,540,l),
(612,710,l),
(148,710,l)
);
}
);
width = 546;
},
{
layerId = "D56C188B-E5B2-4235-B802-3B7EEA6FD951";
shapes = (
{
closed = 1;
nodes = (
(8,0,l),
(153,0,l),
(214,290,l),
(472,290,l),
(497,408,l),
(240,408,l),
(277,583,l),
(588,583,l),
(614,710,l),
(159,710,l)
);
}
);
width = 555;
},
{
layerId = "C7C3A33C-E883-49F1-BDC1-C605A621ADB5";
shapes = (
{
closed = 1;
nodes = (
(20,0,l),
(110,0,l),
(178,318,l),
(477,318,l),
(493,393,l),
(194,393,l),
(244,630,l),
(600,630,l),
(617,710,l),
(171,710,l)
);
}
);
width = 565;
},
{
layerId = "F5CD80C0-3A8F-48DC-9182-C71904D0895A";
shapes = (
{
closed = 1;
nodes = (
(33,0,l),
(53,0,l),
(128,354,l),
(482,354,l),
(486,374,l),
(133,374,l),
(200,690,l),
(614,690,l),
(618,710,l),
(184,710,l)
);
}
);
width = 588;
}
);
leftKerningGroup = B;
unicode = 70;
},
{
glyphname = G;
layers = (
{
layerId = "089F0C00-674C-4F2E-8375-778CCED9E96B";
shapes = (
{
closed = 1;
nodes = (
(522,-5,o),
(690,121,o),
(735,310,c),
(755,399,l),
(418,399,l),
(384,242,l),
(525,242,l),
(491,180,o),
(420,158,o),
(354,158,cs),
(265,158,o),
(222,226,o),
(222,309,cs),
(222,420,o),
(300,553,o),
(422,553,cs),
(477,553,o),
(538,525,o),
(567,475,c),
(724,595,l),
(665,683,o),
(550,715,o),
(450,715,cs),
(226,715,o),
(34,517,o),
(34,293,cs),
(34,117,o),
(154,-5,o),
(331,-5,cs)
);
}
);
width = 755;
},
{
layerId = "D56C188B-E5B2-4235-B802-3B7EEA6FD951";
shapes = (
{
closed = 1;
nodes = (
(519,-5,o),
(682,119,o),
(725,283,c),
(742,377,l),
(431,377,l),
(404,257,l),
(569,257,l),
(536,171,o),
(449,119,o),
(359,119,cs),
(245,119,o),
(177,200,o),
(177,311,cs),
(177,455,o),
(295,592,o),
(442,592,cs),
(509,592,o),
(575,552,o),
(604,489,c),
(726,577,l),
(676,669,o),
(576,715,o),
(475,715,cs),
(253,715,o),
(36,528,o),
(36,298,cs),
(36,116,o),
(172,-5,o),
(350,-5,cs)
);
}
);
width = 741;
},
{
layerId = "C7C3A33C-E883-49F1-BDC1-C605A621ADB5";
shapes = (
{
closed = 1;
nodes = (
(497,-5,o),
(679,100,o),
(715,281,c),
(728,355,l),
(444,355,l),
(426,274,l),
(617,274,l),
(579,149,o),
(454,78,o),
(328,78,cs),
(199,78,o),
(128,166,o),
(128,291,cs),
(128,459,o),
(261,632,o),
(437,632,cs),
(517,632,o),
(613,587,o),
(643,506,c),
(727,558,l),
(683,666,o),
(551,715,o),
(443,715,cs),
(218,715,o),
(35,500,o),
(35,281,cs),
(35,107,o),
(144,-5,o),
(319,-5,cs)
);
}
);
width = 726;
},
{
layerId = "F5CD80C0-3A8F-48DC-9182-C71904D0895A";
shapes = (
{
closed = 1;
nodes = (
(535,-5,o),
(644,115,o),
(712,314,c),
(715,330,l),
(477,330,l),
(473,311,l),
(686,311,l),
(638,150,o),
(511,15,o),
(334,15,cs),
(169,15,o),
(56,118,o),
(56,285,cs),
(56,490,o),
(219,695,o),
(432,695,cs),
(523,695,o),
(633,667,o),
(684,583,c),
(706,596,l),
(656,684,o),
(535,715,o),
(441,715,cs),
(211,715,o),
(36,509,o),
(36,284,cs),
(36,107,o),
(153,-5,o),
(329,-5,cs)
);
}
);
width = 753;
}
);
leftKerningGroup = C2;
rightKerningGroup = G;
unicode = 71;
},
{
glyphname = H;
layers = (
{
layerId = "089F0C00-674C-4F2E-8375-778CCED9E96B";
shapes = (
{
closed = 1;
nodes = (
(-3,0,l),
(192,0,l),
(251,278,l),
(463,278,l),
(404,0,l),
(599,0,l),
(750,710,l),
(555,710,l),
(499,448,l),
(287,448,l),
(343,710,l),
(148,710,l)
);
}
);
width = 724;
},
{
layerId = "D56C188B-E5B2-4235-B802-3B7EEA6FD951";
shapes = (
{
closed = 1;
nodes = (
(8,0,l),
(153,0,l),
(216,300,l),
(502,300,l),
(438,0,l),
(583,0,l),
(734,710,l),
(589,710,l),
(529,426,l),
(243,426,l),
(304,710,l),
(159,710,l)
);
}
);
width = 719;
},
{
layerId = "C7C3A33C-E883-49F1-BDC1-C605A621ADB5";
shapes = (
{
closed = 1;
nodes = (
(20,0,l),
(110,0,l),
(179,323,l),
(544,323,l),
(475,0,l),
(565,0,l),
(716,710,l),
(626,710,l),
(561,403,l),
(196,403,l),
(261,710,l),
(171,710,l)
);
}
);
width = 713;
},
{
layerId = "F5CD80C0-3A8F-48DC-9182-C71904D0895A";
shapes = (
{
closed = 1;
nodes = (
(33,0,l),
(53,0,l),
(128,353,l),
(595,353,l),
(520,0,l),
(540,0,l),
(691,710,l),
(671,710,l),
(599,373,l),
(132,373,l),
(204,710,l),
(184,710,l)
);
}
);
width = 701;
}
);
leftKerningGroup = B;
rightKerningGroup = H;
unicode = 72;
},
{
glyphname = I;
layers = (
{
layerId = "089F0C00-674C-4F2E-8375-778CCED9E96B";
shapes = (
{
closed = 1;
nodes = (
(-3,0,l),
(192,0,l),
(343,710,l),
(148,710,l)
);
}
);
width = 317;
},
{
layerId = "D56C188B-E5B2-4235-B802-3B7EEA6FD951";
shapes = (
{
closed = 1;
nodes = (
(8,0,l),
(153,0,l),
(304,710,l),
(159,710,l)
);
}
);
width = 289;
},
{
layerId = "C7C3A33C-E883-49F1-BDC1-C605A621ADB5";
shapes = (
{
closed = 1;
nodes = (
(20,0,l),
(110,0,l),
(261,709,l),
(171,709,l)
);
}
);
width = 258;
},
{
layerId = "F5CD80C0-3A8F-48DC-9182-C71904D0895A";
shapes = (
{
closed = 1;
nodes = (
(33,0,l),
(53,0,l),
(204,709,l),
(184,709,l)
);
}
);
width = 214;
}
);
leftKerningGroup = B;
rightKerningGroup = H;
unicode = 73;
},
{
glyphname = J;
layers = (
{
layerId = "089F0C00-674C-4F2E-8375-778CCED9E96B";
shapes = (
{
closed = 1;
nodes = (
(-6,184,l),
(6,129,o),
(31,82,o),
(67,48,cs),
(103,14,o),
(151,-6,o),
(210,-6,cs),
(286,-6,o),
(357,22,o),
(411,69,cs),
(465,116,o),
(503,181,o),
(518,254,cs),
(610,710,l),
(416,710,l),
(327,269,ls),
(323,248,o),
(315,222,o),
(303,202,cs),
(290,182,o),
(272,168,o),
(245,168,cs),
(221,168,o),
(204,180,o),
(191,197,cs),
(178,213,o),
(169,234,o),
(162,253,c)
);
}
);
width = 589;
},
{
layerId = "D56C188B-E5B2-4235-B802-3B7EEA6FD951";
shapes = (
{
closed = 1;
nodes = (
(-6,158,l),
(6,110,o),
(29,68,o),
(61,39,cs),
(93,10,o),
(136,-8,o),
(188,-8,cs),
(260,-8,o),
(325,18,o),
(375,62,cs),
(425,106,o),
(460,167,o),
(473,235,cs),
(568,710,l),
(426,710,l),
(337,258,l),
(332,226,o),
(318,192,o),
(298,166,cs),
(277,140,o),
(250,122,o),
(211,122,cs),
(186,122,o),
(167,134,o),
(152,151,cs),
(137,168,o),
(128,191,o),
(121,212,c)
);
}
);
width = 559;
},
{
layerId = "C7C3A33C-E883-49F1-BDC1-C605A621ADB5";
shapes = (
{
closed = 1;
nodes = (
(-5,130,l),
(6,89,o),
(26,54,o),
(55,30,c),
(83,5,o),
(120,-10,o),
(164,-10,cs),
(231,-10,o),
(290,14,o),
(335,55,cs),
(380,95,o),
(412,151,o),
(424,215,cs),
(522,710,l),
(437,710,l),
(348,247,ls),
(340,203,o),
(321,159,o),
(293,127,cs),
(264,94,o),
(224,72,o),
(175,72,cs),
(147,72,o),
(126,84,o),
(110,102,cs),
(94,120,o),
(84,143,o),
(76,167,c)
);
}
);
width = 526;
},
{
layerId = "F5CD80C0-3A8F-48DC-9182-C71904D0895A";
shapes = (
{
closed = 1;
nodes = (
(-4,93,l),
(8,65,o),
(30,40,o),
(57,23,cs),
(84,6,o),
(114,-5,o),
(145,-5,cs),
(210,-5,o),
(265,18,o),
(306,55,cs),
(346,92,o),
(374,146,o),
(386,207,cs),
(485,710,l),
(465,710,l),
(368,217,ls),
(357,161,o),
(332,110,o),
(296,74,cs),
(259,37,o),
(209,14,o),
(149,14,cs),
(121,14,o),
(93,23,o),
(70,39,c),
(46,54,o),
(26,77,o),
(14,102,c)
);
}
);
width = 503;
}
);
leftKerningGroup = J2;
rightKerningGroup = J;
unicode = 74;
},
{
glyphname = K;
layers = (
{
layerId = "089F0C00-674C-4F2E-8375-778CCED9E96B";
shapes = (
{
closed = 1;
nodes = (
(-3,0,l),
(192,0,l),
(236,205,l),
(292,261,l),
(396,0,l),
(621,0,l),
(444,392,l),
(755,710,l),
(534,710,l),
(286,440,l),
(343,710,l),
(148,710,l)
);
}
);
width = 665;
},
{
layerId = "D56C188B-E5B2-4235-B802-3B7EEA6FD951";
shapes = (
{
closed = 1;
nodes = (
(8,0,l),
(153,0,l),
(198,211,l),
(294,301,l),
(429,0,l),
(594,0,l),
(406,394,l),
(729,710,l),
(567,710,l),
(234,381,l),
(304,710,l),
(159,710,l)
);
}
);
width = 646;
},
{
layerId = "C7C3A33C-E883-49F1-BDC1-C605A621ADB5";
shapes = (
{
closed = 1;
nodes = (
(20,0,l),
(110,0,l),
(156,217,l),
(297,345,l),
(465,0,l),
(564,0,l),
(364,397,l),
(700,710,l),
(602,710,l),
(177,317,l),
(261,709,l),
(171,709,l)
);
}
);
width = 625;
},
{
layerId = "F5CD80C0-3A8F-48DC-9182-C71904D0895A";
shapes = (
{
closed = 1;
nodes = (
(33,0,l),
(53,0,l),
(100,221,l),
(291,387,l),
(499,0,l),
(523,0,l),
(307,400,l),
(661,710,l),
(632,710,l),
(106,249,l),
(204,709,l),
(184,709,l)
);
}
);
width = 591;
}
);
leftKerningGroup = B;
rightKerningGroup = K;
unicode = 75;
},
{
glyphname = L;
layers = (
{
layerId = "089F0C00-674C-4F2E-8375-778CCED9E96B";
shapes = (
{
closed = 1;
nodes = (
(-3,0,l),
(491,0,l),
(527,170,l),
(228,170,l),
(343,710,l),
(148,710,l)
);
}
);
width = 564;
},
{
layerId = "D56C188B-E5B2-4235-B802-3B7EEA6FD951";
shapes = (
{
closed = 1;
nodes = (
(8,0,l),
(487,0,l),
(514,127,l),
(180,127,l),
(304,710,l),
(159,710,l)
);
}
);
width = 562;
},
{
layerId = "C7C3A33C-E883-49F1-BDC1-C605A621ADB5";
shapes = (
{
closed = 1;
nodes = (
(20,0,l),
(483,0,l),
(500,80,l),
(127,80,l),
(261,710,l),
(171,710,l)
);
}
);
width = 559;
},
{
layerId = "F5CD80C0-3A8F-48DC-9182-C71904D0895A";
shapes = (
{
closed = 1;
nodes = (
(33,0,l),
(476,0,l),
(480,20,l),
(57,20,l),
(204,710,l),
(184,710,l)
);
}
);
width = 552;
}
);
leftKerningGroup = B;
rightKerningGroup = L;
unicode = 76;
},
{
glyphname = M;
layers = (
{
layerId = "089F0C00-674C-4F2E-8375-778CCED9E96B";
shapes = (
{
closed = 1;
nodes = (
(-3,0,l),
(192,0,l),
(272,374,l),
(318,111,l),
(421,111,l),
(579,374,l),
(500,0,l),
(695,0,l),
(846,710,l),
(634,710,l),
(426,376,l),
(361,710,l),
(148,710,l)
);
}
);
width = 820;
},
{
layerId = "D56C188B-E5B2-4235-B802-3B7EEA6FD951";
shapes = (
{
closed = 1;
nodes = (
(8,0,l),
(153,0,l),
(250,458,l),
(337,119,l),
(415,119,l),
(645,458,l),
(548,0,l),
(693,0,l),
(844,710,l),
(688,710,l),
(417,315,l),
(315,710,l),
(159,710,l)
);
}
);
width = 829;
},
{
layerId = "C7C3A33C-E883-49F1-BDC1-C605A621ADB5";
shapes = (
{
closed = 1;
nodes = (
(20,0,l),
(110,0,l),
(227,549,l),
(357,128,l),
(408,128,l),
(717,549,l),
(600,0,l),
(690,0,l),
(841,710,l),
(747,710,l),
(408,249,l),
(266,710,l),
(171,710,l)
);
}
);
width = 838;
},
{
layerId = "F5CD80C0-3A8F-48DC-9182-C71904D0895A";
shapes = (
{
closed = 1;
nodes = (
(33,0,l),
(53,0,l),
(195,666,l),
(381,140,l),
(397,140,l),
(806,666,l),
(665,0,l),
(685,0,l),
(836,710,l),
(820,710,l),
(394,164,l),
(200,710,l),
(184,710,l)
);
}
);
width = 846;
}
);
leftKerningGroup = B;
rightKerningGroup = H;
unicode = 77;
},
{
glyphname = N;
layers = (
{
layerId = "089F0C00-674C-4F2E-8375-778CCED9E96B";
shapes = (
{
closed = 1;
nodes = (
(-3,0,l),
(192,0,l),
(266,349,l),
(446,0,l),
(600,0,l),
(751,710,l),
(556,710,l),
(480,349,l),
(300,710,l),
(148,710,l)
);
}
);
width = 725;
},
{
layerId = "D56C188B-E5B2-4235-B802-3B7EEA6FD951";
shapes = (
{
closed = 1;
nodes = (
(8,0,l),
(153,0,l),
(246,442,l),
(480,0,l),
(596,0,l),
(747,710,l),
(602,710,l),
(506,257,l),
(272,710,l),
(159,710,l)
);
}
);
width = 732;
},
{
layerId = "C7C3A33C-E883-49F1-BDC1-C605A621ADB5";
shapes = (
{
closed = 1;
nodes = (
(20,0,l),
(110,0,l),
(225,542,l),
(516,0,l),
(591,0,l),
(742,709,l),
(652,709,l),
(535,157,l),
(241,710,l),
(171,710,l)
);
}
);
width = 739;
},
{
layerId = "F5CD80C0-3A8F-48DC-9182-C71904D0895A";
shapes = (
{
closed = 1;
nodes = (
(33,0,l),
(53,0,l),
(196,671,l),
(560,0,l),
(582,0,l),
(733,709,l),
(713,709,l),
(569,29,l),
(199,710,l),
(184,710,l)
);
}
);
width = 743;
}
);
leftKerningGroup = B;
rightKerningGroup = H;
unicode = 78;
},
{
glyphname = O;
leftMetricsKey = "=29";
widthMetricsKey = "=776";
layers = (
{
layerId = "089F0C00-674C-4F2E-8375-778CCED9E96B";
shapes = (
{
closed = 1;
nodes = (
(589,-5,o),
(785,188,o),
(785,412,cs),
(785,603,o),
(639,715,o),
(455,715,cs),
(234,715,o),
(39,531,o),
(39,307,cs),
(39,118,o),
(183,-5,o),
(367,-5,cs)
);
},
{
closed = 1;
nodes = (
(229,441,o),
(328,551,o),
(446,551,cs),
(540,551,o),
(595,487,o),
(595,395,cs),
(595,283,o),
(512,159,o),
(391,159,cs),
(295,159,o),
(229,230,o),
(229,325,cs)
);
}
);
width = 776;
},
{
layerId = "D56C188B-E5B2-4235-B802-3B7EEA6FD951";
shapes = (
{
closed = 1;
nodes = (
(575,-5,o),
(767,191,o),
(767,413,cs),
(767,599,o),
(628,715,o),
(448,715,cs),
(224,715,o),
(33,527,o),
(33,302,cs),
(33,116,o),
(169,-5,o),
(352,-5,cs)
);
},
{
closed = 1;
nodes = (
(176,456,o),
(290,590,o),
(434,590,cs),
(548,590,o),
(621,509,o),
(621,397,cs),
(621,258,o),
(510,120,o),
(366,120,cs),
(250,120,o),
(176,204,o),
(176,317,cs)
);
}
);
width = 766;
},
{
layerId = "C7C3A33C-E883-49F1-BDC1-C605A621ADB5";
shapes = (
{
closed = 1;
nodes = (
(569,-5,o),
(754,193,o),
(754,414,cs),
(754,597,o),
(622,715,o),
(442,715,cs),
(217,715,o),
(34,519,o),
(34,297,cs),
(34,112,o),
(163,-5,o),
(345,-5,cs)
);
},
{
closed = 1;
nodes = (
(127,470,o),
(256,632,o),
(427,632,cs),
(564,632,o),
(659,534,o),
(659,398,cs),
(659,232,o),
(516,79,o),
(348,79,cs),
(212,79,o),
(127,172,o),
(127,305,cs)
);
}
);
width = 755;
},
{
layerId = "F5CD80C0-3A8F-48DC-9182-C71904D0895A";
shapes = (
{
closed = 1;
nodes = (
(563,-5,o),
(743,196,o),
(743,415,cs),
(743,595,o),
(617,715,o),
(439,715,cs),
(213,715,o),
(34,515,o),
(34,294,cs),
(34,111,o),
(158,-5,o),
(339,-5,cs)
);
},
{
closed = 1;
nodes = (
(56,499,o),
(219,693,o),
(431,693,cs),
(600,693,o),
(721,586,o),
(721,413,cs),
(721,201,o),
(553,16,o),
(337,16,cs),
(168,16,o),
(56,125,o),
(56,295,cs)
);
}
);
width = 746;
}
);
leftKerningGroup = C2;
rightKerningGroup = O;
unicode = 79;
},
{
glyphname = P;
layers = (
{
layerId = "089F0C00-674C-4F2E-8375-778CCED9E96B";
shapes = (
{
closed = 1;
nodes = (
(-3,0,l),
(192,0,l),
(238,218,l),
(340,218,ls),
(417,218,o),
(487,256,o),
(539,310,cs),
(590,364,o),
(622,436,o),
(622,505,cs),
(622,557,o),
(605,609,o),
(574,647,cs),
(542,685,o),
(497,710,o),
(440,710,cs),
(148,710,l)
);
},
{
closed = 1;
nodes = (
(275,388,l),
(307,540,l),
(390,540,ls),
(398,540,o),
(406,537,o),
(412,529,cs),
(418,521,o),
(422,509,o),
(422,489,cs),
(422,454,o),
(413,429,o),
(402,413,cs),
(390,396,o),
(375,388,o),
(363,388,cs)
);
}
);
width = 602;
},
{
layerId = "D56C188B-E5B2-4235-B802-3B7EEA6FD951";
shapes = (
{
closed = 1;
nodes = (
(8,0,l),
(153,0,l),
(202,236,l),
(350,236,ls),
(423,236,o),
(490,272,o),
(539,324,cs),
(588,376,o),
(619,446,o),
(619,513,cs),
(619,564,o),
(603,613,o),
(573,649,cs),
(543,685,o),
(501,710,o),
(446,710,cs),
(159,710,l)
);
},
{
closed = 1;
nodes = (
(230,363,l),
(277,583,l),
(409,583,ls),
(426,583,o),
(441,576,o),
(453,562,cs),
(464,548,o),
(470,528,o),
(470,501,cs),
(470,461,o),
(458,426,o),
(439,402,cs),
(419,377,o),
(393,363,o),
(368,363,cs)
);
}
);
width = 602;
},
{
layerId = "C7C3A33C-E883-49F1-BDC1-C605A621ADB5";
shapes = (
{
closed = 1;
nodes = (
(20,0,l),
(110,0,l),
(164,255,l),
(361,255,ls),
(430,255,o),
(494,289,o),
(540,340,cs),
(586,391,o),
(615,458,o),
(615,522,cs),
(615,570,o),
(600,617,o),
(572,652,cs),
(544,687,o),
(504,710,o),
(453,710,cs),
(171,710,l)
);
},
{
closed = 1;
nodes = (
(181,335,l),
(244,630,l),
(430,630,ls),
(457,630,o),
(480,618,o),
(497,598,c),
(513,577,o),
(523,547,o),
(523,514,cs),
(523,469,o),
(506,423,o),
(479,390,cs),
(451,357,o),
(413,335,o),
(373,335,cs)
);
}
);
width = 601;
},
{
layerId = "F5CD80C0-3A8F-48DC-9182-C71904D0895A";
shapes = (
{
closed = 1;
nodes = (
(33,0,l),
(53,0,l),
(112,279,l),
(374,279,ls),
(437,279,o),
(495,312,o),
(538,360,cs),
(581,408,o),
(608,473,o),
(608,534,cs),
(608,578,o),
(594,623,o),
(568,656,cs),
(542,688,o),
(503,710,o),
(452,710,cs),
(184,710,l)
);
},
{
closed = 1;
nodes = (
(117,299,l),
(200,690,l),
(454,690,ls),
(494,690,o),
(528,672,o),
(552,644,cs),
(575,616,o),
(588,577,o),
(588,536,cs),
(588,481,o),
(566,423,o),
(528,377,cs),
(490,331,o),
(437,299,o),
(378,299,cs)
);
}
);
width = 595;
}
);
leftKerningGroup = B;
unicode = 80;
},
{
glyphname = Q;
layers = (
{
layerId = "089F0C00-674C-4F2E-8375-778CCED9E96B";
shapes = (
{
closed = 1;
nodes = (
(537,-46,l),
(665,63,l),
(471,344,l),
(340,238,l)
);
},
{
alignment = -1;
ref = O;
}
);
width = 776;
},
{
layerId = "D56C188B-E5B2-4235-B802-3B7EEA6FD951";
shapes = (
{
closed = 1;
nodes = (
(566,-32,l),
(665,52,l),
(462,329,l),
(361,247,l)
);
},
{
alignment = -1;
ref = O;
}
);
width = 766;
},
{
layerId = "C7C3A33C-E883-49F1-BDC1-C605A621ADB5";
shapes = (
{
closed = 1;
nodes = (
(597,-16,l),
(665,41,l),
(451,313,l),
(383,256,l)
);
},
{
alignment = -1;
ref = O;
}
);
width = 755;
},
{
layerId = "F5CD80C0-3A8F-48DC-9182-C71904D0895A";
shapes = (
{
closed = 1;
nodes = (
(626,-7,l),
(643,7,l),
(429,285,l),
(412,271,l)
);
},
{
alignment = -1;
ref = O;
}
);
width = 750;
}
);
leftKerningGroup = C2;
rightKerningGroup = O;
unicode = 81;
},
{
glyphname = R;
layers = (
{
layerId = "089F0C00-674C-4F2E-8375-778CCED9E96B";
shapes = (
{
closed = 1;
nodes = (
(192,0,l),
(238,218,l),
(297,218,l),
(366,0,l),
(586,0,l),
(501,261,l),
(544,289,o),
(579,326,o),
(604,369,cs),
(628,412,o),
(642,458,o),
(642,505,cs),
(642,557,o),
(625,609,o),
(594,647,cs),
(563,685,o),
(517,710,o),
(460,710,cs),
(148,710,l),
(-3,0,l)
);
},
{
closed = 1;
nodes = (
(275,388,l),
(307,540,l),
(410,540,ls),
(418,540,o),
(426,535,o),
(432,526,cs),
(438,517,o),
(441,502,o),
(441,485,cs),
(441,457,o),
(432,432,o),
(420,415,cs),
(408,398,o),
(394,388,o),
(383,388,cs)
);
}
);
width = 653;
},
{
layerId = "D56C188B-E5B2-4235-B802-3B7EEA6FD951";
shapes = (
{
closed = 1;
nodes = (
(153,0,l),
(202,236,l),
(317,236,l),
(400,0,l),
(563,0,l),
(468,266,l),
(516,287,o),
(557,324,o),
(586,368,cs),
(615,411,o),
(633,462,o),
(633,513,cs),
(633,564,o),
(616,613,o),
(587,649,cs),
(558,685,o),
(515,710,o),
(460,710,cs),
(159,710,l),
(8,0,l)
);
},
{
closed = 1;
nodes = (
(230,363,l),
(277,583,l),
(424,583,ls),
(441,583,o),
(455,574,o),
(466,559,cs),
(477,544,o),
(484,522,o),
(484,498,cs),
(484,462,o),
(471,428,o),
(452,404,cs),
(432,379,o),
(407,363,o),
(383,363,cs)
);
}
);
width = 643;
},
{
layerId = "C7C3A33C-E883-49F1-BDC1-C605A621ADB5";
shapes = (
{
closed = 1;
nodes = (
(110,0,l),
(164,255,l),
(338,255,l),
(436,0,l),
(538,0,l),
(433,272,l),
(486,285,o),
(534,321,o),
(568,366,cs),
(602,410,o),
(623,466,o),
(623,522,cs),
(623,570,o),
(608,617,o),
(580,652,cs),
(552,687,o),
(512,710,o),
(461,710,cs),
(171,710,l),
(20,0,l)
);
},
{
closed = 1;
nodes = (
(181,335,l),
(244,630,l),
(439,630,ls),
(466,630,o),
(488,616,o),
(504,595,cs),
(520,574,o),
(530,544,o),
(530,512,cs),
(530,468,o),
(513,424,o),
(486,391,cs),
(459,358,o),
(422,335,o),
(382,335,cs)
);
}
);
width = 633;
},
{
layerId = "F5CD80C0-3A8F-48DC-9182-C71904D0895A";
shapes = (
{
closed = 1;
nodes = (
(53,0,l),
(112,279,l),
(362,279,l),
(473,0,l),
(497,0,l),
(386,279,l),
(446,283,o),
(502,316,o),
(542,364,cs),
(582,411,o),
(608,472,o),
(608,533,cs),
(608,578,o),
(594,623,o),
(569,656,cs),
(544,688,o),
(506,710,o),
(459,710,cs),
(184,710,l),
(33,0,l)
);
},
{
closed = 1;
nodes = (
(117,299,l),
(200,690,l),
(454,690,ls),
(494,690,o),
(528,671,o),
(552,642,cs),
(575,613,o),
(588,573,o),
(588,530,cs),
(588,477,o),
(565,418,o),
(527,374,cs),
(489,330,o),
(437,299,o),
(378,299,cs)
);
}
);
width = 616;
}
);
leftKerningGroup = B;
rightKerningGroup = R;
unicode = 82;
},
{
glyphname = S;
layers = (
{
anchors = (
{
name = bottom;
position = "{245, 0}";
}
);
layerId = "089F0C00-674C-4F2E-8375-778CCED9E96B";
shapes = (
{
closed = 1;
nodes = (
(317,-9,o),
(395,8,o),
(455,51,cs),
(515,94,o),
(557,161,o),
(557,262,cs),
(557,311,o),
(541,346,o),
(513,373,cs),
(484,400,o),
(444,420,o),
(396,437,cs),
(364,449,o),
(338,457,o),
(319,466,cs),
(300,475,o),
(290,485,o),
(290,501,cs),
(290,516,o),
(296,526,o),
(306,533,cs),
(316,540,o),
(328,543,o),
(343,543,cs),
(383,543,o),
(425,527,o),
(457,511,c),
(488,494,o),
(510,478,o),
(507,478,c),
(625,639,l),
(598,655,o),
(563,674,o),
(523,690,c),
(482,705,o),
(435,716,o),
(386,716,cs),
(310,716,o),
(233,690,o),
(174,642,cs),
(115,594,o),
(76,523,o),
(76,434,cs),
(76,397,o),
(87,365,o),
(109,340,cs),
(131,315,o),
(163,294,o),
(207,277,cs),
(240,264,o),
(273,255,o),
(297,244,cs),
(321,233,o),
(337,223,o),
(337,204,cs),
(337,195,o),
(335,186,o),
(328,179,cs),
(320,171,o),
(308,167,o),
(285,167,cs),
(233,167,o),
(182,186,o),
(146,206,cs),
(109,226,o),
(86,245,o),
(87,245,c),
(-33,74,l),
(3,49,o),
(48,29,o),
(96,14,cs),
(144,-1,o),
(196,-9,o),
(245,-9,cs)
);
}
);
width = 596;
},
{
anchors = (
{
name = bottom;
position = "{244, 0}";
}
);
layerId = "D56C188B-E5B2-4235-B802-3B7EEA6FD951";
shapes = (
{
closed = 1;
nodes = (
(319,-8,o),
(395,10,o),
(452,51,cs),
(508,92,o),
(546,155,o),
(546,246,cs),
(546,295,o),
(530,330,o),
(499,356,cs),
(468,382,o),
(424,400,o),
(372,416,cs),
(332,428,o),
(300,438,o),
(278,451,cs),
(256,463,o),
(244,477,o),
(244,500,cs),
(244,527,o),
(254,548,o),
(273,563,cs),
(292,578,o),
(320,587,o),
(356,587,cs),
(396,587,o),
(436,575,o),
(466,559,cs),
(496,543,o),
(518,527,o),
(521,518,c),
(610,637,l),
(586,656,o),
(554,676,o),
(516,691,cs),
(478,706,o),
(435,716,o),
(387,716,cs),
(310,716,o),
(234,690,o),
(178,646,cs),
(122,601,o),
(86,534,o),
(86,451,cs),
(86,411,o),
(99,380,o),
(124,356,cs),
(149,331,o),
(187,313,o),
(236,297,cs),
(279,284,o),
(315,273,o),
(342,259,cs),
(369,245,o),
(384,227,o),
(384,203,cs),
(384,179,o),
(375,159,o),
(357,145,cs),
(339,131,o),
(312,122,o),
(273,122,cs),
(221,122,o),
(173,138,o),
(137,158,c),
(100,177,o),
(75,197,o),
(68,209,c),
(-23,83,l),
(10,55,o),
(52,32,o),
(98,16,cs),
(144,0,o),
(193,-8,o),
(244,-8,cs)
);
}
);
width = 592;
},
{
anchors = (
{
name = bottom;
position = "{243, 0}";
}
);
layerId = "C7C3A33C-E883-49F1-BDC1-C605A621ADB5";
shapes = (
{
closed = 1;
nodes = (
(322,-7,o),
(395,12,o),
(448,51,cs),
(501,90,o),
(535,149,o),
(535,229,cs),
(535,278,o),
(516,312,o),
(484,337,cs),
(451,362,o),
(403,379,o),
(346,394,cs),
(297,406,o),
(258,418,o),
(233,434,cs),
(208,449,o),
(195,469,o),
(195,498,cs),
(195,538,o),
(209,572,o),
(238,596,cs),
(266,620,o),
(310,635,o),
(370,635,cs),
(410,635,o),
(447,626,o),
(476,612,cs),
(504,598,o),
(526,580,o),
(537,561,c),
(594,634,l),
(571,658,o),
(543,679,o),
(508,693,cs),
(473,707,o),
(434,715,o),
(389,715,cs),
(309,715,o),
(235,692,o),
(182,650,cs),
(129,608,o),
(96,546,o),
(96,469,cs),
(96,426,o),
(112,396,o),
(141,373,cs),
(170,349,o),
(213,333,o),
(268,318,cs),
(320,305,o),
(362,292,o),
(391,274,cs),
(419,256,o),
(435,233,o),
(435,201,cs),
(435,161,o),
(419,130,o),
(389,108,cs),
(359,86,o),
(316,74,o),
(261,74,cs),
(209,74,o),
(163,87,o),
(127,105,cs),
(90,123,o),
(62,146,o),
(47,169,c),
(-12,93,l),
(19,61,o),
(56,35,o),
(100,19,c),
(143,2,o),
(190,-7,o),
(242,-7,cs)
);
}
);
width = 588;
},
{
anchors = (
{
name = bottom;
position = "{244, -5}";
}
);
layerId = "F5CD80C0-3A8F-48DC-9182-C71904D0895A";
shapes = (
{
closed = 1;
nodes = (
(323,-5,o),
(391,12,o),
(440,46,cs),
(489,80,o),
(518,132,o),
(518,201,cs),
(518,254,o),
(502,286,o),
(467,310,cs),
(432,333,o),
(380,348,o),
(309,365,cs),
(246,381,o),
(201,392,o),
(171,411,cs),
(141,430,o),
(127,455,o),
(127,498,cs),
(127,551,o),
(149,601,o),
(192,637,cs),
(235,673,o),
(297,696,o),
(380,696,cs),
(420,696,o),
(452,691,o),
(481,679,c),
(509,666,o),
(533,645,o),
(554,616,c),
(570,630,l),
(549,659,o),
(523,681,o),
(492,695,cs),
(460,709,o),
(423,715,o),
(378,715,cs),
(297,715,o),
(229,693,o),
(181,654,cs),
(133,615,o),
(106,561,o),
(106,496,cs),
(106,444,o),
(124,414,o),
(158,394,cs),
(192,373,o),
(241,362,o),
(305,346,cs),
(369,330,o),
(417,316,o),
(449,296,cs),
(481,275,o),
(497,246,o),
(497,199,cs),
(497,140,o),
(472,94,o),
(429,62,cs),
(385,30,o),
(323,13,o),
(248,13,cs),
(192,13,o),
(148,23,o),
(111,41,cs),
(74,59,o),
(43,85,o),
(15,118,c),
(-1,105,l),
(31,68,o),
(64,40,o),
(104,22,cs),
(143,4,o),
(188,-5,o),
(244,-5,cs)
);
}
);
width = 579;
}
);
leftKerningGroup = S2;
rightKerningGroup = S;
unicode = 83;
},
{
glyphname = T;
layers = (
{
layerId = "089F0C00-674C-4F2E-8375-778CCED9E96B";
shapes = (
{
closed = 1;
nodes = (
(139,0,l),
(334,0,l),
(449,540,l),
(639,540,l),
(675,710,l),
(99,710,l),
(63,540,l),
(254,540,l)
);
}
);
width = 600;
},
{
layerId = "D56C188B-E5B2-4235-B802-3B7EEA6FD951";
shapes = (
{
closed = 1;
nodes = (
(160,0,l),
(305,0,l),
(429,583,l),
(639,583,l),
(665,710,l),
(101,710,l),
(74,583,l),
(284,583,l)
);
}
);
width = 593;
},
{
layerId = "C7C3A33C-E883-49F1-BDC1-C605A621ADB5";
shapes = (
{
closed = 1;
nodes = (
(183,0,l),
(273,0,l),
(407,630,l),
(638,630,l),
(655,710,l),
(103,710,l),
(86,630,l),
(317,630,l)
);
}
);
width = 586;
},
{
layerId = "F5CD80C0-3A8F-48DC-9182-C71904D0895A";
shapes = (
{
closed = 1;
nodes = (
(209,0,l),
(229,0,l),
(376,690,l),
(634,690,l),
(638,710,l),
(102,710,l),
(98,690,l),
(356,690,l)
);
}
);
width = 574;
}
);
leftKerningGroup = T2;
rightKerningGroup = T;
unicode = 84;
},
{
glyphname = U;
layers = (
{
layerId = "089F0C00-674C-4F2E-8375-778CCED9E96B";
shapes = (
{
closed = 1;
nodes = (
(395,-6,o),
(480,32,o),
(544,96,cs),
(608,159,o),
(651,246,o),
(672,345,cs),
(750,710,l),
(555,710,l),
(477,345,ls),
(468,300,o),
(450,254,o),
(425,222,cs),
(400,189,o),
(368,167,o),
(328,167,cs),
(299,167,o),
(279,178,o),
(266,198,cs),
(253,217,o),
(247,243,o),
(247,274,cs),
(247,297,o),
(250,320,o),
(255,345,cs),
(333,710,l),
(138,710,l),
(60,345,ls),
(52,308,o),
(48,273,o),
(48,238,cs),
(48,169,o),
(65,108,o),
(105,64,cs),
(144,20,o),
(204,-6,o),
(291,-6,cs)
);
}
);
width = 713;
},
{
layerId = "D56C188B-E5B2-4235-B802-3B7EEA6FD951";
shapes = (
{
closed = 1;
nodes = (
(398,-6,o),
(480,34,o),
(543,98,cs),
(606,162,o),
(646,251,o),
(667,348,cs),
(744,710,l),
(599,710,l),
(522,348,ls),
(510,292,o),
(488,234,o),
(456,193,cs),
(423,152,o),
(380,123,o),
(321,123,cs),
(280,123,o),
(251,138,o),
(233,163,cs),
(215,188,o),
(207,222,o),
(207,261,cs),
(207,289,o),
(210,317,o),
(217,348,cs),
(294,710,l),
(149,710,l),
(72,348,ls),
(64,308,o),
(59,272,o),
(59,235,cs),
(59,168,o),
(76,108,o),
(113,64,cs),
(150,20,o),
(209,-6,o),
(294,-6,cs)
);
}
);
width = 719;
},
{
layerId = "C7C3A33C-E883-49F1-BDC1-C605A621ADB5";
shapes = (
{
closed = 1;
nodes = (
(402,-5,o),
(482,36,o),
(542,101,cs),
(602,166,o),
(641,255,o),
(661,351,cs),
(737,710,l),
(647,710,l),
(571,351,ls),
(556,283,o),
(530,214,o),
(489,163,cs),
(448,111,o),
(391,76,o),
(314,76,cs),
(258,76,o),
(220,94,o),
(196,126,cs),
(172,157,o),
(163,199,o),
(163,247,cs),
(163,280,o),
(167,315,o),
(175,351,cs),
(251,710,l),
(161,710,l),
(85,351,ls),
(76,310,o),
(71,271,o),
(71,232,cs),
(71,167,o),
(86,107,o),
(122,64,cs),
(158,21,o),
(214,-5,o),
(298,-5,cs)
);
}
);
width = 725;
},
{
layerId = "F5CD80C0-3A8F-48DC-9182-C71904D0895A";
shapes = (
{
closed = 1;
nodes = (
(402,-5,o),
(480,38,o),
(537,104,cs),
(593,170,o),
(630,259,o),
(650,355,cs),
(725,710,l),
(705,710,l),
(630,355,ls),
(613,274,o),
(580,188,o),
(527,124,cs),
(474,59,o),
(399,15,o),
(298,15,cs),
(223,15,o),
(175,38,o),
(145,77,cs),
(115,116,o),
(103,169,o),
(103,228,cs),
(103,271,o),
(109,312,o),
(118,355,cs),
(193,710,l),
(173,710,l),
(98,355,ls),
(89,311,o),
(83,268,o),
(83,225,cs),
(83,162,o),
(97,105,o),
(130,63,cs),
(163,21,o),
(217,-5,o),
(298,-5,cs)
);
}
);
width = 723;
}
);
leftKerningGroup = U2;
rightKerningGroup = U;
unicode = 85;
},
{
glyphname = V;
layers = (
{
layerId = "089F0C00-674C-4F2E-8375-778CCED9E96B";
shapes = (
{
closed = 1;
nodes = (
(173,0,l),
(335,0,l),
(731,710,l),
(526,710,l),
(306,245,l),
(282,710,l),
(76,710,l)
);
}
);
width = 641;
},
{
layerId = "D56C188B-E5B2-4235-B802-3B7EEA6FD951";
shapes = (
{
closed = 1;
nodes = (
(195,0,l),
(317,0,l),
(727,710,l),
(574,710,l),
(294,182,l),
(238,710,l),
(85,710,l)
);
}
);
width = 645;
},
{
layerId = "C7C3A33C-E883-49F1-BDC1-C605A621ADB5";
shapes = (
{
closed = 1;
nodes = (
(219,0,l),
(297,0,l),
(722,710,l),
(627,710,l),
(282,113,l),
(190,710,l),
(95,710,l)
);
}
);
width = 650;
},
{
layerId = "F5CD80C0-3A8F-48DC-9182-C71904D0895A";
shapes = (
{
closed = 1;
nodes = (
(243,0,l),
(265,0,l),
(709,710,l),
(687,710,l),
(260,25,l),
(122,710,l),
(101,710,l)
);
}
);
width = 644;
}
);
unicode = 86;
},
{
glyphname = W;
layers = (
{
anchors = (
{
name = top;
position = "{589, 710}";
}
);
layerId = "089F0C00-674C-4F2E-8375-778CCED9E96B";
shapes = (
{
closed = 1;
nodes = (
(926,710,l),
(720,274,l),
(674,650,l),
(499,650,l),
(296,272,l),
(273,710,l),
(91,710,l),
(137,0,l),
(305,0,l),
(538,422,l),
(594,0,l),
(761,0,l),
(1110,710,l)
);
}
);
width = 1027;
},
{
anchors = (
{
name = top;
position = "{586, 710}";
}
);
layerId = "C7C3A33C-E883-49F1-BDC1-C605A621ADB5";
shapes = (
{
closed = 1;
nodes = (
(951,710,l),
(662,124,l),
(595,650,l),
(512,650,l),
(227,125,l),
(188,710,l),
(103,710,l),
(157,0,l),
(237,0,l),
(533,538,l),
(605,0,l),
(684,0,l),
(1037,710,l)
);
}
);
width = 967;
},
{
anchors = (
{
name = top;
position = "{527, 710}";
}
);
layerId = "F5CD80C0-3A8F-48DC-9182-C71904D0895A";
shapes = (
{
closed = 1;
nodes = (
(967,710,l),
(626,30,l),
(545,650,l),
(522,650,l),
(186,31,l),
(136,710,l),
(113,710,l),
(168,0,l),
(192,0,l),
(527,611,l),
(609,0,l),
(632,0,l),
(989,710,l)
);
}
);
width = 929;
},
{
anchors = (
{
name = top;
position = "{583, 710}";
}
);
layerId = "D56C188B-E5B2-4235-B802-3B7EEA6FD951";
shapes = (
{
closed = 1;
nodes = (
(939,710,l),
(687,192,l),
(631,650,l),
(506,650,l),
(256,191,l),
(226,710,l),
(97,710,l),
(147,0,l),
(268,0,l),
(536,486,l),
(600,0,l),
(719,0,l),
(1070,710,l)
);
}
);
width = 994;
}
);
leftKerningGroup = W2;
rightKerningGroup = W;
unicode = 87;
},
{
glyphname = X;
layers = (
{
layerId = "089F0C00-674C-4F2E-8375-778CCED9E96B";
shapes = (
{
closed = 1;
nodes = (
(-66,0,l),
(145,0,l),
(297,214,l),
(358,0,l),
(568,0,l),
(428,350,l),
(727,710,l),
(517,710,l),
(355,486,l),
(288,710,l),
(77,710,l),
(223,350,l)
);
}
);
width = 631;
},
{
layerId = "D56C188B-E5B2-4235-B802-3B7EEA6FD951";
shapes = (
{
closed = 1;
nodes = (
(-59,0,l),
(98,0,l),
(299,249,l),
(395,0,l),
(552,0,l),
(397,350,l),
(711,710,l),
(554,710,l),
(343,451,l),
(241,710,l),
(84,710,l),
(244,350,l)
);
}
);
width = 621;
},
{
layerId = "C7C3A33C-E883-49F1-BDC1-C605A621ADB5";
shapes = (
{
closed = 1;
nodes = (
(-52,0,l),
(48,0,l),
(302,286,l),
(435,0,l),
(534,0,l),
(364,350,l),
(693,710,l),
(594,710,l),
(330,414,l),
(191,710,l),
(91,710,l),
(267,350,l)
);
}
);
width = 610;
},
{
layerId = "F5CD80C0-3A8F-48DC-9182-C71904D0895A";
shapes = (
{
closed = 1;
nodes = (
(-47,0,l),
(-21,0,l),
(302,334,l),
(482,0,l),
(507,0,l),
(317,350,l),
(666,710,l),
(641,710,l),
(308,366,l),
(122,710,l),
(96,710,l),
(292,350,l)
);
}
);
width = 588;
}
);
unicode = 88;
},
{
glyphname = Y;
layers = (
{
layerId = "089F0C00-674C-4F2E-8375-778CCED9E96B";
shapes = (
{
closed = 1;
nodes = (
(147,0,l),
(341,0,l),
(391,235,l),
(723,710,l),
(511,710,l),
(330,403,l),
(283,710,l),
(72,710,l),
(198,237,l)
);
}
);
width = 627;
},
{
layerId = "D56C188B-E5B2-4235-B802-3B7EEA6FD951";
shapes = (
{
closed = 1;
nodes = (
(169,0,l),
(313,0,l),
(365,247,l),
(707,710,l),
(549,710,l),
(320,373,l),
(237,710,l),
(80,710,l),
(222,249,l)
);
}
);
width = 620;
},
{
layerId = "C7C3A33C-E883-49F1-BDC1-C605A621ADB5";
shapes = (
{
closed = 1;
nodes = (
(192,0,l),
(282,0,l),
(337,259,l),
(689,710,l),
(591,710,l),
(310,340,l),
(188,710,l),
(89,710,l),
(248,261,l)
);
}
);
width = 612;
},
{
layerId = "F5CD80C0-3A8F-48DC-9182-C71904D0895A";
shapes = (
{
closed = 1;
nodes = (
(218,0,l),
(238,0,l),
(297,275,l),
(663,710,l),
(640,710,l),
(292,298,l),
(120,710,l),
(97,710,l),
(277,277,l)
);
}
);
width = 594;
}
);
leftKerningGroup = Y2;
rightKerningGroup = Y;
unicode = 89;
},
{
glyphname = Z;
layers = (
{
layerId = "089F0C00-674C-4F2E-8375-778CCED9E96B";
shapes = (
{
closed = 1;
nodes = (
(-37,0,l),
(498,0,l),
(534,170,l),
(244,170,l),
(612,565,l),
(643,710,l),
(129,710,l),
(93,540,l),
(381,540,l),
(-6,145,l)
);
}
);
width = 593;
},
{
layerId = "D56C188B-E5B2-4235-B802-3B7EEA6FD951";
shapes = (
{
closed = 1;
nodes = (
(-36,0,l),
(499,0,l),
(526,127,l),
(173,127,l),
(624,601,l),
(647,710,l),
(128,710,l),
(101,583,l),
(453,583,l),
(-12,109,l)
);
}
);
width = 596;
},
{
layerId = "C7C3A33C-E883-49F1-BDC1-C605A621ADB5";
shapes = (
{
closed = 1;
nodes = (
(-34,0,l),
(501,0,l),
(518,80,l),
(96,80,l),
(637,640,l),
(652,710,l),
(126,710,l),
(109,630,l),
(530,630,l),
(-19,70,l)
);
}
);
width = 600;
},
{
layerId = "F5CD80C0-3A8F-48DC-9182-C71904D0895A";
shapes = (
{
closed = 1;
nodes = (
(-40,0,l),
(495,0,l),
(499,20,l),
(-11,20,l),
(645,690,l),
(650,710,l),
(116,710,l),
(111,690,l),
(620,690,l),
(-36,20,l)
);
}
);
width = 587;
}
);
leftKerningGroup = Z2;
rightKerningGroup = Z;
unicode = 90;
},
{
glyphname = bracketleft;
layers = (
{
layerId = "089F0C00-674C-4F2E-8375-778CCED9E96B";
shapes = (
{
closed = 1;
nodes = (
(233,-40,l),
(264,110,l),
(197,110,l),
(299,590,l),
(366,590,l),
(398,740,l),
(156,740,l),
(-10,-40,l)
);
}
);
width = 346;
},
{
layerId = "D56C188B-E5B2-4235-B802-3B7EEA6FD951";
shapes = (
{
closed = 1;
nodes = (
(192,-40,l),
(216,73,l),
(154,73,l),
(272,627,l),
(333,627,l),
(357,740,l),
(166,740,l),
(0,-40,l)
);
}
);
width = 307;
},
{
layerId = "C7C3A33C-E883-49F1-BDC1-C605A621ADB5";
shapes = (
{
closed = 1;
nodes = (
(148,-40,l),
(163,32,l),
(107,32,l),
(242,668,l),
(298,668,l),
(313,740,l),
(176,740,l),
(10,-40,l)
);
}
);
width = 265;
},
{
layerId = "F5CD80C0-3A8F-48DC-9182-C71904D0895A";
shapes = (
{
closed = 1;
nodes = (
(91,-40,l),
(95,-20,l),
(47,-20,l),
(204,720,l),
(252,720,l),
(256,740,l),
(189,740,l),
(23,-40,l)
);
}
);
width = 216;
}
);
unicode = 91;
},
{
glyphname = backslash;
layers = (
{
layerId = "089F0C00-674C-4F2E-8375-778CCED9E96B";
shapes = (
{
closed = 1;
nodes = (
(106,710,l),
(369,0,l),
(578,0,l),
(316,710,l)
);
}
);
width = 663;
},
{
layerId = "D56C188B-E5B2-4235-B802-3B7EEA6FD951";
shapes = (
{
closed = 1;
nodes = (
(107,710,l),
(370,0,l),
(526,0,l),
(264,710,l)
);
}
);
width = 612;
},
{
layerId = "C7C3A33C-E883-49F1-BDC1-C605A621ADB5";
shapes = (
{
closed = 1;
nodes = (
(108,710,l),
(371,0,l),
(469,0,l),
(207,710,l)
);
}
);
width = 556;
},
{
layerId = "F5CD80C0-3A8F-48DC-9182-C71904D0895A";
shapes = (
{
closed = 1;
nodes = (
(104,710,l),
(367,0,l),
(392,0,l),
(130,710,l)
);
}
);
width = 480;
}
);
unicode = 92;
},
{
glyphname = bracketright;
layers = (
{
layerId = "089F0C00-674C-4F2E-8375-778CCED9E96B";
shapes = (
{
closed = 1;
nodes = (
(212,-40,l),
(377,740,l),
(135,740,l),
(103,590,l),
(171,590,l),
(69,110,l),
(1,110,l),
(-31,-40,l)
);
}
);
width = 347;
},
{
layerId = "D56C188B-E5B2-4235-B802-3B7EEA6FD951";
shapes = (
{
closed = 1;
nodes = (
(164,-40,l),
(329,740,l),
(137,740,l),
(113,627,l),
(175,627,l),
(57,73,l),
(-5,73,l),
(-29,-40,l)
);
}
);
width = 308;
},
{
layerId = "C7C3A33C-E883-49F1-BDC1-C605A621ADB5";
shapes = (
{
closed = 1;
nodes = (
(111,-40,l),
(276,740,l),
(139,740,l),
(123,668,l),
(179,668,l),
(44,32,l),
(-12,32,l),
(-27,-40,l)
);
}
);
width = 265;
},
{
layerId = "F5CD80C0-3A8F-48DC-9182-C71904D0895A";
shapes = (
{
closed = 1;
nodes = (
(48,-40,l),
(213,740,l),
(146,740,l),
(142,720,l),
(189,720,l),
(32,-20,l),
(-16,-20,l),
(-20,-40,l)
);
}
);
width = 215;
}
);
unicode = 93;
},
{
glyphname = asciicircum;
layers = (
{
layerId = "089F0C00-674C-4F2E-8375-778CCED9E96B";
shapes = (
{
closed = 1;
nodes = (
(195,303,l),
(321,556,l),
(444,303,l),
(597,303,l),
(400,710,l),
(242,710,l),
(44,303,l)
);
}
);
width = 630;
},
{
layerId = "D56C188B-E5B2-4235-B802-3B7EEA6FD951";
shapes = (
{
closed = 1;
nodes = (
(161,303,l),
(304,592,l),
(444,303,l),
(560,303,l),
(363,710,l),
(245,710,l),
(47,303,l)
);
}
);
width = 594;
},
{
layerId = "C7C3A33C-E883-49F1-BDC1-C605A621ADB5";
shapes = (
{
closed = 1;
nodes = (
(124,303,l),
(286,631,l),
(445,303,l),
(520,303,l),
(323,710,l),
(249,710,l),
(51,303,l)
);
}
);
width = 556;
},
{
layerId = "F5CD80C0-3A8F-48DC-9182-C71904D0895A";
shapes = (
{
closed = 1;
nodes = (
(76,303,l),
(262,681,l),
(445,303,l),
(468,303,l),
(271,710,l),
(253,710,l),
(55,303,l)
);
}
);
width = 505;
}
);
unicode = 94;
},
{
glyphname = underscore;
layers = (
{
layerId = "089F0C00-674C-4F2E-8375-778CCED9E96B";
shapes = (
{
closed = 1;
nodes = (
(278,-170,l),
(314,0,l),
(-19,0,l),
(-55,-170,l)
);
}
);
width = 423;
},
{
layerId = "D56C188B-E5B2-4235-B802-3B7EEA6FD951";
shapes = (
{
closed = 1;
nodes = (
(307,-127,l),
(334,0,l),
(-11,0,l),
(-38,-127,l)
);
}
);
width = 452;
},
{
layerId = "C7C3A33C-E883-49F1-BDC1-C605A621ADB5";
shapes = (
{
closed = 1;
nodes = (
(338,-80,l),
(355,0,l),
(-2,0,l),
(-19,-80,l)
);
}
);
width = 483;
},
{
layerId = "F5CD80C0-3A8F-48DC-9182-C71904D0895A";
shapes = (
{
closed = 1;
nodes = (
(372,-20,l),
(376,0,l),
(3,0,l),
(-1,-20,l)
);
}
);
width = 513;
}
);
unicode = 95;
},
{
glyphname = a;
layers = (
{
layerId = "089F0C00-674C-4F2E-8375-778CCED9E96B";
shapes = (
{
closed = 1;
nodes = (
(257,-10,o),
(302,16,o),
(341,69,c),
(326,0,l),
(515,0,l),
(625,518,l),
(435,518,l),
(420,448,l),
(404,504,o),
(355,536,o),
(290,536,cs),
(215,536,o),
(144,498,o),
(92,437,cs),
(40,376,o),
(7,294,o),
(7,203,cs),
(7,140,o),
(25,86,o),
(57,49,cs),
(89,12,o),
(136,-10,o),
(193,-10,cs)
);
},
{
closed = 1;
nodes = (
(257,150,o),
(238,158,o),
(226,173,cs),
(214,188,o),
(207,209,o),
(207,234,cs),
(207,270,o),
(221,307,o),
(242,333,cs),
(263,359,o),
(290,376,o),
(318,376,cs),
(335,376,o),
(352,368,o),
(364,355,cs),
(376,342,o),
(385,322,o),
(389,298,c),
(369,204,l),
(353,187,o),
(339,172,o),
(324,164,cs),
(309,155,o),
(294,150,o),
(278,150,cs)
);
}
);
width = 627;
},
{
layerId = "D56C188B-E5B2-4235-B802-3B7EEA6FD951";
shapes = (
{
closed = 1;
nodes = (
(271,-10,o),
(326,24,o),
(370,83,c),
(352,0,l),
(493,0,l),
(603,518,l),
(462,518,l),
(444,433,l),
(425,494,o),
(374,534,o),
(302,534,cs),
(227,534,o),
(155,496,o),
(102,436,cs),
(49,375,o),
(14,293,o),
(14,204,cs),
(14,144,o),
(32,90,o),
(64,51,cs),
(95,12,o),
(141,-10,o),
(200,-10,cs)
);
},
{
closed = 1;
nodes = (
(231,110,o),
(206,122,o),
(190,143,cs),
(173,164,o),
(163,194,o),
(163,227,cs),
(163,272,o),
(182,319,o),
(211,355,cs),
(240,390,o),
(280,414,o),
(320,414,cs),
(347,414,o),
(369,403,o),
(386,386,cs),
(402,369,o),
(414,344,o),
(419,313,c),
(393,193,l),
(376,169,o),
(355,148,o),
(333,133,cs),
(311,118,o),
(286,110,o),
(262,110,cs)
);
}
);
width = 615;
},
{
layerId = "C7C3A33C-E883-49F1-BDC1-C605A621ADB5";
shapes = (
{
closed = 1;
nodes = (
(284,-10,o),
(353,32,o),
(402,99,c),
(381,0,l),
(469,0,l),
(579,517,l),
(491,517,l),
(469,417,l),
(449,485,o),
(394,531,o),
(314,531,cs),
(241,531,o),
(167,493,o),
(113,433,cs),
(59,373,o),
(22,293,o),
(22,206,cs),
(22,147,o),
(39,93,o),
(71,54,c),
(102,14,o),
(148,-10,o),
(207,-10,cs)
);
},
{
closed = 1;
nodes = (
(204,66,o),
(172,83,o),
(150,111,cs),
(128,139,o),
(115,177,o),
(115,220,cs),
(115,276,o),
(140,334,o),
(178,379,cs),
(216,424,o),
(268,455,o),
(323,455,cs),
(358,455,o),
(387,442,o),
(409,420,cs),
(431,398,o),
(446,366,o),
(451,330,c),
(419,182,l),
(399,149,o),
(373,120,o),
(343,100,cs),
(313,79,o),
(279,66,o),
(244,66,cs)
);
}
);
width = 602;
},
{
layerId = "F5CD80C0-3A8F-48DC-9182-C71904D0895A";
shapes = (
{
closed = 1;
nodes = (
(301,-10,o),
(384,43,o),
(441,119,c),
(415,0,l),
(435,0,l),
(545,517,l),
(525,517,l),
(500,397,l),
(476,472,o),
(417,527,o),
(328,527,cs),
(255,527,o),
(180,489,o),
(124,430,cs),
(68,371,o),
(30,291,o),
(30,208,cs),
(30,152,o),
(47,97,o),
(79,57,c),
(110,16,o),
(155,-10,o),
(214,-10,cs)
);
},
{
closed = 1;
nodes = (
(166,10,o),
(124,33,o),
(95,70,cs),
(66,106,o),
(50,157,o),
(50,210,cs),
(50,278,o),
(82,353,o),
(132,410,cs),
(182,467,o),
(251,507,o),
(324,507,cs),
(369,507,o),
(408,490,o),
(437,462,cs),
(465,434,o),
(483,395,o),
(490,351,c),
(451,167,l),
(427,124,o),
(393,85,o),
(353,57,cs),
(313,28,o),
(267,10,o),
(219,10,cs)
);
}
);
width = 580;
}
);
leftKerningGroup = a2;
rightKerningGroup = a;
unicode = 97;
},
{
glyphname = b;
layers = (
{
layerId = "089F0C00-674C-4F2E-8375-778CCED9E96B";
shapes = (
{
closed = 1;
nodes = (
(384,-10,o),
(458,27,o),
(514,88,cs),
(569,148,o),
(604,232,o),
(604,325,cs),
(604,386,o),
(589,440,o),
(561,477,cs),
(532,514,o),
(489,536,o),
(436,536,cs),
(369,536,o),
(306,503,o),
(269,448,c),
(329,730,l),
(139,730,l),
(-16,0,l),
(149,0,l),
(166,82,l),
(175,53,o),
(191,29,o),
(215,14,c),
(238,-2,o),
(269,-10,o),
(305,-10,cs)
);
},
{
closed = 1;
nodes = (
(270,150,o),
(257,155,o),
(246,164,c),
(234,172,o),
(226,187,o),
(217,204,c),
(237,298,l),
(250,321,o),
(268,341,o),
(286,355,cs),
(304,369,o),
(324,376,o),
(341,376,cs),
(361,376,o),
(376,367,o),
(387,351,cs),
(398,335,o),
(404,312,o),
(404,287,cs),
(404,248,o),
(390,214,o),
(369,190,cs),
(348,165,o),
(319,150,o),
(287,150,cs)
);
}
);
width = 627;
},
{
layerId = "D56C188B-E5B2-4235-B802-3B7EEA6FD951";
shapes = (
{
closed = 1;
nodes = (
(361,-10,o),
(436,27,o),
(492,88,cs),
(547,148,o),
(583,231,o),
(583,322,cs),
(583,381,o),
(568,433,o),
(539,472,cs),
(510,511,o),
(467,534,o),
(412,534,cs),
(340,534,o),
(274,494,o),
(227,434,c),
(290,730,l),
(149,730,l),
(-6,0,l),
(117,0,l),
(136,90,l),
(147,59,o),
(164,34,o),
(189,17,cs),
(214,0,o),
(246,-10,o),
(285,-10,cs)
);
},
{
closed = 1;
nodes = (
(249,110,o),
(226,118,o),
(209,133,cs),
(192,148,o),
(181,169,o),
(176,193,c),
(202,315,l),
(219,343,o),
(242,368,o),
(266,386,cs),
(290,404,o),
(317,414,o),
(342,414,cs),
(373,414,o),
(394,401,o),
(410,379,cs),
(426,357,o),
(434,326,o),
(434,294,cs),
(434,246,o),
(416,200,o),
(386,166,cs),
(356,132,o),
(315,110,o),
(274,110,cs)
);
}
);
width = 614;
},
{
layerId = "C7C3A33C-E883-49F1-BDC1-C605A621ADB5";
shapes = (
{
closed = 1;
nodes = (
(338,-10,o),
(412,28,o),
(468,88,cs),
(523,148,o),
(560,230,o),
(560,318,cs),
(560,374,o),
(545,427,o),
(516,467,cs),
(487,506,o),
(443,531,o),
(386,531,cs),
(309,531,o),
(238,486,o),
(182,418,c),
(248,730,l),
(160,730,l),
(5,0,l),
(83,0,l),
(104,98,l),
(115,66,o),
(134,40,o),
(161,21,cs),
(188,1,o),
(222,-10,o),
(263,-10,cs)
);
},
{
closed = 1;
nodes = (
(225,66,o),
(193,79,o),
(170,100,cs),
(146,121,o),
(132,150,o),
(132,182,c),
(164,333,l),
(185,366,o),
(213,397,o),
(245,419,cs),
(276,441,o),
(309,455,o),
(344,455,cs),
(384,455,o),
(414,437,o),
(435,409,cs),
(456,380,o),
(467,342,o),
(467,302,cs),
(467,242,o),
(442,183,o),
(403,139,cs),
(364,95,o),
(312,66,o),
(260,66,cs)
);
}
);
width = 599;
},
{
layerId = "F5CD80C0-3A8F-48DC-9182-C71904D0895A";
shapes = (
{
closed = 1;
nodes = (
(306,-10,o),
(380,29,o),
(436,89,cs),
(492,149,o),
(529,229,o),
(529,313,cs),
(529,365,o),
(515,419,o),
(485,459,cs),
(455,499,o),
(410,527,o),
(349,527,cs),
(264,527,o),
(189,474,o),
(122,398,c),
(192,730,l),
(172,730,l),
(17,0,l),
(37,0,l),
(60,108,l),
(72,77,o),
(93,48,o),
(122,26,cs),
(150,4,o),
(187,-10,o),
(231,-10,cs)
);
},
{
closed = 1;
nodes = (
(192,10,o),
(154,22,o),
(125,45,cs),
(96,68,o),
(75,101,o),
(68,141,c),
(114,366,l),
(146,403,o),
(181,439,o),
(218,465,cs),
(255,491,o),
(297,507,o),
(342,507,cs),
(395,507,o),
(437,483,o),
(465,447,cs),
(493,411,o),
(508,363,o),
(508,312,cs),
(508,236,o),
(475,161,o),
(424,105,cs),
(373,48,o),
(304,10,o),
(233,10,cs)
);
}
);
width = 576;
}
);
leftKerningGroup = b2;
rightKerningGroup = b;
unicode = 98;
},
{
glyphname = c;
layers = (
{
layerId = "089F0C00-674C-4F2E-8375-778CCED9E96B";
shapes = (
{
closed = 1;
nodes = (
(345,-10,o),
(444,41,o),
(509,133,c),
(336,189,l),
(317,168,o),
(295,139,o),
(266,139,cs),
(220,139,o),
(204,194,o),
(204,234,cs),
(204,294,o),
(241,387,o),
(311,387,cs),
(340,387,o),
(357,362,o),
(368,337,c),
(565,393,l),
(541,477,o),
(472,536,o),
(350,536,cs),
(165,536,o),
(6,399,o),
(6,215,cs),
(6,75,o),
(97,-10,o),
(237,-10,cs)
);
}
);
width = 555;
},
{
layerId = "D56C188B-E5B2-4235-B802-3B7EEA6FD951";
shapes = (
{
closed = 1;
nodes = (
(330,-10,o),
(433,42,o),
(488,127,c),
(360,169,l),
(337,136,o),
(294,100,o),
(250,100,cs),
(188,100,o),
(160,170,o),
(160,227,cs),
(160,313,o),
(222,424,o),
(310,424,cs),
(357,424,o),
(385,393,o),
(398,356,c),
(544,398,l),
(523,479,o),
(456,534,o),
(345,534,cs),
(165,534,o),
(14,391,o),
(14,212,cs),
(14,80,o),
(97,-10,o),
(229,-10,cs)
);
}
);
width = 543;
},
{
layerId = "C7C3A33C-E883-49F1-BDC1-C605A621ADB5";
shapes = (
{
closed = 1;
nodes = (
(321,-10,o),
(416,41,o),
(466,121,c),
(385,147,l),
(360,104,o),
(289,61,o),
(234,61,cs),
(156,61,o),
(113,150,o),
(113,224,cs),
(113,332,o),
(204,459,o),
(320,459,cs),
(377,459,o),
(415,428,o),
(431,377,c),
(522,404,l),
(502,481,o),
(440,531,o),
(338,531,cs),
(163,531,o),
(22,383,o),
(22,212,cs),
(22,87,o),
(97,-10,o),
(227,-10,cs)
);
}
);
width = 531;
},
{
layerId = "F5CD80C0-3A8F-48DC-9182-C71904D0895A";
shapes = (
{
closed = 1;
nodes = (
(300,-10,o),
(397,41,o),
(436,113,c),
(417,119,l),
(388,55,o),
(287,10,o),
(217,10,cs),
(110,10,o),
(51,115,o),
(51,215,cs),
(51,364,o),
(183,507,o),
(328,507,cs),
(403,507,o),
(454,468,o),
(471,404,c),
(493,411,l),
(474,484,o),
(416,527,o),
(330,527,cs),
(166,527,o),
(31,371,o),
(31,211,cs),
(31,99,o),
(98,-10,o),
(218,-10,cs)
);
}
);
width = 514;
}
);
leftKerningGroup = c2;
rightKerningGroup = c;
unicode = 99;
},
{
glyphname = d;
layers = (
{
layerId = "089F0C00-674C-4F2E-8375-778CCED9E96B";
shapes = (
{
closed = 1;
nodes = (
(225,-10,o),
(253,-3,o),
(277,10,cs),
(301,22,o),
(321,42,o),
(341,69,c),
(326,0,l),
(515,0,l),
(670,730,l),
(480,730,l),
(420,448,l),
(412,476,o),
(397,497,o),
(374,513,cs),
(351,528,o),
(322,536,o),
(290,536,cs),
(215,536,o),
(145,498,o),
(93,437,cs),
(41,376,o),
(7,293,o),
(7,202,cs),
(7,139,o),
(25,86,o),
(57,49,cs),
(89,12,o),
(136,-10,o),
(193,-10,cs)
);
},
{
closed = 1;
nodes = (
(257,150,o),
(238,158,o),
(226,173,cs),
(214,188,o),
(207,209,o),
(207,234,cs),
(207,270,o),
(221,307,o),
(242,333,cs),
(263,359,o),
(290,376,o),
(318,376,cs),
(337,376,o),
(352,368,o),
(365,355,cs),
(377,342,o),
(386,322,o),
(390,298,c),
(370,204,l),
(354,187,o),
(339,172,o),
(324,164,cs),
(309,155,o),
(295,150,o),
(278,150,cs)
);
}
);
width = 627;
},
{
layerId = "D56C188B-E5B2-4235-B802-3B7EEA6FD951";
shapes = (
{
closed = 1;
nodes = (
(235,-10,o),
(265,-2,o),
(294,14,cs),
(322,29,o),
(347,52,o),
(368,80,c),
(351,0,l),
(492,0,l),
(647,730,l),
(506,730,l),
(443,434,l),
(432,463,o),
(415,488,o),
(391,506,cs),
(367,524,o),
(335,534,o),
(300,534,cs),
(225,534,o),
(154,495,o),
(102,435,cs),
(49,374,o),
(14,292,o),
(14,204,cs),
(14,144,o),
(32,90,o),
(64,52,cs),
(96,14,o),
(143,-10,o),
(200,-10,cs)
);
},
{
closed = 1;
nodes = (
(231,110,o),
(206,122,o),
(190,143,cs),
(173,164,o),
(163,195,o),
(163,228,cs),
(163,273,o),
(182,320,o),
(211,355,cs),
(239,390,o),
(278,414,o),
(319,414,cs),
(343,414,o),
(365,403,o),
(384,386,cs),
(403,369,o),
(414,344,o),
(418,315,c),
(393,194,l),
(378,170,o),
(357,148,o),
(334,133,cs),
(310,118,o),
(286,110,o),
(262,110,cs)
);
}
);
width = 614;
},
{
layerId = "C7C3A33C-E883-49F1-BDC1-C605A621ADB5";
shapes = (
{
closed = 1;
nodes = (
(244,-10,o),
(279,-1,o),
(312,18,cs),
(344,36,o),
(374,61,o),
(398,92,c),
(379,0,l),
(467,0,l),
(622,730,l),
(534,730,l),
(467,418,l),
(455,450,o),
(436,478,o),
(410,498,cs),
(384,518,o),
(350,531,o),
(310,531,cs),
(235,531,o),
(163,492,o),
(110,432,cs),
(57,372,o),
(22,291,o),
(22,207,cs),
(22,148,o),
(39,94,o),
(71,55,cs),
(103,15,o),
(149,-10,o),
(208,-10,cs)
);
},
{
closed = 1;
nodes = (
(205,66,o),
(173,83,o),
(150,111,cs),
(127,139,o),
(115,178,o),
(115,221,cs),
(115,277,o),
(139,336,o),
(176,380,cs),
(213,424,o),
(265,455,o),
(320,455,cs),
(351,455,o),
(381,442,o),
(405,420,cs),
(429,398,o),
(445,368,o),
(449,333,c),
(418,183,l),
(406,151,o),
(377,121,o),
(345,100,cs),
(312,79,o),
(276,66,o),
(245,66,cs)
);
}
);
width = 600;
},
{
layerId = "F5CD80C0-3A8F-48DC-9182-C71904D0895A";
shapes = (
{
closed = 1;
nodes = (
(255,-10,o),
(296,2,o),
(334,23,cs),
(372,44,o),
(407,73,o),
(435,108,c),
(412,0,l),
(432,0,l),
(587,730,l),
(567,730,l),
(497,398,l),
(481,433,o),
(460,465,o),
(432,489,cs),
(404,512,o),
(368,527,o),
(323,527,cs),
(247,527,o),
(175,488,o),
(121,429,cs),
(67,369,o),
(31,291,o),
(31,211,cs),
(31,154,o),
(48,99,o),
(80,58,cs),
(112,17,o),
(159,-10,o),
(218,-10,cs)
);
},
{
closed = 1;
nodes = (
(170,10,o),
(128,34,o),
(98,71,cs),
(68,107,o),
(51,158,o),
(51,213,cs),
(51,282,o),
(81,356,o),
(130,412,cs),
(178,468,o),
(246,507,o),
(319,507,cs),
(359,507,o),
(399,490,o),
(430,463,cs),
(461,435,o),
(484,397,o),
(488,356,c),
(448,169,ls),
(439,126,o),
(401,86,o),
(357,58,cs),
(312,29,o),
(261,10,o),
(222,10,cs)
);
}
);
width = 577;
}
);
leftKerningGroup = a2;
rightKerningGroup = d;
unicode = 100;
},
{
glyphname = e;
layers = (
{
anchors = (
{
name = bottom;
position = "{233, 0}";
}
);
layerId = "089F0C00-674C-4F2E-8375-778CCED9E96B";
shapes = (
{
closed = 1;
nodes = (
(288,-10,o),
(344,4,o),
(394,29,cs),
(444,54,o),
(487,89,o),
(516,132,c),
(367,180,l),
(356,163,o),
(342,149,o),
(326,140,cs),
(309,131,o),
(290,126,o),
(269,126,cs),
(246,126,o),
(230,132,o),
(220,144,cs),
(210,156,o),
(205,175,o),
(205,203,cs),
(205,258,o),
(218,307,o),
(239,343,cs),
(260,379,o),
(288,401,o),
(320,401,cs),
(335,401,o),
(348,397,o),
(357,390,cs),
(366,383,o),
(371,374,o),
(371,362,cs),
(371,346,o),
(363,335,o),
(341,328,cs),
(319,320,o),
(284,318,o),
(233,318,cs),
(192,318,o),
(155,320,o),
(120,324,c),
(96,211,l),
(143,206,o),
(191,204,o),
(234,204,cs),
(447,204,o),
(557,264,o),
(557,383,cs),
(557,431,o),
(538,470,o),
(503,496,cs),
(468,522,o),
(418,536,o),
(354,536,cs),
(258,536,o),
(171,501,o),
(108,442,cs),
(45,383,o),
(7,304,o),
(7,213,cs),
(7,145,o),
(29,90,o),
(69,51,cs),
(108,12,o),
(165,-10,o),
(233,-10,cs)
);
}
);
width = 566;
},
{
anchors = (
{
name = bottom;
position = "{232, 0}";
}
);
layerId = "D56C188B-E5B2-4235-B802-3B7EEA6FD951";
shapes = (
{
closed = 1;
nodes = (
(283,-10,o),
(334,4,o),
(381,29,cs),
(428,53,o),
(468,87,o),
(495,127,c),
(383,162,l),
(370,141,o),
(351,123,o),
(329,111,cs),
(307,99,o),
(281,92,o),
(256,92,cs),
(223,92,o),
(199,104,o),
(184,124,cs),
(168,144,o),
(160,172,o),
(160,207,cs),
(160,260,o),
(175,317,o),
(204,360,cs),
(232,403,o),
(273,432,o),
(326,432,cs),
(349,432,o),
(368,426,o),
(381,417,cs),
(394,408,o),
(401,395,o),
(401,376,cs),
(401,353,o),
(391,336,o),
(364,324,cs),
(337,311,o),
(295,305,o),
(232,305,cs),
(195,305,o),
(157,307,o),
(118,311,c),
(94,223,l),
(143,218,o),
(191,216,o),
(231,216,cs),
(435,216,o),
(536,274,o),
(536,386,cs),
(536,434,o),
(517,471,o),
(485,496,c),
(452,520,o),
(404,534,o),
(347,534,cs),
(254,534,o),
(170,497,o),
(111,438,cs),
(51,379,o),
(15,300,o),
(15,212,cs),
(15,147,o),
(35,92,o),
(72,53,cs),
(109,13,o),
(164,-10,o),
(231,-10,cs)
);
}
);
width = 553;
},
{
anchors = (
{
name = bottom;
position = "{228, 0}";
}
);
layerId = "C7C3A33C-E883-49F1-BDC1-C605A621ADB5";
shapes = (
{
closed = 1;
nodes = (
(277,-10,o),
(325,4,o),
(368,28,cs),
(411,51,o),
(448,83,o),
(472,122,c),
(401,143,l),
(385,116,o),
(360,95,o),
(332,80,cs),
(304,64,o),
(273,56,o),
(242,56,cs),
(198,56,o),
(165,74,o),
(144,103,cs),
(123,131,o),
(112,170,o),
(112,211,cs),
(112,264,o),
(129,328,o),
(165,378,cs),
(201,428,o),
(257,465,o),
(333,465,cs),
(364,465,o),
(389,459,o),
(407,447,cs),
(425,435,o),
(434,416,o),
(434,391,cs),
(434,362,o),
(421,337,o),
(389,319,cs),
(357,301,o),
(307,290,o),
(231,290,cs),
(198,290,o),
(160,292,o),
(116,296,c),
(92,236,l),
(144,231,o),
(191,229,o),
(228,229,cs),
(423,229,o),
(513,283,o),
(513,390,cs),
(513,437,o),
(495,472,o),
(464,496,cs),
(433,519,o),
(390,531,o),
(339,531,cs),
(248,531,o),
(169,493,o),
(113,434,cs),
(57,374,o),
(23,295,o),
(23,211,cs),
(23,150,o),
(41,94,o),
(77,54,cs),
(112,14,o),
(163,-10,o),
(228,-10,cs)
);
}
);
width = 539;
},
{
anchors = (
{
name = bottom;
position = "{220, 0}";
}
);
layerId = "F5CD80C0-3A8F-48DC-9182-C71904D0895A";
shapes = (
{
closed = 1;
nodes = (
(265,-10,o),
(310,3,o),
(350,26,cs),
(389,49,o),
(422,82,o),
(445,122,c),
(426,128,l),
(406,92,o),
(375,62,o),
(339,42,cs),
(303,22,o),
(263,10,o),
(227,10,cs),
(170,10,o),
(125,33,o),
(96,70,cs),
(67,106,o),
(52,156,o),
(52,211,cs),
(52,286,o),
(83,359,o),
(133,415,cs),
(183,470,o),
(252,507,o),
(328,507,cs),
(357,507,o),
(391,499,o),
(419,480,c),
(446,460,o),
(465,431,o),
(465,391,cs),
(465,355,o),
(449,325,o),
(412,303,cs),
(375,281,o),
(315,268,o),
(227,268,cs),
(176,268,o),
(125,270,o),
(57,274,c),
(37,255,l),
(113,250,o),
(168,248,o),
(224,248,cs),
(401,248,o),
(486,297,o),
(486,390,cs),
(486,435,o),
(464,469,o),
(435,493,cs),
(406,516,o),
(368,527,o),
(333,527,cs),
(248,527,o),
(172,487,o),
(118,428,cs),
(64,368,o),
(31,289,o),
(31,210,cs),
(31,150,o),
(49,95,o),
(81,55,cs),
(113,15,o),
(160,-10,o),
(220,-10,cs)
);
}
);
width = 521;
}
);
leftKerningGroup = c2;
rightKerningGroup = e;
unicode = 101;
},
{
glyphname = f;
layers = (
{
layerId = "089F0C00-674C-4F2E-8375-778CCED9E96B";
shapes = (
{
closed = 1;
nodes = (
(-28,-213,l),
(162,-213,l),
(276,322,l),
(383,322,l),
(414,465,l),
(306,465,l),
(320,529,ls),
(327,564,o),
(344,580,o),
(371,580,cs),
(390,580,o),
(416,574,o),
(435,566,c),
(497,710,l),
(449,730,o),
(405,740,o),
(362,740,cs),
(306,740,o),
(255,719,o),
(214,681,cs),
(173,643,o),
(144,589,o),
(129,522,cs),
(117,465,l),
(56,465,l),
(25,322,l),
(86,322,l)
);
}
);
width = 394;
},
{
layerId = "D56C188B-E5B2-4235-B802-3B7EEA6FD951";
shapes = (
{
closed = 1;
nodes = (
(-22,-213,l),
(119,-213,l),
(246,385,l),
(365,385,l),
(388,492,l),
(269,492,l),
(278,532,ls),
(290,591,o),
(317,621,o),
(358,621,cs),
(378,621,o),
(406,614,o),
(423,603,c),
(472,709,l),
(433,729,o),
(392,740,o),
(352,740,cs),
(300,740,o),
(254,719,o),
(215,683,cs),
(176,646,o),
(149,592,o),
(136,527,cs),
(129,492,l),
(65,492,l),
(41,385,l),
(105,385,l)
);
}
);
width = 365;
},
{
layerId = "C7C3A33C-E883-49F1-BDC1-C605A621ADB5";
shapes = (
{
closed = 1;
nodes = (
(-15,-212,l),
(73,-212,l),
(214,453,l),
(345,453,l),
(360,522,l),
(229,522,l),
(232,536,ls),
(251,620,o),
(288,665,o),
(343,665,cs),
(367,665,o),
(394,656,o),
(409,643,c),
(445,708,l),
(417,728,o),
(380,740,o),
(341,740,cs),
(294,740,o),
(251,721,o),
(216,685,cs),
(181,649,o),
(155,597,o),
(143,533,cs),
(141,522,l),
(74,522,l),
(59,453,l),
(126,453,l)
);
}
);
width = 334;
},
{
layerId = "F5CD80C0-3A8F-48DC-9182-C71904D0895A";
shapes = (
{
closed = 1;
nodes = (
(-12,-213,l),
(8,-213,l),
(159,499,l),
(306,499,l),
(310,519,l),
(164,519,l),
(168,540,ls),
(191,657,o),
(246,721,o),
(318,721,cs),
(347,721,o),
(374,710,o),
(386,694,c),
(404,706,l),
(391,726,o),
(357,740,o),
(321,740,cs),
(280,740,o),
(244,722,o),
(214,688,cs),
(184,654,o),
(160,603,o),
(148,540,cs),
(144,519,l),
(72,519,l),
(68,499,l),
(139,499,l)
);
}
);
width = 292;
}
);
leftKerningGroup = f2;
rightKerningGroup = f;
unicode = 102;
},
{
glyphname = g;
layers = (
{
layerId = "089F0C00-674C-4F2E-8375-778CCED9E96B";
shapes = (
{
closed = 1;
nodes = (
(252,-223,o),
(335,-196,o),
(399,-149,cs),
(463,-102,o),
(508,-35,o),
(525,48,cs),
(627,526,l),
(462,526,l),
(445,448,l),
(436,476,o),
(419,498,o),
(396,514,c),
(372,529,o),
(342,536,o),
(307,536,cs),
(227,536,o),
(152,499,o),
(97,439,cs),
(42,379,o),
(8,296,o),
(8,204,cs),
(8,145,o),
(23,94,o),
(52,58,cs),
(80,22,o),
(123,0,o),
(176,0,cs),
(208,0,o),
(239,7,o),
(268,21,cs),
(297,35,o),
(322,54,o),
(342,82,c),
(335,48,ls),
(326,1,o),
(305,-32,o),
(279,-53,cs),
(253,-73,o),
(220,-82,o),
(188,-82,cs),
(132,-82,o),
(85,-54,o),
(57,-18,c),
(-65,-122,l),
(-41,-154,o),
(-11,-180,o),
(26,-197,cs),
(62,-214,o),
(107,-223,o),
(159,-223,cs)
);
},
{
closed = 1;
nodes = (
(256,150,o),
(237,158,o),
(225,173,cs),
(213,188,o),
(206,209,o),
(206,233,cs),
(206,270,o),
(220,305,o),
(241,332,cs),
(262,359,o),
(289,376,o),
(317,376,cs),
(334,376,o),
(351,368,o),
(363,355,cs),
(375,342,o),
(384,322,o),
(388,298,c),
(368,204,l),
(352,187,o),
(338,172,o),
(323,164,cs),
(307,155,o),
(293,150,o),
(277,150,cs)
);
}
);
width = 626;
},
{
layerId = "D56C188B-E5B2-4235-B802-3B7EEA6FD951";
shapes = (
{
closed = 1;
nodes = (
(244,-223,o),
(320,-199,o),
(379,-156,cs),
(438,-113,o),
(481,-51,o),
(497,28,cs),
(603,524,l),
(480,524,l),
(460,434,l),
(449,463,o),
(431,489,o),
(407,507,cs),
(382,525,o),
(349,534,o),
(312,534,cs),
(232,534,o),
(158,496,o),
(104,436,cs),
(50,376,o),
(15,294,o),
(15,205,cs),
(15,148,o),
(31,95,o),
(60,58,cs),
(89,21,o),
(133,-3,o),
(188,-3,cs),
(221,-3,o),
(255,6,o),
(287,22,cs),
(319,37,o),
(346,59,o),
(369,90,c),
(356,28,ls),
(345,-23,o),
(322,-59,o),
(291,-83,cs),
(260,-106,o),
(222,-117,o),
(183,-117,cs),
(119,-117,o),
(68,-88,o),
(40,-40,c),
(-52,-115,l),
(-32,-150,o),
(-6,-176,o),
(29,-195,cs),
(64,-214,o),
(108,-223,o),
(161,-223,cs)
);
},
{
closed = 1;
nodes = (
(230,110,o),
(205,123,o),
(189,144,cs),
(172,165,o),
(161,195,o),
(161,227,cs),
(161,272,o),
(180,319,o),
(209,355,cs),
(237,390,o),
(275,414,o),
(318,414,cs),
(342,414,o),
(366,405,o),
(383,387,cs),
(400,369,o),
(413,344,o),
(417,315,c),
(392,194,l),
(376,171,o),
(357,150,o),
(334,135,cs),
(311,119,o),
(286,110,o),
(261,110,cs)
);
}
);
width = 613;
},
{
layerId = "C7C3A33C-E883-49F1-BDC1-C605A621ADB5";
shapes = (
{
closed = 1;
nodes = (
(235,-223,o),
(304,-203,o),
(358,-164,cs),
(412,-125,o),
(451,-69,o),
(467,6,cs),
(577,522,l),
(499,522,l),
(477,418,l),
(464,450,o),
(444,479,o),
(418,499,cs),
(392,519,o),
(358,531,o),
(317,531,cs),
(238,531,o),
(165,492,o),
(111,432,cs),
(57,372,o),
(22,291,o),
(22,207,cs),
(22,150,o),
(38,97,o),
(69,58,cs),
(100,19,o),
(145,-6,o),
(201,-6,cs),
(236,-6,o),
(274,5,o),
(308,23,cs),
(342,41,o),
(374,66,o),
(398,98,c),
(379,6,ls),
(367,-49,o),
(340,-88,o),
(304,-115,cs),
(268,-142,o),
(223,-155,o),
(178,-155,cs),
(106,-155,o),
(49,-124,o),
(22,-63,c),
(-38,-108,l),
(-22,-144,o),
(1,-172,o),
(33,-192,cs),
(65,-212,o),
(108,-223,o),
(164,-223,cs)
);
},
{
closed = 1;
nodes = (
(204,66,o),
(172,84,o),
(149,112,cs),
(126,140,o),
(113,178,o),
(113,221,cs),
(113,276,o),
(136,334,o),
(173,379,cs),
(210,423,o),
(262,455,o),
(319,455,cs),
(351,455,o),
(381,443,o),
(404,421,cs),
(427,399,o),
(444,369,o),
(449,333,c),
(417,183,l),
(404,154,o),
(378,125,o),
(347,103,cs),
(315,81,o),
(279,66,o),
(244,66,cs)
);
}
);
width = 599;
},
{
layerId = "F5CD80C0-3A8F-48DC-9182-C71904D0895A";
shapes = (
{
closed = 1;
nodes = (
(222,-223,o),
(280,-207,o),
(328,-174,cs),
(375,-141,o),
(411,-90,o),
(426,-22,cs),
(541,519,l),
(522,519,l),
(496,398,l),
(480,434,o),
(458,466,o),
(430,490,cs),
(402,513,o),
(366,527,o),
(322,527,cs),
(245,527,o),
(171,487,o),
(118,427,cs),
(65,367,o),
(30,288,o),
(30,211,cs),
(30,154,o),
(47,99,o),
(79,58,cs),
(111,17,o),
(157,-10,o),
(216,-10,cs),
(253,-10,o),
(295,2,o),
(333,23,cs),
(371,44,o),
(406,73,o),
(434,108,c),
(406,-22,ls),
(393,-82,o),
(361,-126,o),
(319,-157,cs),
(277,-188,o),
(225,-203,o),
(170,-203,cs),
(90,-203,o),
(21,-172,o),
(-2,-93,c),
(-22,-99,l),
(-11,-136,o),
(7,-167,o),
(36,-189,cs),
(65,-211,o),
(107,-223,o),
(166,-223,cs)
);
},
{
closed = 1;
nodes = (
(169,10,o),
(127,34,o),
(97,71,cs),
(67,107,o),
(50,158,o),
(50,213,cs),
(50,278,o),
(79,352,o),
(127,409,cs),
(175,466,o),
(242,507,o),
(318,507,cs),
(361,507,o),
(400,491,o),
(430,464,cs),
(460,437,o),
(480,400,o),
(487,356,c),
(447,169,l),
(436,132,o),
(403,93,o),
(361,62,cs),
(319,31,o),
(268,10,o),
(221,10,cs)
);
}
);
width = 576;
}
);
leftKerningGroup = a2;
rightKerningGroup = g;
unicode = 103;
},
{
glyphname = h;
layers = (
{
layerId = "089F0C00-674C-4F2E-8375-778CCED9E96B";
shapes = (
{
closed = 1;
nodes = (
(-16,0,l),
(174,0,l),
(237,295,l),
(250,318,o),
(268,337,o),
(285,350,cs),
(302,363,o),
(320,370,o),
(329,370,cs),
(353,370,o),
(370,356,o),
(370,323,cs),
(370,315,o),
(370,307,o),
(367,296,c),
(304,0,l),
(494,0,l),
(567,346,ls),
(572,369,o),
(576,395,o),
(576,420,cs),
(576,451,o),
(570,479,o),
(551,501,cs),
(532,523,o),
(502,536,o),
(451,536,cs),
(416,536,o),
(383,529,o),
(352,514,cs),
(320,498,o),
(293,476,o),
(269,448,c),
(329,730,l),
(139,730,l)
);
}
);
width = 601;
},
{
layerId = "D56C188B-E5B2-4235-B802-3B7EEA6FD951";
shapes = (
{
closed = 1;
nodes = (
(-6,0,l),
(135,0,l),
(200,305,l),
(216,336,o),
(240,361,o),
(265,380,cs),
(290,399,o),
(316,409,o),
(336,409,cs),
(373,409,o),
(394,388,o),
(394,341,cs),
(394,326,o),
(393,313,o),
(389,294,cs),
(327,0,l),
(468,0,l),
(537,330,l),
(544,357,o),
(547,384,o),
(547,411,cs),
(547,446,o),
(540,475,o),
(521,498,cs),
(502,521,o),
(472,534,o),
(424,534,cs),
(387,534,o),
(351,525,o),
(317,507,cs),
(283,489,o),
(253,462,o),
(226,430,c),
(290,730,l),
(149,730,l)
);
}
);
width = 585;
},
{
layerId = "C7C3A33C-E883-49F1-BDC1-C605A621ADB5";
shapes = (
{
closed = 1;
nodes = (
(5,0,l),
(93,0,l),
(160,315,l),
(179,355,o),
(210,389,o),
(243,413,cs),
(276,437,o),
(312,452,o),
(344,452,cs),
(395,452,o),
(421,421,o),
(421,360,cs),
(421,340,o),
(418,319,o),
(413,292,cs),
(351,0,l),
(439,0,l),
(505,312,ls),
(512,344,o),
(515,374,o),
(515,401,cs),
(515,440,o),
(507,472,o),
(488,495,cs),
(469,518,o),
(439,531,o),
(395,531,cs),
(355,531,o),
(315,519,o),
(279,499,cs),
(242,478,o),
(208,447,o),
(180,410,c),
(248,730,l),
(160,730,l)
);
}
);
width = 567;
},
{
layerId = "F5CD80C0-3A8F-48DC-9182-C71904D0895A";
shapes = (
{
closed = 1;
nodes = (
(17,0,l),
(37,0,l),
(107,328,l),
(131,379,o),
(169,423,o),
(213,455,cs),
(257,487,o),
(307,507,o),
(352,507,cs),
(420,507,o),
(454,465,o),
(454,384,cs),
(454,357,o),
(449,325,o),
(442,289,cs),
(381,0,l),
(401,0,l),
(462,289,ls),
(470,326,o),
(474,360,o),
(474,388,cs),
(474,435,o),
(464,469,o),
(444,492,cs),
(424,515,o),
(395,527,o),
(356,527,cs),
(313,527,o),
(269,513,o),
(228,489,cs),
(187,464,o),
(148,428,o),
(119,385,c),
(192,730,l),
(172,730,l)
);
}
);
width = 540;
}
);
leftKerningGroup = b2;
rightKerningGroup = h;
unicode = 104;
},
{
glyphname = k;
layers = (
{
layerId = "089F0C00-674C-4F2E-8375-778CCED9E96B";
shapes = (
{
closed = 1;
nodes = (
(309,0,l),
(509,0,l),
(432,189,l),
(515,240,o),
(562,318,o),
(562,407,cs),
(562,487,o),
(520,531,o),
(447,531,cs),
(406,531,o),
(366,517,o),
(331,489,cs),
(295,461,o),
(264,420,o),
(239,365,c),
(209,197,l),
(220,242,o),
(241,285,o),
(267,317,cs),
(293,349,o),
(322,369,o),
(349,369,cs),
(374,369,o),
(392,351,o),
(392,324,cs),
(392,273,o),
(331,232,o),
(235,215,c)
);
},
{
closed = 1;
nodes = (
(-16,0,l),
(172,0,l),
(327,730,l),
(139,730,l)
);
}
);
width = 582;
},
{
layerId = "D56C188B-E5B2-4235-B802-3B7EEA6FD951";
shapes = (
{
closed = 1;
nodes = (
(336,0,l),
(485,0,l),
(390,203,l),
(486,252,o),
(538,329,o),
(538,416,cs),
(538,488,o),
(501,531,o),
(429,531,cs),
(382,531,o),
(340,514,o),
(302,486,cs),
(264,457,o),
(229,414,o),
(201,365,c),
(176,211,l),
(192,266,o),
(221,316,o),
(257,353,cs),
(292,389,o),
(331,412,o),
(367,412,cs),
(394,412,o),
(412,398,o),
(412,367,cs),
(412,310,o),
(349,257,o),
(238,234,c)
);
},
{
closed = 1;
nodes = (
(-6,0,l),
(134,0,l),
(289,730,l),
(149,730,l)
);
}
);
width = 563;
},
{
layerId = "C7C3A33C-E883-49F1-BDC1-C605A621ADB5";
shapes = (
{
closed = 1;
nodes = (
(365,0,l),
(460,0,l),
(345,219,l),
(456,266,o),
(513,341,o),
(513,426,cs),
(513,490,o),
(481,531,o),
(409,531,cs),
(358,531,o),
(311,512,o),
(270,482,cs),
(229,452,o),
(192,409,o),
(160,365,c),
(140,227,l),
(163,291,o),
(201,350,o),
(246,392,cs),
(290,434,o),
(341,459,o),
(386,459,cs),
(414,459,o),
(433,449,o),
(433,414,cs),
(433,350,o),
(368,283,o),
(241,255,c)
);
},
{
closed = 1;
nodes = (
(5,0,l),
(93,0,l),
(248,730,l),
(160,730,l)
);
}
);
width = 542;
},
{
layerId = "F5CD80C0-3A8F-48DC-9182-C71904D0895A";
shapes = (
{
closed = 1;
nodes = (
(381,0,l),
(405,0,l),
(285,242,l),
(425,267,o),
(511,338,o),
(511,426,cs),
(511,493,o),
(465,531,o),
(385,531,cs),
(337,531,o),
(288,514,o),
(240,480,cs),
(191,446,o),
(143,393,o),
(99,325,c),
(81,281,l),
(137,361,o),
(190,419,o),
(239,457,cs),
(288,495,o),
(335,512,o),
(382,512,cs),
(450,512,o),
(489,479,o),
(489,423,cs),
(489,343,o),
(408,284,o),
(257,255,c)
);
},
{
closed = 1;
nodes = (
(17,0,l),
(37,0,l),
(192,730,l),
(172,730,l)
);
}
);
width = 521;
}
);
leftKerningGroup = b2;
rightKerningGroup = k;
unicode = 107;
},
{
glyphname = l;
layers = (
{
layerId = "089F0C00-674C-4F2E-8375-778CCED9E96B";
shapes = (
{
closed = 1;
nodes = (
(181,-10,o),
(245,3,o),
(293,24,c),
(299,164,l),
(282,155,o),
(262,149,o),
(247,149,cs),
(223,149,o),
(211,162,o),
(211,187,cs),
(211,194,o),
(211,201,o),
(214,209,c),
(325,730,l),
(135,730,l),
(10,142,l),
(6,126,o),
(5,112,o),
(5,97,cs),
(5,28,o),
(48,-10,o),
(132,-10,cs)
);
}
);
width = 345;
},
{
layerId = "D56C188B-E5B2-4235-B802-3B7EEA6FD951";
shapes = (
{
closed = 1;
nodes = (
(163,-9,o),
(217,3,o),
(257,19,c),
(262,126,l),
(243,118,o),
(223,113,o),
(208,113,cs),
(181,113,o),
(168,126,o),
(168,153,cs),
(168,160,o),
(169,166,o),
(170,173,cs),
(289,730,l),
(148,730,l),
(19,123,ls),
(16,110,o),
(15,97,o),
(15,85,cs),
(15,25,o),
(51,-9,o),
(122,-9,cs)
);
}
);
width = 314;
},
{
layerId = "C7C3A33C-E883-49F1-BDC1-C605A621ADB5";
shapes = (
{
closed = 1;
nodes = (
(143,-7,o),
(187,2,o),
(218,14,c),
(221,85,l),
(202,78,o),
(181,73,o),
(166,73,cs),
(137,73,o),
(121,89,o),
(121,116,cs),
(121,123,o),
(122,128,o),
(123,135,cs),
(249,730,l),
(162,730,l),
(29,103,l),
(26,92,o),
(25,82,o),
(25,71,cs),
(25,22,o),
(56,-7,o),
(112,-7,cs)
);
}
);
width = 280;
},
{
layerId = "F5CD80C0-3A8F-48DC-9182-C71904D0895A";
shapes = (
{
closed = 1;
nodes = (
(115,-5,o),
(146,0,o),
(165,7,c),
(162,23,l),
(145,18,o),
(123,14,o),
(108,14,cs),
(75,14,o),
(56,30,o),
(56,61,cs),
(56,66,o),
(57,70,o),
(58,77,cs),
(197,730,l),
(177,730,l),
(38,77,l),
(35,69,o),
(36,63,o),
(36,56,cs),
(36,19,o),
(59,-5,o),
(96,-5,cs)
);
}
);
width = 224;
}
);
leftKerningGroup = l2;
rightKerningGroup = l;
unicode = 108;
},
{
glyphname = m;
layers = (
{
layerId = "089F0C00-674C-4F2E-8375-778CCED9E96B";
shapes = (
{
closed = 1;
nodes = (
(-16,0,l),
(174,0,l),
(237,295,l),
(248,315,o),
(264,335,o),
(281,348,cs),
(297,361,o),
(315,370,o),
(328,370,cs),
(347,370,o),
(361,356,o),
(361,325,cs),
(361,317,o),
(361,307,o),
(358,296,c),
(295,0,l),
(485,0,l),
(547,295,l),
(559,316,o),
(575,335,o),
(592,348,cs),
(608,361,o),
(626,370,o),
(639,370,cs),
(656,370,o),
(671,356,o),
(671,325,cs),
(671,317,o),
(671,307,o),
(668,296,c),
(605,0,l),
(795,0,l),
(869,346,ls),
(877,385,o),
(878,408,o),
(878,420,cs),
(878,449,o),
(873,479,o),
(855,500,cs),
(837,521,o),
(808,536,o),
(760,536,cs),
(723,536,o),
(686,528,o),
(653,512,cs),
(620,496,o),
(590,473,o),
(566,445,c),
(563,469,o),
(557,492,o),
(539,509,cs),
(521,525,o),
(491,536,o),
(447,536,cs),
(371,536,o),
(297,505,o),
(250,448,c),
(267,526,l),
(96,526,l)
);
}
);
width = 903;
},
{
layerId = "D56C188B-E5B2-4235-B802-3B7EEA6FD951";
shapes = (
{
closed = 1;
nodes = (
(-6,0,l),
(135,0,l),
(200,305,l),
(215,334,o),
(237,361,o),
(261,380,cs),
(284,399,o),
(309,409,o),
(332,409,cs),
(364,409,o),
(383,389,o),
(383,345,cs),
(383,330,o),
(382,314,o),
(377,294,c),
(315,0,l),
(456,0,l),
(520,304,l),
(536,335,o),
(557,360,o),
(581,380,cs),
(604,399,o),
(629,409,o),
(652,409,cs),
(684,409,o),
(703,389,o),
(703,344,cs),
(703,329,o),
(702,313,o),
(697,294,c),
(635,0,l),
(776,0,l),
(846,330,ls),
(854,366,o),
(856,393,o),
(856,412,cs),
(856,447,o),
(850,477,o),
(832,499,cs),
(814,521,o),
(784,534,o),
(739,534,cs),
(700,534,o),
(664,525,o),
(629,506,cs),
(594,487,o),
(563,460,o),
(536,425,c),
(533,457,o),
(525,484,o),
(506,504,c),
(486,523,o),
(457,534,o),
(416,534,cs),
(339,534,o),
(262,495,o),
(213,430,c),
(233,524,l),
(106,524,l)
);
}
);
width = 893;
},
{
layerId = "C7C3A33C-E883-49F1-BDC1-C605A621ADB5";
shapes = (
{
closed = 1;
nodes = (
(5,0,l),
(93,0,l),
(160,315,l),
(180,356,o),
(207,390,o),
(238,414,cs),
(269,438,o),
(303,452,o),
(336,452,cs),
(383,452,o),
(407,426,o),
(407,366,cs),
(407,345,o),
(405,321,o),
(398,292,c),
(336,0,l),
(424,0,l),
(490,314,l),
(510,354,o),
(537,389,o),
(568,414,cs),
(599,438,o),
(633,452,o),
(666,452,cs),
(713,452,o),
(738,425,o),
(738,365,cs),
(738,344,o),
(736,320,o),
(729,292,c),
(667,0,l),
(755,0,l),
(822,312,ls),
(829,345,o),
(833,376,o),
(833,404,cs),
(833,443,o),
(826,473,o),
(807,496,cs),
(788,519,o),
(760,531,o),
(717,531,cs),
(677,531,o),
(639,520,o),
(603,499,cs),
(567,478,o),
(534,445,o),
(503,404,c),
(502,444,o),
(491,477,o),
(471,498,cs),
(450,519,o),
(421,531,o),
(382,531,cs),
(305,531,o),
(225,485,o),
(172,410,c),
(196,522,l),
(116,522,l)
);
}
);
width = 883;
},
{
layerId = "F5CD80C0-3A8F-48DC-9182-C71904D0895A";
shapes = (
{
closed = 1;
nodes = (
(17,0,l),
(37,0,l),
(107,328,l),
(132,381,o),
(168,426,o),
(208,458,cs),
(248,489,o),
(294,507,o),
(339,507,cs),
(406,507,o),
(436,470,o),
(436,393,cs),
(436,365,o),
(432,330,o),
(423,289,cs),
(362,0,l),
(382,0,l),
(451,327,l),
(476,380,o),
(511,425,o),
(551,457,cs),
(591,489,o),
(637,507,o),
(682,507,cs),
(749,507,o),
(780,470,o),
(780,390,cs),
(780,362,o),
(776,328,o),
(768,289,cs),
(707,0,l),
(727,0,l),
(788,289,ls),
(797,330,o),
(801,367,o),
(801,396,cs),
(801,440,o),
(792,473,o),
(773,495,cs),
(754,517,o),
(727,527,o),
(688,527,cs),
(645,527,o),
(600,514,o),
(560,487,cs),
(519,460,o),
(482,421,o),
(457,370,c),
(461,419,o),
(452,458,o),
(432,486,cs),
(412,513,o),
(380,527,o),
(340,527,cs),
(261,527,o),
(182,476,o),
(119,385,c),
(147,519,l),
(127,519,l)
);
}
);
width = 866;
}
);
leftKerningGroup = m2;
rightKerningGroup = m;
unicode = 109;
},
{
glyphname = n;
layers = (
{
layerId = "089F0C00-674C-4F2E-8375-778CCED9E96B";
shapes = (
{
closed = 1;
nodes = (
(-16,0,l),
(174,0,l),
(237,295,l),
(249,318,o),
(267,336,o),
(284,349,cs),
(300,362,o),
(318,370,o),
(331,370,cs),
(352,370,o),
(370,355,o),
(370,322,cs),
(370,314,o),
(370,307,o),
(367,296,c),
(304,0,l),
(494,0,l),
(567,346,ls),
(571,367,o),
(575,392,o),
(575,417,cs),
(575,448,o),
(570,476,o),
(552,499,cs),
(534,522,o),
(503,536,o),
(455,536,cs),
(412,536,o),
(373,529,o),
(338,514,cs),
(303,498,o),
(274,476,o),
(250,448,c),
(267,526,l),
(96,526,l)
);
}
);
width = 601;
},
{
layerId = "D56C188B-E5B2-4235-B802-3B7EEA6FD951";
shapes = (
{
closed = 1;
nodes = (
(-6,0,l),
(135,0,l),
(200,305,l),
(216,336,o),
(240,361,o),
(265,380,cs),
(290,399,o),
(317,409,o),
(341,409,cs),
(374,409,o),
(395,389,o),
(395,344,cs),
(395,329,o),
(394,314,o),
(389,294,c),
(327,0,l),
(468,0,l),
(537,330,ls),
(542,357,o),
(547,385,o),
(547,413,cs),
(547,446,o),
(541,477,o),
(523,499,cs),
(505,521,o),
(475,534,o),
(430,534,cs),
(387,534,o),
(345,525,o),
(308,506,cs),
(271,487,o),
(238,462,o),
(213,430,c),
(233,524,l),
(106,524,l)
);
}
);
width = 585;
},
{
layerId = "C7C3A33C-E883-49F1-BDC1-C605A621ADB5";
shapes = (
{
closed = 1;
nodes = (
(5,0,l),
(93,0,l),
(160,315,l),
(180,355,o),
(210,389,o),
(245,413,cs),
(280,437,o),
(318,452,o),
(351,452,cs),
(398,452,o),
(422,426,o),
(422,367,cs),
(422,346,o),
(420,321,o),
(413,292,c),
(351,0,l),
(439,0,l),
(505,312,ls),
(512,347,o),
(517,379,o),
(517,408,cs),
(517,445,o),
(510,476,o),
(492,497,cs),
(474,518,o),
(446,531,o),
(403,531,cs),
(359,531,o),
(315,519,o),
(275,498,cs),
(235,477,o),
(199,446,o),
(172,410,c),
(196,522,l),
(116,522,l)
);
}
);
width = 567;
},
{
layerId = "F5CD80C0-3A8F-48DC-9182-C71904D0895A";
shapes = (
{
closed = 1;
nodes = (
(17,0,l),
(37,0,l),
(107,328,l),
(131,379,o),
(172,424,o),
(218,456,cs),
(264,488,o),
(315,507,o),
(362,507,cs),
(426,507,o),
(455,472,o),
(455,396,cs),
(455,367,o),
(451,332,o),
(442,289,cs),
(381,0,l),
(401,0,l),
(462,289,ls),
(471,332,o),
(476,369,o),
(476,401,cs),
(476,444,o),
(467,476,o),
(449,497,cs),
(431,517,o),
(403,527,o),
(366,527,cs),
(322,527,o),
(275,512,o),
(232,488,cs),
(188,463,o),
(148,428,o),
(119,385,c),
(147,519,l),
(127,519,l)
);
}
);
width = 540;
}
);
leftKerningGroup = m2;
rightKerningGroup = m;
unicode = 110;
},
{
glyphname = o;
layers = (
{
layerId = "089F0C00-674C-4F2E-8375-778CCED9E96B";
shapes = (
{
closed = 1;
nodes = (
(426,-10,o),
(573,124,o),
(573,312,cs),
(573,459,o),
(484,536,o),
(341,536,cs),
(154,536,o),
(7,404,o),
(7,215,cs),
(7,68,o),
(96,-10,o),
(239,-10,cs)
);
},
{
closed = 1;
nodes = (
(219,139,o),
(205,193,o),
(205,231,cs),
(205,294,o),
(243,387,o),
(311,387,cs),
(361,387,o),
(375,333,o),
(375,295,cs),
(375,232,o),
(337,139,o),
(269,139,cs)
);
}
);
width = 596;
},
{
layerId = "D56C188B-E5B2-4235-B802-3B7EEA6FD951";
shapes = (
{
closed = 1;
nodes = (
(415,-10,o),
(557,132,o),
(557,312,cs),
(557,450,o),
(474,534,o),
(336,534,cs),
(155,534,o),
(14,391,o),
(14,212,cs),
(14,75,o),
(97,-10,o),
(236,-10,cs)
);
},
{
closed = 1;
nodes = (
(186,100,o),
(161,166,o),
(161,224,cs),
(161,313,o),
(219,424,o),
(311,424,cs),
(383,424,o),
(410,355,o),
(410,296,cs),
(410,208,o),
(351,100,o),
(258,100,cs)
);
}
);
width = 587;
},
{
layerId = "C7C3A33C-E883-49F1-BDC1-C605A621ADB5";
shapes = (
{
closed = 1;
nodes = (
(402,-10,o),
(539,140,o),
(539,312,cs),
(539,439,o),
(464,531,o),
(330,531,cs),
(157,531,o),
(22,379,o),
(22,208,cs),
(22,82,o),
(96,-10,o),
(230,-10,cs)
);
},
{
closed = 1;
nodes = (
(153,61,o),
(113,140,o),
(113,220,cs),
(113,335,o),
(194,460,o),
(313,460,cs),
(408,460,o),
(447,380,o),
(447,300,cs),
(447,184,o),
(366,61,o),
(248,61,cs)
);
}
);
width = 578;
},
{
layerId = "F5CD80C0-3A8F-48DC-9182-C71904D0895A";
shapes = (
{
closed = 1;
nodes = (
(387,-10,o),
(513,150,o),
(513,314,cs),
(513,427,o),
(453,527,o),
(323,527,cs),
(157,527,o),
(30,365,o),
(30,202,cs),
(30,88,o),
(92,-10,o),
(222,-10,cs)
);
},
{
closed = 1;
nodes = (
(105,10,o),
(50,101,o),
(50,205,cs),
(50,356,o),
(165,507,o),
(319,507,cs),
(439,507,o),
(493,414,o),
(493,310,cs),
(493,158,o),
(377,10,o),
(225,10,cs)
);
}
);
width = 561;
}
);
leftKerningGroup = c2;
rightKerningGroup = o;
unicode = 111;
},
{
glyphname = p;
layers = (
{
layerId = "089F0C00-674C-4F2E-8375-778CCED9E96B";
shapes = (
{
closed = 1;
nodes = (
(-62,-213,l),
(128,-213,l),
(190,78,l),
(198,50,o),
(213,28,o),
(236,13,cs),
(259,-3,o),
(288,-10,o),
(324,-10,cs),
(396,-10,o),
(466,29,o),
(518,90,cs),
(570,150,o),
(603,235,o),
(603,324,cs),
(603,385,o),
(586,439,o),
(555,476,cs),
(523,513,o),
(478,536,o),
(422,536,cs),
(385,536,o),
(351,528,o),
(322,513,cs),
(293,498,o),
(267,475,o),
(243,447,c),
(260,526,l),
(95,526,l)
);
},
{
closed = 1;
nodes = (
(275,150,o),
(259,158,o),
(247,173,cs),
(234,188,o),
(226,208,o),
(222,231,c),
(242,322,l),
(258,341,o),
(272,354,o),
(287,363,cs),
(302,371,o),
(316,376,o),
(332,376,cs),
(355,376,o),
(373,368,o),
(385,353,cs),
(397,338,o),
(404,318,o),
(404,293,cs),
(404,256,o),
(390,220,o),
(369,194,cs),
(348,168,o),
(320,150,o),
(292,150,cs)
);
}
);
width = 626;
},
{
layerId = "D56C188B-E5B2-4235-B802-3B7EEA6FD951";
shapes = (
{
closed = 1;
nodes = (
(-51,-213,l),
(90,-213,l),
(154,90,l),
(163,61,o),
(181,34,o),
(206,17,cs),
(230,0,o),
(261,-10,o),
(300,-10,cs),
(373,-10,o),
(445,29,o),
(497,90,cs),
(549,150,o),
(582,232,o),
(582,319,cs),
(582,379,o),
(565,432,o),
(534,471,cs),
(502,510,o),
(456,534,o),
(400,534,cs),
(363,534,o),
(327,524,o),
(295,508,cs),
(263,491,o),
(234,465,o),
(209,436,c),
(228,524,l),
(105,524,l)
);
},
{
closed = 1;
nodes = (
(253,110,o),
(230,121,o),
(214,139,cs),
(197,157,o),
(184,183,o),
(179,211,c),
(205,330,l),
(220,354,o),
(241,377,o),
(264,391,cs),
(287,405,o),
(313,414,o),
(334,414,cs),
(366,414,o),
(391,401,o),
(408,380,cs),
(425,359,o),
(435,329,o),
(435,296,cs),
(435,249,o),
(416,203,o),
(387,168,cs),
(358,133,o),
(319,110,o),
(278,110,cs)
);
}
);
width = 614;
},
{
layerId = "C7C3A33C-E883-49F1-BDC1-C605A621ADB5";
shapes = (
{
closed = 1;
nodes = (
(-40,-213,l),
(48,-213,l),
(115,103,l),
(127,71,o),
(145,42,o),
(172,22,cs),
(199,2,o),
(233,-10,o),
(273,-10,cs),
(350,-10,o),
(422,29,o),
(475,89,cs),
(527,149,o),
(560,230,o),
(560,313,cs),
(560,372,o),
(543,426,o),
(511,466,cs),
(479,506,o),
(433,531,o),
(376,531,cs),
(339,531,o),
(301,521,o),
(266,502,cs),
(231,482,o),
(200,456,o),
(173,424,c),
(194,522,l),
(116,522,l)
);
},
{
closed = 1;
nodes = (
(229,66,o),
(200,80,o),
(178,102,cs),
(156,124,o),
(140,154,o),
(133,189,c),
(165,338,l),
(178,370,o),
(207,400,o),
(239,421,cs),
(271,441,o),
(308,455,o),
(337,455,cs),
(377,455,o),
(409,437,o),
(433,409,cs),
(456,381,o),
(468,342,o),
(468,299,cs),
(468,243,o),
(445,185,o),
(407,141,cs),
(369,96,o),
(318,66,o),
(262,66,cs)
);
}
);
width = 600;
},
{
layerId = "F5CD80C0-3A8F-48DC-9182-C71904D0895A";
shapes = (
{
closed = 1;
nodes = (
(-28,-213,l),
(-8,-213,l),
(63,119,l),
(76,84,o),
(98,52,o),
(127,29,cs),
(156,5,o),
(192,-10,o),
(236,-10,cs),
(316,-10,o),
(389,30,o),
(442,90,cs),
(495,149,o),
(528,227,o),
(528,306,cs),
(528,362,o),
(511,418,o),
(479,459,cs),
(447,500,o),
(401,527,o),
(342,527,cs),
(305,527,o),
(264,515,o),
(226,494,cs),
(188,473,o),
(152,444,o),
(124,409,c),
(147,519,l),
(128,519,l)
);
},
{
closed = 1;
nodes = (
(196,10,o),
(158,27,o),
(130,54,cs),
(101,81,o),
(80,120,o),
(71,161,c),
(111,348,l),
(123,389,o),
(160,430,o),
(204,459,cs),
(248,488,o),
(300,507,o),
(337,507,cs),
(389,507,o),
(432,483,o),
(462,446,cs),
(492,409,o),
(508,359,o),
(508,304,cs),
(508,235,o),
(478,161,o),
(430,105,cs),
(381,49,o),
(313,10,o),
(240,10,cs)
);
}
);
width = 577;
}
);
leftKerningGroup = m2;
rightKerningGroup = b;
unicode = 112;
},
{
glyphname = q;
layers = (
{
layerId = "089F0C00-674C-4F2E-8375-778CCED9E96B";
shapes = (
{
closed = 1;
nodes = (
(279,-214,l),
(469,-214,l),
(626,526,l),
(461,526,l),
(444,445,l),
(432,473,o),
(417,496,o),
(394,512,cs),
(370,528,o),
(341,536,o),
(304,536,cs),
(227,536,o),
(152,499,o),
(97,439,cs),
(42,378,o),
(7,295,o),
(7,200,cs),
(7,139,o),
(23,86,o),
(51,49,cs),
(79,12,o),
(120,-10,o),
(169,-10,cs),
(241,-10,o),
(302,21,o),
(341,78,c)
);
},
{
closed = 1;
nodes = (
(255,150,o),
(237,158,o),
(225,173,cs),
(212,188,o),
(205,209,o),
(205,234,cs),
(205,271,o),
(219,307,o),
(240,333,cs),
(260,359,o),
(289,376,o),
(317,376,cs),
(334,376,o),
(350,369,o),
(363,355,cs),
(375,341,o),
(384,321,o),
(388,298,c),
(368,204,l),
(352,187,o),
(338,172,o),
(323,164,cs),
(307,155,o),
(293,150,o),
(278,150,cs)
);
}
);
width = 626;
},
{
layerId = "D56C188B-E5B2-4235-B802-3B7EEA6FD951";
shapes = (
{
closed = 1;
nodes = (
(305,-214,l),
(446,-214,l),
(602,524,l),
(479,524,l),
(460,434,l),
(448,465,o),
(431,489,o),
(407,507,cs),
(382,525,o),
(351,534,o),
(312,534,cs),
(236,534,o),
(161,496,o),
(106,436,cs),
(50,376,o),
(14,293,o),
(14,201,cs),
(14,142,o),
(30,89,o),
(59,51,cs),
(87,13,o),
(129,-10,o),
(181,-10,cs),
(254,-10,o),
(321,25,o),
(369,90,c)
);
},
{
closed = 1;
nodes = (
(229,110,o),
(204,122,o),
(188,143,cs),
(171,164,o),
(161,194,o),
(161,226,cs),
(161,274,o),
(181,320,o),
(210,356,cs),
(239,391,o),
(280,414,o),
(321,414,cs),
(346,414,o),
(369,403,o),
(386,385,cs),
(403,367,o),
(414,341,o),
(417,312,c),
(391,192,l),
(372,168,o),
(352,147,o),
(330,133,cs),
(308,119,o),
(284,110,o),
(260,110,cs)
);
}
);
width = 613;
},
{
layerId = "C7C3A33C-E883-49F1-BDC1-C605A621ADB5";
shapes = (
{
closed = 1;
nodes = (
(333,-213,l),
(421,-213,l),
(577,522,l),
(499,522,l),
(478,423,l),
(466,455,o),
(447,481,o),
(420,501,cs),
(393,520,o),
(360,531,o),
(321,531,cs),
(245,531,o),
(171,493,o),
(115,433,cs),
(59,373,o),
(22,291,o),
(22,203,cs),
(22,146,o),
(38,92,o),
(67,53,cs),
(96,14,o),
(139,-10,o),
(194,-10,cs),
(270,-10,o),
(340,28,o),
(400,103,c)
);
},
{
closed = 1;
nodes = (
(200,66,o),
(170,83,o),
(148,111,cs),
(126,138,o),
(114,177,o),
(114,218,cs),
(114,277,o),
(139,336,o),
(179,381,cs),
(218,425,o),
(270,455,o),
(325,455,cs),
(358,455,o),
(388,440,o),
(411,417,cs),
(434,394,o),
(448,363,o),
(448,328,c),
(416,178,l),
(393,147,o),
(366,119,o),
(337,99,cs),
(308,79,o),
(275,66,o),
(240,66,cs)
);
}
);
width = 599;
},
{
layerId = "F5CD80C0-3A8F-48DC-9182-C71904D0895A";
shapes = (
{
closed = 1;
nodes = (
(366,-213,l),
(386,-213,l),
(541,519,l),
(521,519,l),
(498,409,l),
(486,442,o),
(463,472,o),
(434,493,cs),
(405,514,o),
(370,527,o),
(331,527,cs),
(255,527,o),
(180,488,o),
(124,428,cs),
(67,368,o),
(29,288,o),
(29,205,cs),
(29,149,o),
(45,95,o),
(75,56,cs),
(105,16,o),
(149,-10,o),
(208,-10,cs),
(285,-10,o),
(363,35,o),
(436,119,c)
);
},
{
closed = 1;
nodes = (
(161,10,o),
(120,33,o),
(92,69,cs),
(64,105,o),
(49,155,o),
(49,208,cs),
(49,280,o),
(82,355,o),
(134,412,cs),
(185,468,o),
(254,507,o),
(327,507,cs),
(374,507,o),
(412,490,o),
(440,463,cs),
(468,436,o),
(486,401,o),
(490,365,c),
(445,161,l),
(418,121,o),
(383,84,o),
(344,56,cs),
(304,28,o),
(259,10,o),
(212,10,cs)
);
}
);
width = 576;
}
);
leftKerningGroup = a2;
rightKerningGroup = g;
unicode = 113;
},
{
glyphname = r;
layers = (
{
hints = (
{
horizontal = 1;
place = (0,21);
target = up;
type = BottomGhost;
},
{
horizontal = 1;
place = (370,166);
type = Stem;
},
{
horizontal = 1;
place = (526,-20);
target = down;
type = TopGhost;
}
);
layerId = "089F0C00-674C-4F2E-8375-778CCED9E96B";
shapes = (
{
closed = 1;
nodes = (
(482,528,l),
(461,534,o),
(442,536,o),
(415,536,cs),
(353,536,o),
(290,496,o),
(240,426,c),
(261,526,l),
(95,526,l),
(-16,0,l),
(164,0,l),
(230,312,l),
(249,332,o),
(276,348,o),
(303,358,cs),
(324,366,o),
(345,370,o),
(363,370,cs),
(376,370,o),
(389,368,o),
(402,364,c)
);
}
);
width = 420;
},
{
hints = (
{
horizontal = 1;
place = (0,21);
target = up;
type = BottomGhost;
},
{
horizontal = 1;
place = (411,123);
type = Stem;
},
{
horizontal = 1;
place = (524,-20);
target = down;
type = TopGhost;
}
);
layerId = "D56C188B-E5B2-4235-B802-3B7EEA6FD951";
shapes = (
{
closed = 1;
nodes = (
(446,527,l),
(434,531,o),
(409,534,o),
(386,534,cs),
(326,534,o),
(257,489,o),
(205,414,c),
(229,524,l),
(105,524,l),
(-6,0,l),
(128,0,l),
(195,317,l),
(216,345,o),
(244,371,o),
(274,389,cs),
(297,402,o),
(322,411,o),
(347,411,cs),
(359,411,o),
(372,409,o),
(384,405,c)
);
}
);
width = 388;
},
{
hints = (
{
horizontal = 1;
place = (0,21);
target = up;
type = BottomGhost;
},
{
horizontal = 1;
place = (456,75);
type = Stem;
},
{
horizontal = 1;
place = (522,-20);
target = down;
type = TopGhost;
}
);
layerId = "C7C3A33C-E883-49F1-BDC1-C605A621ADB5";
shapes = (
{
closed = 1;
nodes = (
(406,525,l),
(403,528,o),
(376,531,o),
(354,531,cs),
(295,531,o),
(223,481,o),
(168,401,c),
(193,522,l),
(116,522,l),
(5,0,l),
(88,0,l),
(157,322,l),
(177,357,o),
(208,395,o),
(244,422,cs),
(271,442,o),
(301,456,o),
(331,456,cs),
(343,456,o),
(353,454,o),
(364,450,c)
);
}
);
width = 354;
},
{
hints = (
{
horizontal = 1;
place = (0,21);
target = up;
type = BottomGhost;
},
{
horizontal = 1;
place = (519,-20);
target = down;
type = TopGhost;
},
{
horizontal = 1;
place = (510,17);
type = Stem;
},
{
place = (16,332);
type = Stem;
}
);
layerId = "F5CD80C0-3A8F-48DC-9182-C71904D0895A";
shapes = (
{
closed = 1;
nodes = (
(348,520,l),
(343,524,o),
(325,527,o),
(310,527,cs),
(253,527,o),
(175,470,o),
(117,385,c),
(146,519,l),
(127,519,l),
(16,0,l),
(35,0,l),
(105,328,l),
(128,377,o),
(157,413,o),
(195,449,cs),
(234,486,o),
(273,510,o),
(299,510,cs),
(310,510,o),
(322,508,o),
(336,502,c)
);
}
);
width = 306;
}
);
leftKerningGroup = m2;
rightKerningGroup = r;
unicode = 114;
},
{
glyphname = s;
layers = (
{
anchors = (
{
name = bottom;
position = "{191, 0}";
}
);
layerId = "089F0C00-674C-4F2E-8375-778CCED9E96B";
shapes = (
{
closed = 1;
nodes = (
(266,-10,o),
(328,11,o),
(372,47,cs),
(416,83,o),
(441,135,o),
(441,196,cs),
(441,228,o),
(431,254,o),
(405,276,cs),
(379,298,o),
(340,316,o),
(281,333,cs),
(257,340,o),
(243,347,o),
(233,353,cs),
(223,359,o),
(219,366,o),
(219,374,cs),
(219,385,o),
(222,392,o),
(229,398,cs),
(236,404,o),
(245,406,o),
(256,406,cs),
(291,406,o),
(323,390,o),
(379,347,c),
(474,461,l),
(417,522,o),
(358,537,o),
(283,537,cs),
(215,537,o),
(153,514,o),
(108,476,cs),
(63,438,o),
(35,385,o),
(35,326,cs),
(35,295,o),
(47,272,o),
(73,252,cs),
(99,232,o),
(138,214,o),
(195,195,cs),
(216,188,o),
(231,182,o),
(240,175,c),
(248,167,o),
(251,161,o),
(251,153,cs),
(251,144,o),
(248,136,o),
(243,131,cs),
(238,126,o),
(228,123,o),
(215,123,cs),
(168,123,o),
(114,148,o),
(61,192,c),
(-27,78,l),
(20,21,o),
(103,-10,o),
(191,-10,cs)
);
}
);
width = 485;
},
{
anchors = (
{
name = bottom;
position = "{184, 0}";
}
);
layerId = "D56C188B-E5B2-4235-B802-3B7EEA6FD951";
shapes = (
{
closed = 1;
nodes = (
(259,-10,o),
(320,11,o),
(362,44,cs),
(404,77,o),
(428,125,o),
(428,180,cs),
(428,216,o),
(415,242,o),
(388,263,cs),
(361,284,o),
(321,301,o),
(264,317,cs),
(235,325,o),
(215,332,o),
(202,340,cs),
(189,348,o),
(184,357,o),
(184,372,cs),
(184,392,o),
(193,407,o),
(209,418,cs),
(224,429,o),
(244,434,o),
(268,434,cs),
(313,434,o),
(349,417,o),
(394,377,c),
(468,461,l),
(420,513,o),
(361,534,o),
(284,534,cs),
(219,534,o),
(159,513,o),
(116,478,cs),
(73,443,o),
(47,394,o),
(47,338,cs),
(47,305,o),
(59,282,o),
(84,263,cs),
(108,244,o),
(147,229,o),
(200,213,cs),
(231,204,o),
(252,196,o),
(266,188,cs),
(280,179,o),
(286,168,o),
(286,153,cs),
(286,134,o),
(278,119,o),
(264,108,cs),
(250,97,o),
(228,92,o),
(203,92,cs),
(148,92,o),
(95,115,o),
(44,160,c),
(-26,72,l),
(21,19,o),
(101,-10,o),
(186,-10,cs)
);
}
);
width = 480;
},
{
anchors = (
{
name = bottom;
position = "{181, 0}";
}
);
layerId = "C7C3A33C-E883-49F1-BDC1-C605A621ADB5";
shapes = (
{
closed = 1;
nodes = (
(252,-10,o),
(310,9,o),
(350,40,cs),
(390,71,o),
(413,115,o),
(413,163,cs),
(413,203,o),
(398,229,o),
(370,250,cs),
(342,270,o),
(301,284,o),
(246,299,c),
(210,310,o),
(185,317,o),
(169,327,cs),
(153,337,o),
(147,349,o),
(147,370,cs),
(147,401,o),
(162,424,o),
(186,440,cs),
(210,456,o),
(243,464,o),
(282,464,cs),
(337,464,o),
(375,448,o),
(410,409,c),
(461,462,l),
(424,503,o),
(365,531,o),
(286,531,cs),
(222,531,o),
(165,513,o),
(125,481,cs),
(85,449,o),
(60,403,o),
(60,350,cs),
(60,314,o),
(71,291,o),
(95,275,cs),
(119,258,o),
(156,247,o),
(205,232,cs),
(245,220,o),
(274,213,o),
(294,202,cs),
(314,190,o),
(324,176,o),
(324,152,cs),
(324,124,o),
(310,100,o),
(287,84,cs),
(263,67,o),
(229,58,o),
(189,58,cs),
(128,58,o),
(74,78,o),
(26,125,c),
(-24,66,l),
(21,17,o),
(97,-10,o),
(181,-10,cs)
);
}
);
width = 475;
},
{
anchors = (
{
name = bottom;
position = "{159, 0}";
}
);
layerId = "F5CD80C0-3A8F-48DC-9182-C71904D0895A";
shapes = (
{
closed = 1;
nodes = (
(222,-10,o),
(276,5,o),
(315,34,cs),
(354,63,o),
(377,106,o),
(377,162,cs),
(377,197,o),
(361,219,o),
(333,236,cs),
(304,253,o),
(262,264,o),
(213,277,cs),
(173,288,o),
(143,296,o),
(123,308,cs),
(103,320,o),
(93,337,o),
(93,362,cs),
(93,414,o),
(117,450,o),
(152,474,cs),
(187,497,o),
(232,507,o),
(273,507,cs),
(337,507,o),
(392,485,o),
(407,444,c),
(426,452,l),
(413,495,o),
(361,527,o),
(281,527,cs),
(225,527,o),
(174,513,o),
(135,485,cs),
(96,457,o),
(72,415,o),
(72,356,cs),
(72,325,o),
(84,306,o),
(108,292,cs),
(131,278,o),
(164,268,o),
(208,257,cs),
(255,245,o),
(292,234,o),
(317,219,cs),
(342,204,o),
(356,184,o),
(356,155,cs),
(356,111,o),
(335,74,o),
(300,50,cs),
(265,25,o),
(218,10,o),
(163,10,cs),
(92,10,o),
(45,35,o),
(5,87,c),
(-12,74,l),
(25,17,o),
(83,-10,o),
(159,-10,cs)
);
}
);
width = 450;
}
);
leftKerningGroup = s2;
rightKerningGroup = s;
unicode = 115;
},
{
glyphname = t;
layers = (
{
anchors = (
{
name = bottom;
position = "{172, 0}";
}
);
layerId = "089F0C00-674C-4F2E-8375-778CCED9E96B";
shapes = (
{
closed = 1;
nodes = (
(45,17,o),
(100,-11,o),
(172,-11,cs),
(200,-11,o),
(229,-7,o),
(260,1,cs),
(291,8,o),
(322,17,o),
(351,29,c),
(349,179,l),
(336,174,o),
(323,170,o),
(312,167,cs),
(300,164,o),
(290,162,o),
(282,162,cs),
(263,162,o),
(252,170,o),
(252,191,cs),
(252,196,o),
(253,202,o),
(254,209,cs),
(291,383,l),
(388,383,l),
(418,526,l),
(322,526,l),
(357,691,l),
(167,691,l),
(132,526,l),
(71,526,l),
(40,383,l),
(101,383,l),
(50,142,ls),
(46,125,o),
(45,111,o),
(45,96,cs)
);
}
);
width = 415;
},
{
anchors = (
{
name = bottom;
position = "{158, 2}";
}
);
layerId = "D56C188B-E5B2-4235-B802-3B7EEA6FD951";
shapes = (
{
closed = 1;
nodes = (
(46,18,o),
(94,-9,o),
(158,-9,cs),
(185,-9,o),
(212,-5,o),
(239,2,cs),
(266,9,o),
(292,17,o),
(313,28,c),
(309,139,l),
(300,135,o),
(287,130,o),
(275,127,cs),
(262,123,o),
(249,120,o),
(237,120,cs),
(214,120,o),
(200,130,o),
(200,154,cs),
(200,159,o),
(201,164,o),
(202,171,cs),
(254,417,l),
(357,417,l),
(380,524,l),
(277,524,l),
(313,693,l),
(172,693,l),
(136,524,l),
(72,524,l),
(49,417,l),
(113,417,l),
(50,123,ls),
(47,108,o),
(46,97,o),
(46,85,cs)
);
}
);
width = 378;
},
{
anchors = (
{
name = bottom;
position = "{140, 0}";
}
);
layerId = "C7C3A33C-E883-49F1-BDC1-C605A621ADB5";
shapes = (
{
closed = 1;
nodes = (
(48,18,o),
(89,-7,o),
(142,-7,cs),
(169,-7,o),
(194,-3,o),
(217,4,cs),
(240,10,o),
(259,18,o),
(271,26,c),
(266,96,l),
(261,93,o),
(249,87,o),
(235,83,cs),
(221,78,o),
(204,74,o),
(188,74,cs),
(163,74,o),
(143,86,o),
(143,114,cs),
(143,119,o),
(144,124,o),
(145,129,cs),
(214,453,l),
(324,453,l),
(339,522,l),
(228,522,l),
(265,696,l),
(177,696,l),
(140,522,l),
(73,522,l),
(58,453,l),
(126,453,l),
(51,102,l),
(48,91,o),
(48,82,o),
(48,73,cs)
);
}
);
width = 338;
},
{
anchors = (
{
name = bottom;
position = "{119, -5}";
}
);
layerId = "F5CD80C0-3A8F-48DC-9182-C71904D0895A";
shapes = (
{
closed = 1;
nodes = (
(48,21,o),
(78,-5,o),
(119,-5,cs),
(146,-5,o),
(169,2,o),
(187,9,cs),
(205,16,o),
(216,24,o),
(216,24,c),
(209,40,l),
(208,39,o),
(197,33,o),
(182,27,cs),
(166,21,o),
(145,15,o),
(124,15,cs),
(93,15,o),
(69,33,o),
(69,66,cs),
(69,75,o),
(72,89,o),
(80,126,cs),
(160,499,l),
(279,499,l),
(283,519,l),
(165,519,l),
(203,700,l),
(183,700,l),
(145,519,l),
(73,519,l),
(69,499,l),
(140,499,l),
(50,75,ls),
(49,68,o),
(48,63,o),
(48,58,cs)
);
}
);
width = 281;
}
);
leftKerningGroup = t2;
rightKerningGroup = t;
unicode = 116;
},
{
glyphname = u;
layers = (
{
layerId = "089F0C00-674C-4F2E-8375-778CCED9E96B";
shapes = (
{
closed = 1;
nodes = (
(176,-10,o),
(208,-5,o),
(239,8,cs),
(270,20,o),
(298,41,o),
(321,70,c),
(306,0,l),
(488,0,l),
(600,526,l),
(410,526,l),
(342,204,l),
(322,181,o),
(305,168,o),
(290,160,cs),
(275,152,o),
(264,150,o),
(255,150,cs),
(228,150,o),
(214,167,o),
(214,196,cs),
(214,204,o),
(214,212,o),
(217,223,c),
(281,526,l),
(91,526,l),
(17,180,ls),
(12,155,o),
(9,133,o),
(9,113,cs),
(9,72,o),
(20,41,o),
(43,21,cs),
(66,0,o),
(100,-10,o),
(144,-10,cs)
);
}
);
width = 600;
},
{
layerId = "D56C188B-E5B2-4235-B802-3B7EEA6FD951";
shapes = (
{
closed = 1;
nodes = (
(188,-10,o),
(224,-2,o),
(258,14,cs),
(292,30,o),
(323,55,o),
(347,88,c),
(329,0,l),
(464,0,l),
(576,524,l),
(434,524,l),
(366,200,l),
(346,171,o),
(323,148,o),
(300,133,cs),
(276,117,o),
(255,110,o),
(232,110,cs),
(189,110,o),
(172,136,o),
(172,177,cs),
(172,192,o),
(174,207,o),
(178,224,cs),
(241,524,l),
(101,524,l),
(30,194,l),
(23,166,o),
(21,141,o),
(21,117,cs),
(21,77,o),
(31,46,o),
(52,24,cs),
(73,2,o),
(107,-10,o),
(152,-10,cs)
);
}
);
width = 586;
},
{
layerId = "C7C3A33C-E883-49F1-BDC1-C605A621ADB5";
shapes = (
{
closed = 1;
nodes = (
(200,-10,o),
(240,1,o),
(278,21,cs),
(316,41,o),
(349,70,o),
(376,107,c),
(353,0,l),
(438,0,l),
(549,522,l),
(461,522,l),
(392,195,l),
(371,159,o),
(342,126,o),
(310,103,cs),
(278,80,o),
(243,66,o),
(208,66,cs),
(147,66,o),
(126,103,o),
(126,156,cs),
(126,177,o),
(130,201,o),
(135,226,cs),
(198,522,l),
(111,522,l),
(44,209,ls),
(37,178,o),
(33,149,o),
(33,122,cs),
(33,83,o),
(41,50,o),
(61,27,cs),
(81,3,o),
(113,-10,o),
(161,-10,cs)
);
}
);
width = 571;
},
{
layerId = "F5CD80C0-3A8F-48DC-9182-C71904D0895A";
shapes = (
{
closed = 1;
nodes = (
(214,-10,o),
(259,5,o),
(302,30,cs),
(345,54,o),
(383,91,o),
(412,132,c),
(384,0,l),
(404,0,l),
(515,519,l),
(495,519,l),
(424,189,l),
(403,144,o),
(365,98,o),
(321,65,cs),
(277,32,o),
(226,10,o),
(175,10,cs),
(94,10,o),
(67,59,o),
(67,128,cs),
(67,159,o),
(72,192,o),
(80,228,cs),
(142,519,l),
(122,519,l),
(60,228,ls),
(52,193,o),
(47,157,o),
(47,124,cs),
(47,87,o),
(54,53,o),
(73,29,cs),
(92,5,o),
(123,-10,o),
(171,-10,cs)
);
}
);
width = 549;
}
);
leftKerningGroup = u2;
rightKerningGroup = u;
unicode = 117;
},
{
glyphname = v;
layers = (
{
layerId = "089F0C00-674C-4F2E-8375-778CCED9E96B";
shapes = (
{
closed = 1;
nodes = (
(96,0,l),
(311,0,l),
(594,526,l),
(405,526,l),
(240,149,l),
(240,526,l),
(43,526,l)
);
}
);
width = 548;
},
{
layerId = "D56C188B-E5B2-4235-B802-3B7EEA6FD951";
shapes = (
{
closed = 1;
nodes = (
(117,0,l),
(279,0,l),
(562,524,l),
(418,524,l),
(224,114,l),
(195,524,l),
(49,524,l)
);
}
);
width = 529;
},
{
layerId = "C7C3A33C-E883-49F1-BDC1-C605A621ADB5";
shapes = (
{
closed = 1;
nodes = (
(139,0,l),
(245,0,l),
(528,522,l),
(433,522,l),
(206,77,l),
(147,522,l),
(56,522,l)
);
}
);
width = 508;
},
{
layerId = "F5CD80C0-3A8F-48DC-9182-C71904D0895A";
shapes = (
{
closed = 1;
nodes = (
(147,0,l),
(170,0,l),
(456,519,l),
(431,519,l),
(163,28,l),
(85,519,l),
(64,519,l)
);
}
);
width = 451;
}
);
unicode = 118;
},
{
glyphname = w;
layers = (
{
layerId = "089F0C00-674C-4F2E-8375-778CCED9E96B";
shapes = (
{
closed = 1;
nodes = (
(582,0,l),
(852.337,526,l),
(692.337,526,l),
(536.438,209,l),
(516.537,471,l),
(367.537,471,l),
(241.438,209,l),
(214.337,526,l),
(51.337,526,l),
(101,0,l),
(271,0,l),
(390.132,248,l),
(411,0,l)
);
}
);
width = 809;
},
{
layerId = "C7C3A33C-E883-49F1-BDC1-C605A621ADB5";
shapes = (
{
closed = 1;
nodes = (
(510,0,l),
(785.161,522,l),
(707.161,522,l),
(487.974,103,l),
(449.766,471,l),
(378.766,471,l),
(180.974,103,l),
(142.161,522,l),
(64.161,522,l),
(119,0,l),
(197,0,l),
(394.976,369,l),
(431,0,l)
);
}
);
width = 756;
},
{
layerId = "F5CD80C0-3A8F-48DC-9182-C71904D0895A";
shapes = (
{
closed = 1;
nodes = (
(464,0,l),
(741,519,l),
(718,519,l),
(463,36,l),
(408,471,l),
(386,471,l),
(148,36,l),
(97,519,l),
(74,519,l),
(130,0,l),
(150,0,l),
(393,445,l),
(444,0,l)
);
}
);
width = 722;
},
{
layerId = "D56C188B-E5B2-4235-B802-3B7EEA6FD951";
shapes = (
{
closed = 1;
nodes = (
(543,0,l),
(815.28,524,l),
(700.28,524,l),
(512.964,151,l),
(480.272,471,l),
(373.272,471,l),
(210.964,151,l),
(175.28,524,l),
(58.28,524,l),
(111,0,l),
(230,0,l),
(389.515,314,l),
(422,0,l)
);
}
);
width = 780;
}
);
leftKerningGroup = w2;
rightKerningGroup = w;
unicode = 119;
},
{
glyphname = x;
layers = (
{
layerId = "089F0C00-674C-4F2E-8375-778CCED9E96B";
shapes = (
{
closed = 1;
nodes = (
(-69,0,l),
(124,0,l),
(222,129,l),
(235,149,l),
(239,129,l),
(283,0,l),
(476,0,l),
(361,263,l),
(583,526,l),
(393,526,l),
(296,397,l),
(283,376,l),
(278,397,l),
(240,526,l),
(48,526,l),
(157,263,l)
);
}
);
width = 535;
},
{
layerId = "D56C188B-E5B2-4235-B802-3B7EEA6FD951";
shapes = (
{
closed = 1;
nodes = (
(-61,0,l),
(84,0,l),
(218,159,l),
(230,176,l),
(235,159,l),
(302,0,l),
(447,0,l),
(325,262,l),
(556,524,l),
(412,524,l),
(279,365,l),
(266,346,l),
(262,365,l),
(198,524,l),
(54,524,l),
(172,262,l)
);
}
);
width = 514;
},
{
layerId = "C7C3A33C-E883-49F1-BDC1-C605A621ADB5";
shapes = (
{
closed = 1;
nodes = (
(-52,0,l),
(41,0,l),
(214,191,l),
(225,206,l),
(231,191,l),
(323,0,l),
(416,0,l),
(286,260,l),
(526,522,l),
(433,522,l),
(260,330,l),
(248,314,l),
(244,330,l),
(152,522,l),
(60,522,l),
(189,260,l)
);
}
);
width = 492;
},
{
layerId = "F5CD80C0-3A8F-48DC-9182-C71904D0895A";
shapes = (
{
closed = 1;
nodes = (
(-44,0,l),
(-18,0,l),
(206,234,l),
(216,244,l),
(221,232,l),
(347,0,l),
(373,0,l),
(232,258,l),
(485,519,l),
(459,519,l),
(230,281,l),
(222,273,l),
(217,285,l),
(90,519,l),
(64,519,l),
(206,258,l)
);
}
);
width = 456;
}
);
unicode = 120;
},
{
glyphname = y;
layers = (
{
anchors = (
{
name = bottom;
position = "{372, 0}";
},
{
name = top;
position = "{305, 522}";
}
);
layerId = "089F0C00-674C-4F2E-8375-778CCED9E96B";
shapes = (
{
closed = 1;
nodes = (
(11,-72,o),
(-16,-66,o),
(-35,-58,c),
(-82,-202,l),
(-34,-222,o),
(10,-232,o),
(53,-232,cs),
(159,-232,o),
(236,-152,o),
(292,-38,cs),
(569,526,l),
(392,526,l),
(245,161,l),
(245,526,l),
(40,526,l),
(107,0,l),
(89,-33,o),
(74,-72,o),
(29,-72,cs)
);
}
);
width = 543;
},
{
anchors = (
{
name = bottom;
position = "{344, 0}";
},
{
name = top;
position = "{293, 522}";
}
);
layerId = "D56C188B-E5B2-4235-B802-3B7EEA6FD951";
shapes = (
{
closed = 1;
nodes = (
(-3,-115,o),
(-30,-107,o),
(-47,-96,c),
(-88,-197,l),
(-51,-217,o),
(-11,-228,o),
(30,-228,cs),
(129,-228,o),
(199,-145,o),
(262,-28,cs),
(557,524,l),
(431,524,l),
(231,116,l),
(192,524,l),
(49,524,l),
(133,0,l),
(108,-42,o),
(77,-115,o),
(18,-115,cs)
);
}
);
width = 520;
},
{
anchors = (
{
name = bottom;
position = "{321, 0}";
},
{
name = top;
position = "{284, 522}";
}
);
layerId = "C7C3A33C-E883-49F1-BDC1-C605A621ADB5";
shapes = (
{
closed = 1;
nodes = (
(-15,-150,o),
(-42,-141,o),
(-57,-128,c),
(-93,-193,l),
(-65,-213,o),
(-28,-225,o),
(11,-225,cs),
(105,-225,o),
(169,-140,o),
(238,-19,cs),
(548,522,l),
(464,522,l),
(219,79,l),
(148,522,l),
(56,522,l),
(154,0,l),
(123,-50,o),
(79,-150,o),
(9,-150,cs)
);
}
);
width = 501;
},
{
anchors = (
{
name = bottom;
position = "{270, 0}";
},
{
name = top;
position = "{292, 519}";
}
);
layerId = "F5CD80C0-3A8F-48DC-9182-C71904D0895A";
shapes = (
{
closed = 1;
nodes = (
(-60,-204,o),
(-90,-190,o),
(-102,-174,c),
(-117,-189,l),
(-104,-209,o),
(-70,-223,o),
(-34,-223,cs),
(48,-223,o),
(104,-144,o),
(179,-24,cs),
(519,519,l),
(498,519,l),
(187,25,l),
(75,519,l),
(54,519,l),
(172,0,l),
(127,-72,o),
(52,-204,o),
(-31,-204,cs)
);
}
);
width = 446;
}
);
leftKerningGroup = y2;
rightKerningGroup = y;
unicode = 121;
},
{
glyphname = z;
layers = (
{
layerId = "089F0C00-674C-4F2E-8375-778CCED9E96B";
shapes = (
{
closed = 1;
nodes = (
(-42,0,l),
(384,0,l),
(412,130,l),
(184,130,l),
(463,414,l),
(487,526,l),
(85,526,l),
(57,396,l),
(261,396,l),
(-18,112,l)
);
}
);
width = 472;
},
{
layerId = "D56C188B-E5B2-4235-B802-3B7EEA6FD951";
shapes = (
{
closed = 1;
nodes = (
(-39,0,l),
(379,0,l),
(400,98,l),
(134,98,l),
(467,438,l),
(485,524,l),
(85,524,l),
(64,426,l),
(314,426,l),
(-20,86,l)
);
}
);
width = 471;
},
{
layerId = "C7C3A33C-E883-49F1-BDC1-C605A621ADB5";
shapes = (
{
closed = 1;
nodes = (
(-35,0,l),
(373,0,l),
(387,64,l),
(79,64,l),
(471,465,l),
(483,522,l),
(85,522,l),
(71,458,l),
(371,458,l),
(-23,57,l)
);
}
);
width = 470;
},
{
layerId = "F5CD80C0-3A8F-48DC-9182-C71904D0895A";
shapes = (
{
closed = 1;
nodes = (
(-36,0,l),
(360,0,l),
(365,20,l),
(-6,20,l),
(470,499,l),
(474,519,l),
(79,519,l),
(75,499,l),
(445,499,l),
(-32,20,l)
);
}
);
width = 457;
}
);
leftKerningGroup = z2;
rightKerningGroup = z;
unicode = 122;
},
{
glyphname = braceleft;
layers = (
{
layerId = "089F0C00-674C-4F2E-8375-778CCED9E96B";
shapes = (
{
closed = 1;
nodes = (
(377,590,l),
(409,740,l),
(209,740,ls),
(201,740,o),
(185,734,o),
(180,710,cs),
(136,501,ls),
(132,482,o),
(120,464,o),
(106,450,cs),
(92,436,o),
(74,426,o),
(61,426,c),
(34,296,l),
(55,291,o),
(78,269,o),
(78,236,cs),
(78,229,o),
(77,226,o),
(76,219,cs),
(29,-1,ls),
(28,-5,o),
(28,-8,o),
(28,-11,cs),
(28,-28,o),
(38,-31,o),
(45,-31,cs),
(245,-31,l),
(277,119,l),
(225,119,l),
(260,284,ls),
(261,291,o),
(262,295,o),
(262,302,cs),
(262,327,o),
(248,345,o),
(236,360,c),
(260,379,o),
(284,399,o),
(292,436,cs),
(325,590,l)
);
}
);
width = 360;
},
{
layerId = "D56C188B-E5B2-4235-B802-3B7EEA6FD951";
shapes = (
{
closed = 1;
nodes = (
(339,627,l),
(363,740,l),
(206,740,ls),
(198,740,o),
(182,734,o),
(177,710,cs),
(128,477,ls),
(125,462,o),
(115,445,o),
(104,433,cs),
(92,420,o),
(76,410,o),
(63,410,c),
(43,312,l),
(63,308,o),
(79,288,o),
(79,260,cs),
(79,253,o),
(79,250,o),
(78,243,cs),
(26,-1,ls),
(25,-5,o),
(25,-8,o),
(25,-11,cs),
(25,-28,o),
(34,-31,o),
(42,-31,cs),
(199,-31,l),
(223,82,l),
(171,82,l),
(215,290,ls),
(216,295,o),
(216,301,o),
(216,306,cs),
(216,327,o),
(207,345,o),
(195,360,c),
(219,379,o),
(239,402,o),
(244,430,c),
(287,627,l)
);
}
);
width = 314;
},
{
layerId = "C7C3A33C-E883-49F1-BDC1-C605A621ADB5";
shapes = (
{
closed = 1;
nodes = (
(297,668,l),
(313,740,l),
(202,740,ls),
(195,740,o),
(179,735,o),
(174,710,cs),
(119,450,l),
(118,441,o),
(110,426,o),
(101,414,cs),
(92,402,o),
(79,393,o),
(66,393,c),
(52,329,l),
(71,326,o),
(81,308,o),
(81,285,cs),
(81,280,o),
(81,275,o),
(80,270,cs),
(23,-1,ls),
(22,-5,o),
(22,-9,o),
(22,-12,cs),
(22,-27,o),
(30,-31,o),
(38,-31,cs),
(149,-31,l),
(164,41,l),
(112,41,l),
(166,296,ls),
(167,301,o),
(167,306,o),
(167,311,cs),
(167,328,o),
(163,347,o),
(151,360,c),
(175,379,o),
(189,405,o),
(193,424,cs),
(245,668,l)
);
}
);
width = 265;
},
{
layerId = "F5CD80C0-3A8F-48DC-9182-C71904D0895A";
shapes = (
{
closed = 1;
nodes = (
(256,720,l),
(260,740,l),
(210,740,ls),
(203,740,o),
(187,737,o),
(182,710,c),
(119,416,ls),
(118,412,o),
(116,401,o),
(110,391,cs),
(104,381,o),
(94,371,o),
(81,371,c),
(77,351,l),
(93,348,o),
(98,336,o),
(98,321,cs),
(98,314,o),
(97,309,o),
(96,304,cs),
(31,-1,ls),
(30,-5,o),
(30,-9,o),
(30,-12,cs),
(30,-27,o),
(38,-31,o),
(46,-31,cs),
(96,-31,l),
(101,-11,l),
(48,-11,l),
(115,304,l),
(115,307,o),
(117,315,o),
(117,326,cs),
(117,338,o),
(115,351,o),
(107,360,c),
(131,379,o),
(138,409,o),
(139,416,cs),
(204,720,l)
);
}
);
width = 217;
}
);
unicode = 123;
},
{
glyphname = bar;
layers = (
{
layerId = "089F0C00-674C-4F2E-8375-778CCED9E96B";
shapes = (
{
closed = 1;
nodes = (
(264,-130,l),
(264,775,l),
(104,775,l),
(104,-130,l)
);
}
);
width = 358;
},
{
layerId = "D56C188B-E5B2-4235-B802-3B7EEA6FD951";
shapes = (
{
closed = 1;
nodes = (
(230,-130,l),
(230,775,l),
(111,775,l),
(111,-130,l)
);
}
);
width = 331;
},
{
layerId = "C7C3A33C-E883-49F1-BDC1-C605A621ADB5";
shapes = (
{
closed = 1;
nodes = (
(194,-130,l),
(194,775,l),
(118,775,l),
(118,-130,l)
);
}
);
width = 302;
},
{
layerId = "F5CD80C0-3A8F-48DC-9182-C71904D0895A";
shapes = (
{
closed = 1;
nodes = (
(142,-130,l),
(142,775,l),
(122,775,l),
(122,-130,l)
);
}
);
width = 254;
}
);
unicode = 124;
},
{
glyphname = braceright;
layers = (
{
layerId = "089F0C00-674C-4F2E-8375-778CCED9E96B";
shapes = (
{
closed = 1;
nodes = (
(164,590,l),
(131,436,l),
(128,429,o),
(129,424,o),
(129,417,cs),
(129,392,o),
(142,375,o),
(154,360,c),
(131,341,o),
(106,320,o),
(98,284,cs),
(63,119,l),
(11,119,l),
(-21,-31,l),
(179,-31,ls),
(186,-31,o),
(203,-26,o),
(208,-1,cs),
(254,219,ls),
(263,262,o),
(301,289,o),
(329,296,c),
(357,426,l),
(333,426,o),
(312,454,o),
(312,486,cs),
(312,491,o),
(313,496,o),
(314,501,cs),
(359,710,ls),
(360,714,o),
(360,717,o),
(360,720,cs),
(360,735,o),
(350,740,o),
(343,740,cs),
(143,740,l),
(111,590,l)
);
}
);
width = 364;
},
{
layerId = "D56C188B-E5B2-4235-B802-3B7EEA6FD951";
shapes = (
{
closed = 1;
nodes = (
(170,627,l),
(128,430,l),
(125,425,o),
(126,420,o),
(126,413,cs),
(126,392,o),
(135,375,o),
(146,360,c),
(123,341,o),
(103,318,o),
(98,290,c),
(53,82,l),
(1,82,l),
(-23,-31,l),
(134,-31,ls),
(142,-31,o),
(158,-25,o),
(163,-1,cs),
(214,243,ls),
(222,280,o),
(252,307,o),
(279,312,c),
(300,410,l),
(276,410,o),
(262,436,o),
(262,463,cs),
(262,467,o),
(263,472,o),
(264,477,cs),
(314,710,ls),
(315,714,o),
(315,717,o),
(315,720,cs),
(315,735,o),
(303,740,o),
(298,740,cs),
(141,740,l),
(117,627,l)
);
}
);
width = 316;
},
{
layerId = "C7C3A33C-E883-49F1-BDC1-C605A621ADB5";
shapes = (
{
closed = 1;
nodes = (
(176,668,l),
(124,424,ls),
(123,419,o),
(122,415,o),
(122,408,cs),
(122,392,o),
(127,375,o),
(138,360,c),
(115,341,o),
(101,315,o),
(97,296,cs),
(43,41,l),
(-10,41,l),
(-25,-31,l),
(85,-31,ls),
(94,-31,o),
(109,-24,o),
(114,-1,cs),
(171,270,l),
(178,299,o),
(199,325,o),
(224,329,c),
(238,393,l),
(215,393,o),
(208,418,o),
(208,438,cs),
(208,442,o),
(208,446,o),
(209,450,cs),
(265,710,ls),
(266,713,o),
(266,716,o),
(266,719,cs),
(266,736,o),
(254,740,o),
(249,740,cs),
(139,740,l),
(124,668,l)
);
}
);
width = 264;
},
{
layerId = "F5CD80C0-3A8F-48DC-9182-C71904D0895A";
shapes = (
{
closed = 1;
nodes = (
(192,720,l),
(127,416,ls),
(126,413,o),
(125,405,o),
(125,394,cs),
(125,383,o),
(127,371,o),
(135,360,c),
(112,341,o),
(104,311,o),
(103,304,cs),
(36,-11,l),
(-16,-11,l),
(-20,-31,l),
(30,-31,ls),
(41,-31,o),
(54,-24,o),
(59,-1,cs),
(123,304,ls),
(127,324,o),
(139,348,o),
(162,351,c),
(166,371,l),
(149,371,o),
(145,386,o),
(145,399,cs),
(145,406,o),
(146,413,o),
(147,416,cs),
(210,710,ls),
(211,713,o),
(211,716,o),
(211,719,cs),
(211,738,o),
(198,740,o),
(194,740,cs),
(144,740,l),
(140,720,l)
);
}
);
width = 218;
}
);
unicode = 125;
},
{
glyphname = asciitilde;
layers = (
{
layerId = "089F0C00-674C-4F2E-8375-778CCED9E96B";
shapes = (
{
closed = 1;
nodes = (
(133,216,l),
(133,217,o),
(134,229,o),
(142,241,cs),
(150,253,o),
(166,264,o),
(197,264,cs),
(229,264,o),
(257,252,o),
(287,240,cs),
(317,228,o),
(347,216,o),
(386,216,cs),
(451,216,o),
(494,250,o),
(520,287,cs),
(546,324,o),
(556,363,o),
(556,374,c),
(456,374,l),
(456,373,o),
(453,359,o),
(444,347,cs),
(435,335,o),
(418,323,o),
(387,323,cs),
(355,323,o),
(328,336,o),
(299,349,cs),
(270,361,o),
(238,374,o),
(198,374,cs),
(134,374,o),
(94,343,o),
(68,308,cs),
(42,272,o),
(32,232,o),
(32,216,c)
);
}
);
width = 587;
},
{
layerId = "D56C188B-E5B2-4235-B802-3B7EEA6FD951";
shapes = (
{
closed = 1;
nodes = (
(118,226,l),
(118,227,o),
(122,240,o),
(132,253,cs),
(142,265,o),
(158,278,o),
(186,278,cs),
(214,278,o),
(239,265,o),
(265,253,cs),
(291,240,o),
(318,226,o),
(354,226,cs),
(410,226,o),
(448,255,o),
(473,287,cs),
(497,319,o),
(509,352,o),
(510,360,c),
(433,360,l),
(433,357,o),
(429,344,o),
(418,332,cs),
(406,320,o),
(389,308,o),
(361,308,cs),
(332,308,o),
(308,322,o),
(282,335,cs),
(256,348,o),
(228,362,o),
(192,362,cs),
(139,362,o),
(102,335,o),
(78,304,cs),
(53,273,o),
(41,238,o),
(40,226,c)
);
}
);
width = 551;
},
{
layerId = "C7C3A33C-E883-49F1-BDC1-C605A621ADB5";
shapes = (
{
closed = 1;
nodes = (
(101,237,l),
(101,238,o),
(107,252,o),
(120,266,cs),
(132,280,o),
(150,293,o),
(174,293,cs),
(198,293,o),
(219,280,o),
(241,266,cs),
(263,252,o),
(287,237,o),
(319,237,cs),
(364,237,o),
(399,262,o),
(423,288,cs),
(446,314,o),
(459,340,o),
(460,344,c),
(409,344,l),
(409,341,o),
(402,328,o),
(389,316,cs),
(376,304,o),
(357,292,o),
(332,292,cs),
(305,292,o),
(285,307,o),
(263,321,cs),
(241,335,o),
(217,349,o),
(186,349,cs),
(145,349,o),
(111,326,o),
(88,300,cs),
(64,274,o),
(52,245,o),
(49,237,c)
);
}
);
width = 513;
},
{
layerId = "F5CD80C0-3A8F-48DC-9182-C71904D0895A";
shapes = (
{
closed = 1;
nodes = (
(76,251,l),
(76,252,o),
(81,267,o),
(93,283,cs),
(104,298,o),
(120,312,o),
(140,312,cs),
(161,312,o),
(183,297,o),
(207,282,cs),
(231,266,o),
(257,251,o),
(289,251,cs),
(324,251,o),
(346,270,o),
(360,288,cs),
(374,306,o),
(379,324,o),
(379,324,c),
(359,325,l),
(359,322,o),
(354,309,o),
(342,296,cs),
(330,283,o),
(313,271,o),
(289,271,cs),
(262,271,o),
(239,286,o),
(215,302,cs),
(191,317,o),
(167,332,o),
(140,332,cs),
(111,332,o),
(90,313,o),
(76,293,cs),
(62,273,o),
(56,254,o),
(56,251,c)
);
}
);
width = 442;
}
);
unicode = 126;
},
{
glyphname = exclamdown;
layers = (
{
layerId = "089F0C00-674C-4F2E-8375-778CCED9E96B";
shapes = (
{
closed = 1;
nodes = (
(124,257,l),
(30,7,l),
(-13,-198,l),
(177,-198,l),
(220,7,l),
(234,257,l)
);
},
{
closed = 1;
nodes = (
(317,468,o),
(313,490,o),
(299,509,c),
(284,527,o),
(264,536,o),
(238,536,cs),
(212,536,o),
(188,527,o),
(166,509,cs),
(143,490,o),
(129,468,o),
(124,442,cs),
(118,416,o),
(123,394,o),
(138,376,c),
(152,357,o),
(172,348,o),
(198,348,cs),
(224,348,o),
(248,357,o),
(271,376,cs),
(293,394,o),
(306,416,o),
(312,442,cs)
);
}
);
width = 330;
},
{
layerId = "D56C188B-E5B2-4235-B802-3B7EEA6FD951";
shapes = (
{
closed = 1;
nodes = (
(114,276,l),
(33,20,l),
(-13,-198,l),
(122,-198,l),
(168,20,l),
(197,276,l)
);
},
{
closed = 1;
nodes = (
(272,481,o),
(269,498,o),
(258,513,c),
(246,527,o),
(231,534,o),
(211,534,cs),
(191,534,o),
(172,527,o),
(155,513,cs),
(137,498,o),
(126,481,o),
(122,461,cs),
(118,441,o),
(121,424,o),
(133,409,cs),
(144,394,o),
(159,387,o),
(179,387,cs),
(199,387,o),
(218,394,o),
(236,409,cs),
(253,424,o),
(264,441,o),
(268,461,cs)
);
}
);
width = 295;
},
{
layerId = "C7C3A33C-E883-49F1-BDC1-C605A621ADB5";
shapes = (
{
closed = 1;
nodes = (
(107,288,l),
(37,28,l),
(-11,-198,l),
(77,-198,l),
(125,28,l),
(165,288,l)
);
},
{
closed = 1;
nodes = (
(235,490,o),
(233,504,o),
(224,515,cs),
(216,526,o),
(203,531,o),
(188,531,cs),
(173,531,o),
(159,526,o),
(145,515,cs),
(132,504,o),
(123,490,o),
(120,475,cs),
(117,460,o),
(120,447,o),
(129,436,cs),
(137,425,o),
(149,419,o),
(164,419,cs),
(179,419,o),
(194,425,o),
(208,436,cs),
(221,447,o),
(229,460,o),
(232,475,cs)
);
}
);
width = 258;
},
{
layerId = "F5CD80C0-3A8F-48DC-9182-C71904D0895A";
shapes = (
{
closed = 1;
nodes = (
(116,319,l),
(73,119,l),
(6,-198,l),
(26,-198,l),
(93,119,l),
(136,319,l)
);
},
{
closed = 1;
nodes = (
(200,502,o),
(198,510,o),
(193,517,cs),
(187,524,o),
(180,527,o),
(171,527,cs),
(162,527,o),
(153,524,o),
(145,517,cs),
(136,510,o),
(132,502,o),
(130,493,cs),
(128,484,o),
(129,476,o),
(135,470,cs),
(140,463,o),
(148,460,o),
(157,460,cs),
(166,460,o),
(174,463,o),
(183,470,cs),
(191,476,o),
(196,484,o),
(198,493,cs)
);
}
);
width = 224;
}
);
unicode = 161;
},
{
glyphname = cent;
layers = (
{
layerId = "089F0C00-674C-4F2E-8375-778CCED9E96B";
shapes = (
{
closed = 1;
nodes = (
(258,-120,l),
(282,-10,l),
(313,-10,o),
(359,2,o),
(405,26,cs),
(451,49,o),
(497,85,o),
(529,133,c),
(356,189,l),
(351,182,o),
(346,177,o),
(340,171,cs),
(334,165,o),
(326,159,o),
(317,155,c),
(363,370,l),
(372,367,o),
(385,353,o),
(388,337,c),
(585,393,l),
(557,486,o),
(480,531,o),
(397,534,c),
(421,645,l),
(342,645,l),
(318,534,l),
(222,517,o),
(149,473,o),
(100,415,cs),
(51,357,o),
(25,285,o),
(25,213,cs),
(25,158,o),
(41,105,o),
(72,65,cs),
(103,24,o),
(147,-5,o),
(203,-9,c),
(179,-120,l)
);
},
{
closed = 1;
nodes = (
(222,253,o),
(228,281,o),
(240,306,cs),
(251,330,o),
(265,350,o),
(281,361,c),
(239,164,l),
(234,171,o),
(229,180,o),
(226,192,cs),
(223,203,o),
(222,214,o),
(222,226,cs)
);
}
);
width = 599;
},
{
layerId = "D56C188B-E5B2-4235-B802-3B7EEA6FD951";
shapes = (
{
closed = 1;
nodes = (
(240,-120,l),
(263,-10,l),
(295,-10,o),
(341,1,o),
(385,24,cs),
(429,47,o),
(474,82,o),
(502,127,c),
(373,169,l),
(365,154,o),
(352,142,o),
(337,133,cs),
(322,124,o),
(305,117,o),
(290,113,c),
(352,409,l),
(380,406,o),
(404,388,o),
(412,356,c),
(558,398,l),
(534,485,o),
(465,529,o),
(378,532,c),
(402,645,l),
(341,645,l),
(316,532,l),
(225,519,o),
(154,475,o),
(104,417,cs),
(54,359,o),
(26,285,o),
(26,212,cs),
(26,159,o),
(43,105,o),
(73,65,cs),
(103,24,o),
(146,-5,o),
(202,-9,c),
(178,-120,l)
);
},
{
closed = 1;
nodes = (
(173,261,o),
(185,302,o),
(206,335,cs),
(227,368,o),
(256,395,o),
(289,403,c),
(228,120,l),
(211,127,o),
(196,140,o),
(187,159,cs),
(178,178,o),
(173,200,o),
(173,224,cs)
);
}
);
width = 575;
},
{
layerId = "C7C3A33C-E883-49F1-BDC1-C605A621ADB5";
shapes = (
{
closed = 1;
nodes = (
(220,-120,l),
(243,-10,l),
(276,-10,o),
(321,1,o),
(364,23,cs),
(407,45,o),
(448,77,o),
(473,121,c),
(392,147,l),
(381,124,o),
(359,105,o),
(335,92,cs),
(310,79,o),
(283,71,o),
(260,68,c),
(341,452,l),
(388,449,o),
(423,425,o),
(438,377,c),
(529,404,l),
(508,481,o),
(449,527,o),
(358,530,c),
(382,645,l),
(339,645,l),
(314,530,l),
(230,521,o),
(159,478,o),
(108,419,cs),
(57,360,o),
(28,286,o),
(28,211,cs),
(28,158,o),
(44,105,o),
(73,65,cs),
(102,24,o),
(145,-5,o),
(200,-9,c),
(176,-120,l)
);
},
{
closed = 1;
nodes = (
(119,270,o),
(138,324,o),
(170,368,cs),
(202,411,o),
(246,442,o),
(297,449,c),
(217,72,l),
(186,79,o),
(162,97,o),
(145,124,cs),
(128,151,o),
(119,185,o),
(119,221,cs)
);
}
);
width = 548;
},
{
layerId = "F5CD80C0-3A8F-48DC-9182-C71904D0895A";
shapes = (
{
closed = 1;
nodes = (
(194,-120,l),
(218,-10,l),
(254,-10,o),
(298,1,o),
(338,22,cs),
(378,42,o),
(415,73,o),
(436,113,c),
(417,119,l),
(402,86,o),
(368,59,o),
(331,40,cs),
(294,21,o),
(253,10,o),
(222,10,c),
(328,507,l),
(397,504,o),
(450,473,o),
(471,404,c),
(492,411,l),
(475,478,o),
(431,524,o),
(332,527,c),
(357,645,l),
(338,645,l),
(313,527,l),
(237,523,o),
(167,482,o),
(116,423,cs),
(64,363,o),
(31,286,o),
(31,210,cs),
(31,157,o),
(46,104,o),
(75,64,cs),
(103,24,o),
(146,-5,o),
(199,-9,c),
(175,-120,l)
);
},
{
closed = 1;
nodes = (
(51,276,o),
(79,348,o),
(124,405,cs),
(169,461,o),
(235,503,o),
(308,507,c),
(203,11,l),
(156,15,o),
(119,40,o),
(92,77,cs),
(65,113,o),
(51,161,o),
(51,212,cs)
);
}
);
width = 522;
}
);
unicode = 162;
},
{
glyphname = sterling;
layers = (
{
layerId = "089F0C00-674C-4F2E-8375-778CCED9E96B";
shapes = (
{
closed = 1;
nodes = (
(58,308,l),
(136,308,l),
(136,302,o),
(134,295,o),
(133,289,cs),
(120,227,o),
(67,157,o),
(7,125,c),
(-19,0,l),
(467,0,l),
(503,170,l),
(220,170,l),
(258,207,o),
(278,242,o),
(290,287,cs),
(292,294,o),
(294,301,o),
(295,308,c),
(463,308,l),
(484,408,l),
(291,408,l),
(291,416,o),
(290,424,o),
(288,432,cs),
(283,457,o),
(273,481,o),
(279,510,cs),
(286,544,o),
(316,562,o),
(347,562,cs),
(389,562,o),
(438,532,o),
(464,493,c),
(584,610,l),
(542,677,o),
(467,715,o),
(381,715,cs),
(277,715,o),
(144,650,o),
(119,531,cs),
(112,497,o),
(115,465,o),
(121,433,cs),
(122,425,o),
(124,417,o),
(126,408,c),
(80,408,l)
);
}
);
width = 570;
},
{
layerId = "D56C188B-E5B2-4235-B802-3B7EEA6FD951";
shapes = (
{
closed = 1;
nodes = (
(54,308,l),
(148,308,l),
(148,297,o),
(146,286,o),
(144,275,cs),
(128,202,o),
(66,135,o),
(2,92,c),
(-18,0,l),
(445,0,l),
(472,127,l),
(165,127,l),
(215,171,o),
(251,220,o),
(264,281,cs),
(266,290,o),
(267,299,o),
(268,308,c),
(429,308,l),
(447,392,l),
(262,392,l),
(261,400,o),
(259,408,o),
(257,416,cs),
(246,454,o),
(235,488,o),
(242,522,cs),
(252,569,o),
(293,600,o),
(338,600,cs),
(385,600,o),
(434,568,o),
(457,523,c),
(548,610,l),
(512,676,o),
(444,715,o),
(364,715,cs),
(265,715,o),
(145,646,o),
(121,536,cs),
(111,490,o),
(122,449,o),
(133,407,cs),
(134,402,o),
(136,397,o),
(137,392,c),
(72,392,l)
);
}
);
width = 534;
},
{
layerId = "C7C3A33C-E883-49F1-BDC1-C605A621ADB5";
shapes = (
{
closed = 1;
nodes = (
(50,307,l),
(161,307,l),
(162,292,o),
(160,276,o),
(157,260,cs),
(139,176,o),
(64,110,o),
(-4,56,c),
(-16,0,l),
(419,0,l),
(436,80,l),
(107,80,l),
(167,134,o),
(217,188,o),
(233,264,cs),
(236,279,o),
(238,293,o),
(238,307,c),
(392,307,l),
(407,375,l),
(231,375,l),
(228,388,o),
(225,401,o),
(221,413,cs),
(207,456,o),
(193,494,o),
(202,535,cs),
(215,594,o),
(270,642,o),
(329,642,cs),
(381,642,o),
(429,608,o),
(449,556,c),
(509,610,l),
(481,675,o),
(420,715,o),
(346,715,cs),
(251,715,o),
(146,644,o),
(124,542,cs),
(114,493,o),
(128,450,o),
(142,406,cs),
(145,396,o),
(148,386,o),
(151,375,c),
(65,375,l)
);
}
);
width = 496;
},
{
layerId = "F5CD80C0-3A8F-48DC-9182-C71904D0895A";
shapes = (
{
closed = 1;
nodes = (
(56,346,l),
(135,346,l),
(142,315,o),
(145,281,o),
(136,241,cs),
(116,146,o),
(24,71,o),
(-46,10,c),
(-49,0,l),
(342,0,l),
(347,20,l),
(-4,20,l),
(66,83,o),
(138,152,o),
(157,242,cs),
(166,282,o),
(164,315,o),
(158,346,c),
(356,346,l),
(360,366,l),
(152,366,l),
(148,381,o),
(143,396,o),
(138,410,cs),
(121,457,o),
(103,500,o),
(114,552,cs),
(131,630,o),
(204,695,o),
(281,695,cs),
(340,695,o),
(385,658,o),
(404,598,c),
(423,610,l),
(402,674,o),
(353,715,o),
(287,715,cs),
(198,715,o),
(111,640,o),
(92,550,cs),
(80,494,o),
(98,451,o),
(117,405,cs),
(122,392,o),
(126,379,o),
(130,366,c),
(60,366,l)
);
}
);
width = 452;
}
);
unicode = 163;
},
{
glyphname = currency;
layers = (
{
layerId = "089F0C00-674C-4F2E-8375-778CCED9E96B";
shapes = (
{
closed = 1;
nodes = (
(131,578,l),
(60,507,l),
(125,441,l),
(106,410,o),
(97,375,o),
(97,338,cs),
(97,299,o),
(107,264,o),
(126,233,c),
(60,167,l),
(126,101,l),
(198,169,l),
(227,154,o),
(262,147,o),
(303,147,cs),
(343,147,o),
(377,153,o),
(405,168,c),
(476,101,l),
(542,167,l),
(478,231,l),
(498,262,o),
(509,299,o),
(509,338,cs),
(509,377,o),
(498,413,o),
(479,444,c),
(542,507,l),
(471,578,l),
(403,509,l),
(375,521,o),
(342,529,o),
(303,529,cs),
(263,529,o),
(229,522,o),
(200,507,c)
);
},
{
closed = 1;
nodes = (
(230,362,o),
(238,383,o),
(251,396,cs),
(263,409,o),
(282,417,o),
(303,417,cs),
(324,417,o),
(343,409,o),
(356,396,cs),
(368,383,o),
(376,362,o),
(376,338,cs),
(376,314,o),
(368,293,o),
(356,280,cs),
(343,267,o),
(324,259,o),
(303,259,cs),
(282,259,o),
(263,267,o),
(251,280,cs),
(238,293,o),
(230,314,o),
(230,338,cs)
);
}
);
width = 586;
},
{
layerId = "D56C188B-E5B2-4235-B802-3B7EEA6FD951";
shapes = (
{
closed = 1;
nodes = (
(121,568,l),
(64,512,l),
(132,443,l),
(112,412,o),
(102,375,o),
(102,338,cs),
(102,298,o),
(113,262,o),
(133,231,c),
(64,162,l),
(116,111,l),
(188,179,l),
(219,160,o),
(254,150,o),
(297,150,cs),
(338,150,o),
(375,160,o),
(403,179,c),
(476,111,l),
(527,162,l),
(459,230,l),
(480,261,o),
(491,298,o),
(491,338,cs),
(491,377,o),
(480,413,o),
(460,444,c),
(527,512,l),
(471,568,l),
(401,498,l),
(372,515,o),
(337,525,o),
(297,525,cs),
(256,525,o),
(220,516,o),
(191,497,c)
);
},
{
closed = 1;
nodes = (
(206,366,o),
(216,392,o),
(232,409,cs),
(248,426,o),
(270,437,o),
(297,437,cs),
(322,437,o),
(345,427,o),
(362,410,cs),
(378,393,o),
(388,367,o),
(388,338,cs),
(388,309,o),
(378,283,o),
(362,266,cs),
(345,249,o),
(322,238,o),
(297,238,cs),
(270,238,o),
(248,249,o),
(232,266,cs),
(216,282,o),
(206,309,o),
(206,337,cs)
);
}
);
width = 577;
},
{
layerId = "C7C3A33C-E883-49F1-BDC1-C605A621ADB5";
shapes = (
{
closed = 1;
nodes = (
(110,558,l),
(69,517,l),
(140,445,l),
(119,414,o),
(108,377,o),
(108,337,cs),
(108,297,o),
(120,260,o),
(141,229,c),
(69,157,l),
(105,121,l),
(178,190,l),
(209,167,o),
(246,154,o),
(290,154,cs),
(334,154,o),
(372,167,o),
(401,190,c),
(475,121,l),
(511,157,l),
(438,229,l),
(461,260,o),
(472,297,o),
(472,337,cs),
(472,377,o),
(460,414,o),
(439,445,c),
(511,517,l),
(470,558,l),
(399,486,l),
(368,509,o),
(333,521,o),
(290,521,cs),
(247,521,o),
(210,509,o),
(181,486,c)
);
},
{
closed = 1;
nodes = (
(180,371,o),
(192,402,o),
(212,424,cs),
(232,446,o),
(259,459,o),
(290,459,cs),
(321,459,o),
(348,447,o),
(368,425,cs),
(388,403,o),
(400,373,o),
(400,338,cs),
(400,303,o),
(388,273,o),
(368,251,cs),
(348,229,o),
(321,215,o),
(290,215,cs),
(259,215,o),
(232,229,o),
(212,250,cs),
(192,271,o),
(180,303,o),
(180,336,cs)
);
}
);
width = 567;
},
{
layerId = "F5CD80C0-3A8F-48DC-9182-C71904D0895A";
shapes = (
{
closed = 1;
nodes = (
(93,534,l),
(78,520,l),
(146,452,l),
(119,420,o),
(104,379,o),
(104,335,cs),
(104,290,o),
(120,249,o),
(148,217,c),
(78,148,l),
(93,134,l),
(162,202,l),
(193,174,o),
(232,157,o),
(279,157,cs),
(326,157,o),
(367,174,o),
(399,205,c),
(471,134,l),
(486,148,l),
(413,219,l),
(440,251,o),
(456,292,o),
(456,335,cs),
(456,378,o),
(440,418,o),
(415,450,c),
(486,520,l),
(471,534,l),
(401,465,l),
(370,496,o),
(327,515,o),
(279,515,cs),
(232,515,o),
(191,498,o),
(160,467,c)
);
},
{
closed = 1;
nodes = (
(125,379,o),
(143,420,o),
(171,449,cs),
(199,478,o),
(238,496,o),
(279,496,cs),
(322,496,o),
(361,478,o),
(389,450,cs),
(417,421,o),
(435,380,o),
(435,336,cs),
(435,292,o),
(417,252,o),
(389,223,cs),
(361,194,o),
(322,175,o),
(279,175,cs),
(238,175,o),
(199,193,o),
(171,222,cs),
(143,250,o),
(125,290,o),
(125,334,cs)
);
}
);
width = 551;
}
);
unicode = 164;
},
{
glyphname = yen;
layers = (
{
layerId = "089F0C00-674C-4F2E-8375-778CCED9E96B";
shapes = (
{
closed = 1;
nodes = (
(767,710,l),
(555,710,l),
(375,403,l),
(327,710,l),
(116,710,l),
(187,432,l),
(126,432,l),
(101,312,l),
(222,312,l),
(242,237,l),
(235,202,l),
(77,202,l),
(51,82,l),
(209,82,l),
(192,0,l),
(386,0,l),
(403,82,l),
(563,82,l),
(588,202,l),
(429,202,l),
(436,235,l),
(490,312,l),
(611,312,l),
(636,432,l),
(577,432,l)
);
}
);
width = 717;
},
{
layerId = "D56C188B-E5B2-4235-B802-3B7EEA6FD951";
shapes = (
{
closed = 1;
nodes = (
(741,710,l),
(583,710,l),
(354,373,l),
(271,710,l),
(115,710,l),
(209,406,l),
(140,406,l),
(121,314,l),
(236,314,l),
(256,249,l),
(249,216,l),
(100,216,l),
(80,125,l),
(229,125,l),
(203,0,l),
(347,0,l),
(373,125,l),
(525,125,l),
(544,216,l),
(393,216,l),
(400,247,l),
(449,314,l),
(564,314,l),
(584,406,l),
(516,406,l)
);
}
);
width = 690;
},
{
layerId = "C7C3A33C-E883-49F1-BDC1-C605A621ADB5";
shapes = (
{
closed = 1;
nodes = (
(712,710,l),
(613,710,l),
(332,340,l),
(211,710,l),
(113,710,l),
(233,377,l),
(155,377,l),
(142,317,l),
(252,317,l),
(271,261,l),
(264,231,l),
(124,231,l),
(111,171,l),
(251,171,l),
(215,0,l),
(305,0,l),
(341,171,l),
(484,171,l),
(496,231,l),
(354,231,l),
(360,259,l),
(405,317,l),
(514,317,l),
(527,377,l),
(450,377,l)
);
}
);
width = 660;
},
{
layerId = "F5CD80C0-3A8F-48DC-9182-C71904D0895A";
shapes = (
{
closed = 1;
nodes = (
(678,710,l),
(655,710,l),
(307,298,l),
(135,710,l),
(112,710,l),
(266,341,l),
(177,341,l),
(172,321,l),
(274,321,l),
(292,277,l),
(287,251,l),
(157,251,l),
(153,231,l),
(283,231,l),
(233,0,l),
(253,0,l),
(303,231,l),
(433,231,l),
(437,251,l),
(307,251,l),
(312,275,l),
(351,321,l),
(452,321,l),
(456,341,l),
(368,341,l)
);
}
);
width = 627;
}
);
unicode = 165;
},
